<?xml version="1.0" standalone="no"?>
<!DOCTYPE svg PUBLIC "-//W3C//DTD SVG 1.1//EN" "http://www.w3.org/Graphics/SVG/1.1/DTD/svg11.dtd" >
<svg xmlns="http://www.w3.org/2000/svg" xmlns:xlink="http://www.w3.org/1999/xlink" version="1.1">
<metadata></metadata>
<defs>
<font id="pf_beausans_problack_italic" horiz-adv-x="3723" >
<font-face units-per-em="2048" ascent="1536" descent="-512" />
<missing-glyph horiz-adv-x="606" />
<glyph unicode="fj" horiz-adv-x="1343" d="M96 840l25 166q2 18 8 28t33 17l143 36l6 43q10 76 35 151t79 135.5t146.5 97t239.5 36.5q59 -2 156.5 -9t214.5 -40q18 -4 28.5 -15t-0.5 -40l-41 -176q-6 -18 -17 -28.5t-38 -6.5q-82 14 -134 18t-103 4q-92 0 -145.5 -31.5t-65.5 -123.5l-4 -25l598 -2q33 0 38 -8 t0 -33l-116 -905q-18 -133 -53 -231.5t-91.5 -169t-137.5 -118.5t-189 -83q-41 -12 -53.5 -10t-22.5 28l-72 207q-12 35 -1 47.5t34 22.5q68 29 110 63.5t66.5 75.5t35.5 90t19 107l86 647h-288l-146 -1047q-4 -37 -18.5 -50t-34.5 -19l-270 -84q-18 -6 -36 2t-14 37 l160 1161h-141q-23 0 -27 9t-2 26z" />
<glyph unicode="ffj" horiz-adv-x="1912" d="M88 -432l174 1237h-141q-23 0 -27 9t-2 26l25 166q2 18 9 28t32 17l143 36l6 43q10 76 36 148t81 128t146.5 90t236.5 34q53 -2 139 -7t174 -26q57 35 129 55.5t178 20.5q59 -2 145.5 -8t186.5 -35q18 -4 27.5 -15.5t1.5 -39.5l-43 -177q-4 -18 -16.5 -28t-40.5 -6 q-66 10 -116 13t-85 3q-92 0 -144.5 -31.5t-64.5 -124.5l-8 -47l598 -2q33 0 38 -8t1 -33l-117 -882q-18 -133 -53 -231.5t-91.5 -169t-137.5 -119t-189 -83.5q-41 -12 -53.5 -10t-22.5 29l-72 207q-12 35 -0.5 47t33.5 22q68 29 110 64t66.5 76t35.5 90t20 106l86 625h-289 l-141 -1002q-4 -27 -18.5 -39t-35.5 -18l-260 -78q-18 -6 -39.5 -1t-17.5 34l153 1104h-253l-160 -1122q-4 -37 -18.5 -50.5t-34.5 -19.5l-271 -84q-18 -6 -35.5 2t-13.5 37zM657 1075h256l13 78q2 20 6 40.5t8 41.5q-20 2 -38 2h-30q-47 0 -82.5 -4t-62.5 -18.5t-43 -41 t-22 -71.5z" />
<glyph unicode="&#xfb00;" horiz-adv-x="1542" d="M92 -432l174 1237h-141q-23 0 -27 9t-2 26l25 166q2 18 8 28t33 17l143 36l4 33q10 76 35 148.5t78 129t144 91.5t237 35q51 -2 141 -7.5t182 -25.5q47 35 103.5 51.5t130.5 16.5q14 0 44 -1.5t66.5 -5.5t78.5 -12t81 -20q23 -8 23 -18.5t-4 -26.5l-50 -215 q-8 -23 -17 -25t-32 2q-25 4 -65.5 7t-63.5 3q-59 0 -76.5 -24.5t-21.5 -51.5l-14 -96h233q16 0 23.5 -5t3.5 -26l-29 -208q-4 -16 -9 -23.5t-34 -7.5h-225l-142 -1002q-4 -27 -18 -39t-35 -18l-260 -78q-18 -6 -39.5 -1t-17.5 34l153 1104h-288l-160 -1122 q-4 -37 -18.5 -50.5t-34.5 -19.5l-271 -84q-18 -6 -35.5 2t-13.5 37zM662 1077l288 -2l13 88l12 60q-27 4 -53.5 6t-49.5 2q-92 0 -144 -25.5t-62 -103.5z" />
<glyph unicode="&#xfb01;" horiz-adv-x="1343" d="M96 840l25 166q2 18 8 28t33 17l143 36l6 43q10 76 35 151t79 135.5t146.5 97t239.5 36.5q59 -2 156.5 -9t214.5 -40q18 -4 28.5 -15t-0.5 -40l-41 -176q-6 -18 -17 -28.5t-38 -6.5q-82 14 -134 18t-103 4q-92 0 -145.5 -31.5t-65.5 -123.5l-4 -25l602 -2q35 0 41 -8 t2 -33l-140 -993q-4 -25 -11 -33t-42 -8h-264q-47 0 -41 41l109 764h-293l-152 -1081q-4 -37 -18.5 -50.5t-34.5 -19.5l-270 -84q-18 -6 -36 2t-14 37l166 1196h-141q-23 0 -27 9t-2 26z" />
<glyph unicode="&#xfb02;" horiz-adv-x="1466" d="M98 820q-4 9 0 26l23 160q2 18 8 28t33 17l143 36l6 43q10 76 36 151t81 135.5t146.5 97t236.5 36.5q27 0 65.5 -2t84 -6t95.5 -11t101 -20l201 39q47 8 41 -39l-158 -1126q-6 -49 3 -71.5t61 -22.5q14 0 34.5 1t36.5 3q23 2 28 -2t7 -25l25 -215q2 -20 -7.5 -28.5 t-35.5 -16.5q-57 -16 -125 -23.5t-129 -7.5q-80 0 -137.5 15.5t-91 56.5t-43 110.5t6.5 178.5l132 903q-41 4 -71 6t-61 2q-92 0 -144 -28.5t-64 -118.5l-4 -25h200q27 0 30 -8t-1 -29l-27 -184q-4 -23 -7 -33t-32 -10h-200l-152 -1083q-4 -37 -18.5 -50.5t-34.5 -19.5 l-270 -84q-18 -6 -36 2t-14 37l166 1196h-141q-23 0 -27 9z" />
<glyph unicode="&#xfb03;" horiz-adv-x="1912" d="M88 -432l174 1237h-141q-23 0 -27 9t-2 26l25 166q2 18 9 28t32 17l143 36l6 43q10 76 36 148t81 128t146.5 90t236.5 34q53 -2 139 -7t174 -26q57 35 129 55.5t178 20.5q59 -2 145.5 -8t186.5 -35q18 -4 27.5 -15.5t1.5 -39.5l-43 -177q-4 -18 -16.5 -28t-40.5 -6 q-66 10 -116 13t-85 3q-92 0 -144.5 -31.5t-64.5 -124.5l-8 -47l565 -2q33 0 39 -8t2 -33l-139 -993q-4 -25 -11.5 -33t-39.5 -8h-265q-49 0 -43 41l109 764h-254l-141 -1002q-4 -27 -18.5 -39t-35.5 -18l-260 -78q-18 -6 -39.5 -1t-17.5 34l153 1104h-253l-160 -1122 q-4 -37 -18.5 -50.5t-34.5 -19.5l-271 -84q-18 -6 -35.5 2t-13.5 37zM657 1075h256l13 78q2 20 6 40.5t8 41.5q-20 2 -38 2h-30q-47 0 -82.5 -4t-62.5 -18.5t-43 -41t-22 -71.5z" />
<glyph unicode="&#xfb04;" horiz-adv-x="2013" d="M88 -432l174 1237h-141q-23 0 -27 9t-2 26l25 166q2 18 9 28t32 17l143 36l6 43q10 76 36 148t81 128t146.5 90t236.5 34q53 -2 131 -7t182 -26q53 35 121 54.5t172 19.5q53 -2 123 -8.5t172 -30.5l201 39q47 8 41 -39l-164 -1147q-6 -49 3 -71.5t60 -22.5q14 0 35 1 t37 3q23 2 28 -2t7 -25l24 -215q2 -20 -7 -28.5t-36 -16.5q-57 -16 -124.5 -23.5t-129.5 -7.5q-80 0 -137 15.5t-90 56.5t-43 110.5t6 178.5l133 924q-18 4 -37.5 6t-50.5 2q-76 0 -121 -29t-57 -119l-8 -45h143q27 0 30 -8t-1 -29l-27 -192q-4 -23 -8 -33t-31 -10h-151 l-141 -1002q-4 -27 -18.5 -39t-35.5 -18l-260 -78q-18 -6 -39.5 -1t-17.5 34l153 1104h-253l-160 -1122q-4 -37 -18.5 -50.5t-34.5 -19.5l-271 -84q-18 -6 -35.5 2t-13.5 37zM657 1075h256l13 78q2 20 6 40.5t8 41.5q-20 2 -38 2h-30q-47 0 -82.5 -4t-62.5 -18.5t-43 -41 t-22 -71.5z" />
<glyph unicode="ft" horiz-adv-x="1550" d="M93 820q-1 9 3 26l23 160q2 18 9 28t32 17l143 32l21 144q10 70 34.5 131t68.5 107t112.5 72t167.5 26q14 0 40.5 -1t60.5 -4.5t70.5 -9.5t73.5 -18q25 -8 29 -20.5t0 -28.5l-51 -209q-6 -23 -16.5 -28t-30.5 -1q-29 4 -58.5 6t-52.5 2q-59 0 -76.5 -23.5t-21.5 -51.5 l-15 -101l289 2l23 148q4 29 17 40t34 17l276 84q51 14 45 -39l-36 -252h221q27 0 30 -8t-2 -29l-26 -184q-4 -23 -7 -33t-32 -10h-221l-60 -432q-8 -51 14.5 -69.5t78.5 -18.5q31 0 70.5 5t64.5 9q35 2 37 -29l28 -217q-2 -14 -4 -23t-26 -18q-86 -27 -172.5 -34t-151.5 -7 q-180 0 -256 80t-55 222l73 532h-288l-152 -1081q-4 -37 -18.5 -50.5t-34.5 -19.5l-271 -84q-18 -6 -35.5 2t-13.5 37l166 1196h-147q-23 0 -24 9z" />
<glyph horiz-adv-x="0" />
<glyph horiz-adv-x="682" />
<glyph unicode=" "  horiz-adv-x="606" />
<glyph unicode="&#x09;" horiz-adv-x="606" />
<glyph unicode="&#xa0;" horiz-adv-x="606" />
<glyph unicode="!" horiz-adv-x="636" d="M88 145q0 47 16.5 89t46 73t70.5 49.5t88 18.5q78 0 133.5 -49.5t55.5 -124.5q0 -45 -16.5 -86t-45 -72t-69.5 -48.5t-91 -17.5q-86 0 -137 48.5t-51 119.5zM199 522l80 862q2 29 14 39.5t47 10.5h252q41 0 47 -13.5t2 -36.5l-170 -862q-4 -27 -15.5 -33t-33.5 -6h-174 q-29 0 -41 7.5t-8 31.5z" />
<glyph unicode="&#x22;" horiz-adv-x="1114" d="M268 803l35 579q2 29 15.5 40.5t48.5 11.5h229q41 0 45 -14.5t0 -37.5l-125 -579q-6 -27 -17.5 -33t-33.5 -6h-150q-29 0 -40 7t-7 32zM719 803l35 579q4 29 16 40.5t47 11.5h230q41 0 47 -14.5t2 -37.5l-127 -579q-6 -27 -17.5 -33t-36.5 -6h-149q-29 0 -40 7t-7 32z " />
<glyph unicode="#" horiz-adv-x="1384" d="M137 311l49 154q6 14 12.5 20.5t30.5 6.5h138l77 229h-137q-20 0 -23 8t1 25l51 147q6 14 13 23.5t30 9.5h137l90 250q6 16 14.5 22t36.5 6h146q27 0 32 -6t-4 -30l-79 -242h196l86 250q4 16 14.5 22t36.5 6h146q29 0 34 -6t-3 -30l-84 -242h151q31 0 14 -35l-57 -145 q-8 -23 -15 -28t-22 -5h-143l-78 -229h148q16 0 18 -9.5t-4 -25.5l-53 -146q-10 -20 -18.5 -26t-20.5 -6h-142l-88 -248q-6 -16 -13 -23.5t-30 -7.5h-163q-18 0 -24.5 5t1.5 30l86 244h-199l-86 -248q-6 -16 -12 -23.5t-33 -7.5h-159q-23 0 -29 5t2 30l86 244h-137 q-35 0 -21 32zM598 492h195l81 229h-196z" />
<glyph unicode="$" horiz-adv-x="1384" d="M150 148.5q0 13.5 14 39.5l86 179q14 27 25.5 30.5t33.5 -6.5q49 -20 108.5 -40.5t131.5 -37.5l41 291q-68 31 -127.5 68t-103.5 83t-70.5 105.5t-26.5 136.5q0 76 27.5 146.5t83 124t137.5 87.5t190 36l25 176q4 23 11 23.5t24 0.5h51q18 0 26.5 -1t4.5 -23l-250 -1774 q-4 -23 -11.5 -23.5t-25.5 -0.5h-51q-16 0 -24.5 1t-4.5 23l29 205q-176 25 -342 129q-12 8 -12 21.5zM594 1006q0 -12 4 -35t37 -47l20 151q-35 -6 -48 -26t-13 -43zM657 -207l250 1774q4 23 12.5 23.5t24.5 0.5h43q16 0 24.5 -1t4.5 -23l-27 -187q92 -16 150.5 -39.5 t97.5 -44.5q20 -10 18 -26.5t-14 -44.5l-57 -152q-12 -31 -24.5 -36t-35.5 1q-35 10 -86 21.5t-92 19.5l-37 -276q68 -37 126.5 -80t100.5 -93t66.5 -108.5t24.5 -126.5q0 -92 -32 -164.5t-88 -123t-136 -81t-176 -38.5l-29 -195q-4 -23 -11 -23.5t-24 -0.5h-43 q-16 0 -25.5 1t-5.5 23zM840 311q35 16 52 46t17 57q0 18 -9 35.5t-36 37.5z" />
<glyph unicode="%" horiz-adv-x="2048" d="M127 885q0 248 122 379t335 131q176 0 262 -93.5t86 -259.5q0 -115 -31 -208t-88 -159.5t-142 -103t-192 -36.5q-178 0 -265 93t-87 257zM406 891q0 -131 96 -131q68 0 109.5 71.5t41.5 208.5q0 129 -96 129q-68 0 -109.5 -70.5t-41.5 -207.5zM424 -67.5q-2 14.5 8 30.5 l1038 1473q10 16 19.5 22t34.5 6h145q25 0 30 -12t-9 -33l-1024 -1462q-14 -18 -34 -28.5t-54 -10.5h-127q-25 0 -27 14.5zM1174 338q0 248 121.5 379t334.5 131q176 0 262 -93t86 -259q0 -115 -30.5 -208t-88 -160t-142.5 -103.5t-191 -36.5q-178 0 -265 93t-87 257z M1452 344q0 -131 96 -131q68 0 110 71.5t42 209.5q0 129 -96 129q-68 0 -110 -71t-42 -208z" />
<glyph unicode="&#x26;" horiz-adv-x="1562" d="M119 328q0 84 26.5 156.5t71.5 134t104.5 112.5t124.5 92q-31 49 -51 107.5t-20 126.5q0 96 35.5 171t96 126t140.5 77.5t168 26.5q78 0 143.5 -20.5t112.5 -60.5t72.5 -96t25.5 -128q0 -78 -25.5 -141.5t-66.5 -112.5t-90 -88t-96 -68l61 -88q59 74 143.5 137.5 t186.5 92.5q39 10 63.5 15t55.5 7q18 2 24.5 -3t6.5 -21l30 -217q2 -16 -4 -25.5t-31 -15.5q-111 -25 -183.5 -76t-119.5 -133q29 -39 75 -100.5t91 -120.5q53 -70 111 -146q10 -12 4 -30.5t-37 -18.5h-268q-35 0 -59.5 7t-41.5 30q-12 14 -24 31q-10 14 -24.5 32.5 t-28.5 38.5q-86 -78 -185.5 -121t-234.5 -43q-178 0 -280.5 91.5t-102.5 261.5zM461 387q0 -14 4 -29.5t16.5 -29t32.5 -22.5t55 -9q41 0 92.5 22.5t86.5 57.5q-37 55 -72 105t-70 104q-59 -35 -102 -87.5t-43 -111.5zM698 1067q0 -25 12.5 -49.5t30.5 -52.5q53 33 77 61.5 t24 63.5q0 29 -15.5 48t-40.5 19q-41 0 -64.5 -25.5t-23.5 -64.5z" />
<glyph unicode="'" horiz-adv-x="661" d="M268 803l35 579q4 29 16.5 40.5t47.5 11.5h229q41 0 45 -14.5t0 -37.5l-125 -579q-6 -27 -17.5 -33t-33.5 -6h-150q-29 0 -40 7t-7 32z" />
<glyph unicode="(" horiz-adv-x="772" d="M154 510q0 154 38.5 290t103 257t150 227.5t177.5 198.5q31 31 44 28.5t40 -22.5l116 -94q16 -14 21.5 -22.5t-13.5 -31.5q-158 -188 -243.5 -386.5t-85.5 -444.5q0 -135 35.5 -254t105.5 -248q12 -23 5 -38t-30 -31l-143 -95q-33 -20 -45 -14t-35 37q-49 70 -93 141.5 t-76.5 150.5t-52 166t-19.5 185z" />
<glyph unicode=")" horiz-adv-x="792" d="M70 -29.5q-4 15.5 16 37.5q80 96 141.5 189.5t102.5 192.5t62.5 209t21.5 237q0 137 -35 259t-105 246q-14 23 -8 31t29 23l145 94q31 20 44 22.5t36 -28.5q100 -139 169 -305t69 -369q0 -158 -38 -290t-102.5 -246.5t-148.5 -214t-176 -191.5q-31 -31 -45.5 -37 t-38.5 14l-119 95q-16 16 -20 31.5z" />
<glyph unicode="*" horiz-adv-x="1042" d="M221 1044.5q-4 6.5 10 38.5l66 142q20 49 53 32l180 -94l5 207q0 25 10 34t41 9h145q29 0 35 -6t2 -37l-55 -213l192 92q25 10 36 1t17 -38l27 -139q4 -29 -2 -38t-35 -13l-211 -45q29 -37 61.5 -75t59.5 -75q16 -23 9 -36t-33 -31l-132 -90q-27 -16 -32.5 -13.5 t-16.5 31.5q-23 51 -41 92t-41 92l-120 -186q-18 -27 -33 -27t-33 17q-29 23 -54.5 45t-51.5 45q-18 16 -20.5 27.5t20.5 31.5l165 158l-192 49q-27 6 -31 12.5z" />
<glyph unicode="+" horiz-adv-x="1384" d="M209 608l27 189q4 35 14 42t35 7h313l47 346q6 41 51 41h230q33 0 39 -8t2 -33l-47 -346h315q25 0 30 -7.5t1 -41.5l-27 -189q-6 -47 -45 -47h-315l-50 -344q-4 -25 -11 -33t-40 -8h-229q-47 0 -41 41l49 344h-313q-41 0 -35 47z" />
<glyph unicode="," horiz-adv-x="606" d="M47 -238l100 547q4 29 15.5 38t46.5 9h252q41 0 43 -12t-6 -35l-215 -547q-8 -25 -17.5 -31.5t-34.5 -6.5h-135q-29 0 -41 7t-8 31z" />
<glyph unicode="-" horiz-adv-x="880" d="M147 516l29 203q4 35 14.5 42t32.5 7h537q25 0 31 -7t2 -42l-29 -203q-6 -47 -47 -47h-537q-39 0 -33 47z" />
<glyph unicode="." horiz-adv-x="624" d="M88 147q0 45 19.5 87t51 73t73.5 49.5t87 18.5q78 0 128.5 -48t50.5 -124q0 -47 -19.5 -88t-52.5 -72t-75 -48.5t-87 -17.5q-76 0 -126 48.5t-50 121.5z" />
<glyph unicode="/" horiz-adv-x="944" d="M-53 -156l858 1717q8 18 20.5 25t46.5 7h195q51 0 29 -39l-856 -1714q-10 -23 -27.5 -30t-54.5 -7h-189q-43 0 -22 41z" />
<glyph unicode="0" horiz-adv-x="1384" d="M133 555q0 193 48 349.5t139.5 267t220 171t290.5 60.5q129 0 225.5 -39t160 -112.5t95 -178t31.5 -235.5q0 -195 -48 -353.5t-137 -271.5t-217 -174.5t-290 -61.5q-131 0 -228 40t-161.5 115t-96.5 182.5t-32 240.5zM502 549q0 -125 44 -190.5t138 -65.5q129 0 210 137 t81 404q0 256 -184 256q-127 0 -208 -136.5t-81 -404.5z" />
<glyph unicode="1" horiz-adv-x="1384" d="M236 43l30 205q4 35 13.5 40t31.5 5h193l106 758l-202 -37q-29 -6 -37.5 1t-3.5 36l26 188q2 18 8.5 32.5t32.5 22.5l371 97q43 12 82 12t66.5 -13.5t41 -44t4.5 -81.5l-135 -971h219q23 0 30 -5t3 -40l-31 -205q-4 -27 -13 -35t-30 -8h-772q-20 0 -29.5 8t-4.5 35z" />
<glyph unicode="2" horiz-adv-x="1384" d="M135 154q0 115 74 216t192 195q78 63 169.5 123t187.5 119q59 37 95 63.5t55.5 50t25.5 43t6 42.5q0 12 -4 26.5t-16.5 26.5t-38 20t-68.5 8q-78 0 -155.5 -23.5t-176.5 -80.5q-23 -12 -37 -12t-24 20l-107 180q-20 37 13 60q131 88 264 130t272 42q96 0 180 -21.5 t145.5 -65.5t96.5 -111.5t35 -157.5q0 -78 -29.5 -145.5t-82 -126t-122 -109t-149.5 -93.5q-47 -25 -99.5 -58.5t-101.5 -70t-91 -75.5t-66 -76h579q25 0 36 -5t7 -40l-31 -205q-4 -27 -15 -35t-34 -8h-811q-78 0 -126 28.5t-48 125.5z" />
<glyph unicode="3" horiz-adv-x="1384" d="M142.5 153.5q0.5 12.5 19.5 34.5l108 174q18 31 32.5 33t43.5 -16q74 -47 151.5 -68.5t139.5 -21.5q106 0 160.5 49t54.5 129q0 59 -43 90t-119 31h-51q-18 0 -32.5 1t-24 8t-12.5 22.5t1 44.5l17 110q8 55 25.5 69.5t58.5 14.5h55q80 0 125 35t45 92q0 53 -36 75.5 t-105 22.5q-61 0 -142.5 -21.5t-162.5 -68.5q-23 -12 -40.5 -14t-29.5 25l-86 174q-10 23 -8 36t24 29q57 43 123 74t131.5 49t130 26.5t121.5 8.5q80 0 163 -17.5t149.5 -57.5t109.5 -105.5t43 -159.5q0 -106 -62.5 -191.5t-189.5 -134.5l-2 -10q61 -20 100 -53t61.5 -73 t31 -83t8.5 -82q0 -102 -41 -186t-115 -144.5t-176 -93.5t-227 -33q-160 0 -291 39t-217 109q-20 16 -19.5 28.5z" />
<glyph unicode="4" horiz-adv-x="1384" d="M115 373l10 71q6 41 26.5 90.5t53.5 83.5l610 668q20 23 41 43.5t47.5 36.5t61 26.5t84.5 10.5h122q59 0 81 -31t12 -108l-101 -721h119q25 0 37 -5.5t8 -39.5l-29 -205q-4 -27 -16 -35t-35 -8h-125l-30 -207q-4 -25 -11.5 -34t-40.5 -9h-264q-49 0 -43 43l31 205h-522 q-29 0 -54.5 4t-44 16.5t-26.5 37t-2 67.5zM496 551l2 -10h305l53 379l-14 6z" />
<glyph unicode="5" horiz-adv-x="1384" d="M119 160.5q-2 11.5 12 32.5l121 194q16 25 31.5 22t44.5 -20q74 -45 151.5 -66.5t138.5 -21.5q147 0 211 51t64 144q0 57 -37 94t-108 37q-68 0 -123.5 -20.5t-112.5 -43.5q-23 -10 -62.5 -16t-72.5 4l-96 27q-61 16 -70.5 51t2.5 84l127 501q23 92 63.5 130t120.5 38 h713q29 0 42 -5t7 -46l-29 -203q-4 -33 -18 -43t-41 -10h-565l-47 -176q59 14 116.5 18.5t108.5 4.5q217 0 334 -105.5t117 -298.5q0 -141 -53.5 -243.5t-141.5 -168t-199.5 -97.5t-230.5 -32q-53 0 -113.5 5.5t-124 23t-130 48t-130.5 81.5q-18 14 -20 25.5z" />
<glyph unicode="6" horiz-adv-x="1384" d="M147 530q0 195 52.5 356t152 276.5t242.5 180t326 64.5q74 0 158.5 -10.5t154.5 -34.5q12 -4 18 -13.5t-4 -50.5l-51 -202q-4 -16 -12 -22.5t-17.5 -7.5t-18.5 1t-15 4q-53 14 -102.5 19.5t-102.5 5.5q-117 0 -207 -48.5t-143 -164.5q25 6 57.5 13t66 11t66.5 7.5t57 3.5 q106 0 194.5 -22t151 -69t96 -121.5t33.5 -181.5q0 -137 -55 -239.5t-144 -171t-202 -102.5t-229 -34q-141 0 -240.5 40t-162 114t-91.5 175.5t-29 223.5zM518 516q0 -109 45 -168t144 -59q43 0 82.5 12t70.5 38t49.5 64.5t18.5 92.5q0 131 -162 131q-70 0 -122 -10.5 t-122 -26.5q-2 -20 -3 -39t-1 -35z" />
<glyph unicode="7" horiz-adv-x="1384" d="M159 18.5q-5 18.5 7 36.5l708 1020h-583q-25 0 -33 10.5t-4 42.5l27 197q6 41 16 49t39 8h913q59 0 83 -25.5t18 -72.5l-11 -67q-4 -33 -17 -68t-40 -74l-700 -1020q-23 -33 -46.5 -44t-64.5 -11h-276q-31 0 -36 18.5z" />
<glyph unicode="8" horiz-adv-x="1384" d="M125 365q0 66 19.5 126t53 110t77.5 86t94 54l2 7q-66 33 -89.5 93t-23.5 120q0 109 50 191.5t131 138t182.5 84t203.5 28.5q221 0 338 -89t117 -253q0 -37 -8 -80t-29.5 -84t-57.5 -81t-93 -71l-2 -4q47 -18 77.5 -51t49 -70.5t25.5 -77.5t7 -75q0 -117 -50 -208 t-135 -153.5t-197.5 -95.5t-237.5 -33q-117 0 -210 26t-158.5 75t-100.5 121.5t-35 165.5zM498 416q0 -51 35.5 -95.5t128.5 -44.5q61 0 103 19.5t66.5 48.5t36 60.5t11.5 58.5q0 66 -43 103.5t-125 37.5q-98 0 -155.5 -55t-57.5 -133zM612 948q0 -41 31 -72.5t96 -31.5 q45 0 78 13t54.5 33.5t31.5 46.5t10 48q0 43 -29.5 77t-105.5 34q-86 0 -126 -42t-40 -106z" />
<glyph unicode="9" horiz-adv-x="1384" d="M172 860q0 137 55.5 239.5t144.5 171t201.5 102.5t229.5 34q141 0 240.5 -40t162 -113.5t91 -175t28.5 -224.5q0 -195 -52 -355.5t-151.5 -276.5t-243 -180.5t-325.5 -64.5q-74 0 -166 10.5t-162 35.5q-12 4 -20 13t6 50l65 203q10 33 30 29.5t34 -5.5q53 -14 102.5 -19 t102.5 -5q117 0 207 48t143 165q-25 -6 -57.5 -13.5t-66.5 -11.5t-66.5 -7t-57.5 -3q-106 0 -194 21.5t-150.5 68.5t-96.5 122t-34 181zM545 889q0 -131 162 -131q70 0 122 10t121 27q2 20 3 38.5t1 34.5q0 109 -45 168.5t-143 59.5q-43 0 -83 -12.5t-70.5 -38t-49 -64.5 t-18.5 -92z" />
<glyph unicode=":" horiz-adv-x="628" d="M88 147q0 45 19.5 87t51 73t73.5 49.5t87 18.5q78 0 128.5 -48t50.5 -124q0 -47 -19.5 -88t-52.5 -72t-75 -48.5t-87 -17.5q-76 0 -126 48.5t-50 121.5zM182 825q0 45 19.5 87t52.5 73t75 49.5t87 18.5q78 0 127 -48.5t49 -119.5q0 -47 -18.5 -89t-51.5 -73t-74.5 -49.5 t-89.5 -18.5q-76 0 -126 48.5t-50 121.5z" />
<glyph unicode=";" horiz-adv-x="628" d="M49 -231l96 532q6 29 17.5 42t46.5 13h252q39 0 41 -17t-6 -38l-211 -532q-10 -25 -19.5 -35t-34.5 -10h-135q-59 0 -47 45zM182 825q0 45 19.5 87t52.5 73t75 49.5t87 18.5q78 0 127 -48.5t49 -119.5q0 -47 -18.5 -89t-51.5 -73t-74.5 -49.5t-89.5 -18.5 q-76 0 -126 48.5t-50 121.5z" />
<glyph unicode="&#x3c;" horiz-adv-x="1384" d="M219 664l10 65q6 53 34 74.5t67 38.5l950 442q20 10 30.5 10t15.5 -7t5 -18.5t-2 -25.5l-26 -196q-4 -35 -13.5 -50.5t-52.5 -35.5l-578 -263l504 -266q37 -20 41 -35.5t0 -50.5l-26 -180q-4 -29 -15.5 -45.5t-46.5 4.5l-825 442q-41 23 -58.5 44.5t-13.5 52.5z" />
<glyph unicode="=" horiz-adv-x="1384" d="M172 348l29 199q4 29 12 36t33 7h954q23 0 29 -8.5t2 -36.5l-27 -191q-6 -49 -47 -49h-948q-23 0 -32 9.5t-5 33.5zM240 825l26 191q4 35 15.5 42t35.5 7h945q25 0 30.5 -7t1.5 -42l-26 -191q-6 -47 -47 -47h-945q-43 0 -36 47z" />
<glyph unicode="&#x3e;" horiz-adv-x="1384" d="M152 166l26 203q4 35 14.5 50t53.5 36l575 266l-502 262q-37 20 -42 35.5t-1 50.5l27 174q4 29 15.5 45.5t48.5 -4.5l821 -442q35 -16 56.5 -38t15.5 -75l-11 -65q-4 -31 -26.5 -52.5t-73.5 -44.5l-946 -442q-41 -20 -48.5 -4t-2.5 45z" />
<glyph unicode="?" horiz-adv-x="1222" d="M219 1262.5q2 11.5 25 25.5q131 88 270 125t256 37q84 0 167 -14.5t148.5 -48t105.5 -93t40 -147.5q0 -57 -18.5 -106.5t-49 -92.5t-70.5 -82t-83 -75q-39 -35 -77 -69t-70 -70t-54.5 -72.5t-28.5 -77.5l-8 -51q-4 -23 -9 -27t-26 -4h-276q-27 0 -27 10t2 27l10 75 q8 61 31 109.5t52.5 88.5t64.5 72t68 60q53 45 91 87t38 102q0 37 -33 52t-64 15q-76 0 -148.5 -21.5t-168.5 -72.5q-23 -12 -33 -12t-20 22l-101 201q-6 16 -4 27.5zM346 123q0 47 19.5 88t52.5 71.5t75 49t87 18.5q78 0 127 -48t49 -120q0 -47 -18.5 -88t-50.5 -70.5 t-74 -46t-89 -16.5q-76 0 -127 45t-51 117z" />
<glyph unicode="@" horiz-adv-x="1949" d="M166 561q0 195 68.5 368t197.5 302t313.5 204.5t415.5 75.5q174 0 310.5 -47t230.5 -133t142 -209t48 -274q0 -141 -43 -257t-114.5 -198t-164.5 -126t-196 -44q-82 0 -141 21.5t-96 85.5l-11 2q-41 -31 -81.5 -49.5t-77.5 -27.5t-68 -11t-51 -2q-72 0 -122 25.5 t-82 69.5t-47 100.5t-15 117.5q0 254 109.5 397.5t330.5 143.5q74 0 169 -9.5t193 -35.5q27 -8 31 -21.5t0 -30.5l-61 -456q-8 -57 12 -82t51 -25q43 0 85 28t76 79t54.5 123.5t20.5 162.5q0 209 -125 334t-385 125q-174 0 -312.5 -59.5t-234.5 -159.5t-147.5 -230 t-51.5 -272q0 -113 33 -208t97.5 -163.5t161.5 -107.5t226 -39q47 0 126 9.5t171 37.5q8 4 21.5 3t21.5 -25l39 -117q10 -29 -1 -38t-21 -13q-96 -41 -191.5 -56.5t-171.5 -15.5q-188 0 -327.5 54.5t-231.5 151.5t-138 230t-46 291zM870 608q0 -72 22.5 -98.5t68.5 -26.5 q16 0 47.5 7.5t66.5 25.5l47 342q-23 4 -41.5 7t-38.5 3q-86 0 -129 -71.5t-43 -188.5z" />
<glyph unicode="A" horiz-adv-x="1339" d="M-24.5 11.5q-4.5 11.5 1.5 27.5l570 1268q37 82 79 105.5t107 23.5h162q35 0 61.5 -3t46 -15.5t33 -38t19.5 -70.5l213 -1270q2 -10 -2 -24.5t-27 -14.5h-295q-23 0 -38 6t-19 29l-31 246h-391l-98 -236q-12 -23 -23.5 -34t-46.5 -11h-299q-18 0 -22.5 11.5zM592 584h225 l-14 159l-23 295h-16l-111 -301z" />
<glyph unicode="B" horiz-adv-x="1388" d="M117 135l164 1163q10 68 36.5 102t110.5 34h492q82 0 155.5 -16.5t129 -54.5t87 -98.5t31.5 -148.5q0 -125 -55.5 -200.5t-132.5 -120.5l-2 -13q92 -43 126.5 -123.5t34.5 -169.5q0 -102 -41 -191t-114.5 -154.5t-175 -104.5t-220.5 -39h-516q-85 0 -103 32 q-12 20 -11 55q0 21 4 48zM516 334h236q45 0 75.5 16.5t49 40t25.5 51t7 50.5q0 49 -29.5 79.5t-88.5 30.5h-236zM598 905h209q20 0 41.5 5t40 19.5t30 37t11.5 57.5q0 37 -23.5 57.5t-64.5 20.5h-217z" />
<glyph unicode="C" horiz-adv-x="1333" d="M150 563q0 211 55 377t152.5 279.5t232.5 174t295 60.5q117 0 218 -21.5t185 -68.5q31 -16 29 -34.5t-19 -53.5l-71 -168q-16 -41 -31.5 -47t-50.5 6q-37 12 -69 21.5t-60.5 15.5t-59 8t-67.5 2q-68 0 -129.5 -29.5t-108.5 -92t-74.5 -160t-27.5 -232.5q0 -137 52 -206.5 t181 -69.5q102 0 177 24.5t141 48.5q33 12 42 7t23 -37l80 -189q12 -29 6 -44t-28 -28q-129 -74 -252 -101.5t-252 -27.5q-154 0 -262.5 43t-177 120t-99 185.5t-30.5 237.5z" />
<glyph unicode="D" horiz-adv-x="1404" d="M117 135l164 1163q10 68 36.5 102t110.5 34h365q162 0 269 -48.5t171.5 -128t90.5 -184t26 -219.5q0 -90 -13.5 -187.5t-46.5 -192.5t-86 -181t-133 -150.5t-190.5 -103.5t-253.5 -39h-400q-85 0 -103 32q-12 20 -11 55q0 21 4 48zM518 336h88q100 0 169 41t111 107.5 t60.5 152.5t18.5 178q0 63 -12.5 116.5t-42 91.5t-79 58.5t-124.5 20.5h-82z" />
<glyph unicode="E" horiz-adv-x="1255" d="M148 252q-2 26 -3 52q0 43 7 85l92 655q10 74 34.5 145t71.5 125t122 87t185 33h600q25 0 31 -7.5t2 -42.5l-33 -231q-4 -27 -13 -36t-32 -9h-464q-39 0 -65 -11.5t-40 -27.5t-21.5 -36.5t-9.5 -41.5l-12 -86h533q25 0 28.5 -8t-0.5 -43l-31 -213q-4 -27 -12 -37t-31 -10 h-532l-20 -154q-6 -39 0 -61.5t20 -33.5t35.5 -14t46.5 -3h518q23 0 29 -7.5t2 -41.5l-33 -232q-8 -47 -43 -47h-629q-119 0 -188.5 35t-104 91t-40.5 126z" />
<glyph unicode="F" horiz-adv-x="1191" d="M102 41l142 1003q10 74 38.5 145t81 125t130 87t186.5 33h596q23 0 29 -7.5t2 -42.5l-33 -231q-4 -27 -13.5 -36t-29.5 -9h-483q-39 0 -65 -11.5t-40 -27.5t-21.5 -36.5t-9.5 -41.5l-18 -127h522q25 0 30 -8t1 -43l-29 -213q-8 -47 -47 -47h-522l-72 -512q-4 -25 -11 -33 t-40 -8h-283q-42 0 -42 32q0 4 1 9z" />
<glyph unicode="G" horiz-adv-x="1425" d="M150 563q0 211 58 377t159.5 279.5t239.5 174t298 60.5q117 0 218.5 -21.5t185.5 -68.5q31 -16 28.5 -34.5t-18.5 -53.5l-72 -168q-16 -41 -31.5 -47t-50.5 6q-37 12 -68.5 21.5t-60 15.5t-59.5 8t-68 2q-68 0 -132 -29.5t-115.5 -92t-82 -160t-30.5 -232.5 q0 -137 52 -206.5t181 -69.5q45 0 86 5t86 17l50 397q6 43 53 43h262q35 0 41 -9t2 -34l-66 -534q-4 -35 -17 -66.5t-60 -56.5q-68 -37 -140.5 -58.5t-141.5 -32.5t-126 -14.5t-92 -3.5q-154 0 -262.5 43t-177 120t-99 185.5t-30.5 237.5z" />
<glyph unicode="H" horiz-adv-x="1490" d="M102 43l191 1348q6 43 51 43h283q33 0 39 -9.5t2 -33.5l-68 -484h440l68 484q6 43 53 43h281q35 0 41 -9.5t2 -33.5l-191 -1348q-4 -25 -11 -34t-42 -9h-280q-44 0 -44 34q0 4 1 9l77 541h-440l-78 -541q-4 -25 -11 -34t-40 -9h-283q-42 0 -42 34q0 4 1 9z" />
<glyph unicode="I" horiz-adv-x="733" d="M131 43l191 1348q6 43 53 43h280q35 0 41 -9.5t2 -33.5l-190 -1348q-4 -25 -11.5 -34t-41.5 -9h-281q-44 0 -44 34q0 4 1 9z" />
<glyph unicode="J" horiz-adv-x="1206" d="M15.5 100.5q-5.5 12.5 9.5 42.5l88 213q10 27 21 27t32 -8q68 -27 138.5 -41.5t137.5 -14.5q82 0 132.5 21.5t79 61.5t42 96.5t23.5 128.5l106 768q4 29 16.5 34t35.5 5h284q25 0 34 -5.5t5 -33.5l-121 -860q-16 -113 -50 -214.5t-100.5 -177t-174 -121t-267.5 -45.5 q-43 0 -95 4.5t-110.5 15.5t-121 30.5t-123.5 52.5q-16 8 -21.5 20.5z" />
<glyph unicode="K" horiz-adv-x="1421" d="M102 41l191 1352q6 41 51 41h281q33 0 39 -8.5t2 -32.5l-66 -463l6 -4l205 227l211 233q29 29 50.5 38.5t74.5 9.5h321q20 0 24.5 -13.5t-11.5 -29.5l-467 -484l329 -852q10 -25 4 -40t-30 -15h-285q-47 0 -68.5 5t-35.5 48l-201 555l-201 -200l-51 -367q-4 -25 -11 -33 t-40 -8h-281q-42 0 -42 32q0 4 1 9z" />
<glyph unicode="L" horiz-adv-x="1177" d="M150 252q-3 28 -3 56q0 41 7 81l139 1004q6 43 51 43h285q33 0 39 -9.5t2 -33.5l-133 -953q-6 -39 0 -61.5t20 -33.5t35.5 -14t46.5 -3h471q25 0 33 -7.5t4 -41.5l-33 -232q-8 -47 -49 -47h-580q-119 0 -188.5 35t-104 91t-42.5 126z" />
<glyph unicode="M" horiz-adv-x="1804" d="M102 39l174 1233q12 96 50.5 129t115.5 33h140q63 0 88.5 -24t42.5 -77l116 -366l97 -342h8l217 370l197 332q33 53 69.5 80t110.5 27h135q33 0 57.5 -5.5t41 -20.5t22.5 -45q3 -15 3 -34t-3 -43l-176 -1247q-4 -29 -14.5 -34t-34.5 -5h-263q-23 0 -34 5t-7 34l101 711 h-10l-99 -185l-176 -307q-29 -51 -55.5 -70.5t-69.5 -19.5h-133q-49 0 -65.5 19.5t-32.5 70.5l-76 246l-64 221h-12l-96 -686q-4 -29 -14.5 -34t-32.5 -5h-277q-23 0 -34 5t-7 34z" />
<glyph unicode="N" horiz-adv-x="1544" d="M102 43l174 1229q12 96 48 129t120 33h103q35 0 57.5 -2t40 -11.5t29.5 -28t28 -51.5l211 -446l127 -279h15l108 775q4 25 12.5 34t41.5 9h282q40 0 40 -33q0 -4 -1 -10l-172 -1229q-10 -70 -45 -116t-123 -46h-102q-35 0 -58.5 3t-41 12.5t-31 27.5t-27.5 49l-201 422 l-135 303h-14l-111 -774q-4 -25 -11 -34t-40 -9h-283q-42 0 -42 34q0 4 1 9z" />
<glyph unicode="O" horiz-adv-x="1476" d="M150 559q0 201 50 367t144 283.5t228 182t302 64.5q141 0 245 -42t171.5 -117.5t101 -183t33.5 -239.5q0 -199 -46 -363.5t-138 -283t-229.5 -184.5t-317.5 -66q-143 0 -245.5 39t-169 114t-98 183.5t-31.5 245.5zM545 575q0 -119 44 -185t150 -66q76 0 130.5 46 t90 121.5t52 169t16.5 189.5q0 57 -9 105.5t-30.5 83t-57.5 54t-91 19.5q-74 0 -129.5 -47t-92 -124t-55 -172t-18.5 -194z" />
<glyph unicode="P" horiz-adv-x="1327" d="M102 41l179 1257q4 27 12 51.5t24.5 43t43 30t67.5 11.5h496q109 0 189.5 -31t133.5 -85t80 -130t27 -164q0 -29 -6.5 -80t-27 -110.5t-61 -121t-109.5 -111.5t-170 -82t-245 -32h-194l-64 -446q-4 -25 -11 -33t-40 -8h-283q-42 0 -42 32q0 4 1 9zM584 791h204 q78 0 126.5 54t48.5 132q0 20 -5.5 41.5t-18.5 40t-36.5 30t-60.5 11.5h-215z" />
<glyph unicode="Q" horiz-adv-x="1476" d="M150 559q0 201 50 367t144 283.5t228 182t302 64.5q141 0 245 -42t171.5 -117.5t101 -183t33.5 -239.5q0 -199 -46 -363.5t-138 -283t-229.5 -184.5t-317.5 -66q-143 0 -245.5 39t-169 114t-98 183.5t-31.5 245.5zM532 -328l29 199q4 23 10.5 31t28.5 8h211 q186 0 315 -43t199 -100q16 -12 17 -23.5t-11 -30.5l-98 -172q-14 -23 -26.5 -24.5t-37.5 12.5q-72 39 -176 71.5t-266 32.5h-166q-23 0 -28 9.5t-1 29.5zM545 575q0 -119 44 -185t150 -66q76 0 130.5 46t90 121.5t52 169t16.5 189.5q0 57 -9 105.5t-30.5 83t-57.5 54 t-91 19.5q-74 0 -129.5 -47t-92 -124t-55 -172t-18.5 -194z" />
<glyph unicode="R" horiz-adv-x="1380" d="M102 41l179 1257q8 63 35.5 99.5t111.5 36.5h500q217 0 319.5 -95.5t102.5 -269.5q0 -141 -69 -247.5t-204 -164.5l-2 -4q90 -25 124 -78t42 -133l47 -389q4 -29 1 -41t-27 -12h-265h-33.5t-31.5 5t-24.5 15.5t-12.5 30.5l-33 342q-8 88 -46 128t-136 40h-129l-74 -520 q-4 -25 -11 -33t-40 -8h-283q-42 0 -42 32q0 4 1 9zM594 864h227q49 0 93 34t44 106q0 39 -23.5 67.5t-80.5 28.5h-227z" />
<glyph unicode="S" horiz-adv-x="1224" d="M46.5 153.5q-1.5 14.5 14.5 45.5l91 194q18 35 33.5 39t43.5 -8q27 -12 69 -28.5t92 -32t105.5 -25.5t110.5 -10q57 0 89 13t47.5 30.5t19.5 36t4 28.5q0 27 -25.5 51.5t-113.5 65.5q-92 45 -169 92t-132.5 102.5t-87 121t-31.5 145.5q0 96 33.5 178t101.5 140.5t169 91 t234 32.5q59 0 121 -6t118 -17.5t107.5 -29t90.5 -41.5q31 -16 36 -32q1 -4 1 -10q0 -18 -13 -54l-55 -170q-14 -41 -32.5 -46.5t-53.5 5.5q-82 25 -167 42t-163 17q-74 0 -99.5 -24.5t-25.5 -55.5q0 -12 5.5 -23.5t19.5 -25.5t39.5 -28.5t66.5 -32.5q104 -43 187.5 -90.5 t140.5 -104.5t88 -127t31 -158q0 -119 -43 -205.5t-121 -145t-188.5 -87.5t-245.5 -29q-68 0 -139.5 8.5t-141 27t-132 46t-111.5 66.5q-18 14 -19.5 28.5z" />
<glyph unicode="T" horiz-adv-x="1169" d="M131 1155l33 229q4 35 14 42.5t33 7.5h1046q25 0 33 -7.5t4 -42.5l-32 -229q-8 -47 -50 -47h-340l-151 -1065q-4 -25 -11.5 -34t-39.5 -9h-283q-42 0 -42 34q0 4 1 9l152 1065h-332q-36 0 -36 33q0 7 1 14z" />
<glyph unicode="U" horiz-adv-x="1474" d="M176 284q-11 56 -10 125q0 75 12 166l115 816q6 43 51 43h283q33 0 39 -9.5t2 -33.5l-121 -852q-4 -30 -4 -55q0 -80 37 -120q49 -54 184 -53h33.5t51.5 2t54.5 3t42.5 6l150 1069q4 23 14 33t37 10h280q33 0 39.5 -9.5t1.5 -33.5l-170 -1192q-10 -66 -43.5 -118 t-113.5 -75q-41 -12 -97.5 -18t-110.5 -9.5t-100.5 -4.5t-68.5 -1q-176 0 -299 28t-195 97.5t-94 185.5z" />
<glyph unicode="V" horiz-adv-x="1355" d="M168 1397q-2 16 5 27.5t26 11.5h293q35 0 44 -11.5t13 -33.5l76 -549l47 -406h16l154 402l231 563q10 23 25.5 29t40.5 6h315q25 0 25 -14.5t-4 -24.5l-588 -1270q-20 -47 -41 -72.5t-43.5 -38t-50 -14.5t-60.5 -2h-143q-35 0 -59.5 4t-43 18.5t-31 40t-20.5 66.5z" />
<glyph unicode="W" horiz-adv-x="1898" d="M170 1389q-4 39 8 45t39 6h291q39 0 56.5 -7.5t19.5 -52.5l6 -417l10 -394h14l142 404l118 336q16 43 31 67.5t32 37.5t40.5 17.5t56.5 4.5h137q33 0 52.5 -5.5t30 -18.5t15.5 -34.5t9 -54.5l29 -383l26 -356h15l102 354l127 434q12 45 25.5 54.5t46.5 9.5l340 2 q23 0 33 -7.5t-5 -46.5l-473 -1263q-18 -47 -34.5 -74t-36 -39t-43 -14t-56.5 -2h-117q-35 0 -60.5 1t-43.5 12t-30.5 37t-18.5 73l-33 374l-35 414h-12l-156 -411l-143 -377q-18 -45 -35.5 -70t-38 -37t-46 -14t-60.5 -2h-129q-33 0 -56.5 1t-40 11t-25.5 36t-15 73z" />
<glyph unicode="X" horiz-adv-x="1296" d="M-35.5 16.5q-5.5 16.5 6.5 32.5l518 703l-284 634q-10 16 -3 33t36 17h272q49 0 66.5 -10.5t31.5 -45.5l123 -327l213 327q20 33 42 44.5t71 11.5h307q27 0 30 -16.5t-12 -33.5l-464 -634l323 -703q4 -16 -3 -32.5t-26 -16.5h-299q-43 0 -62.5 12.5t-35.5 48.5l-139 373 l-244 -373q-29 -37 -49.5 -49t-63.5 -12h-333q-16 0 -21.5 16.5z" />
<glyph unicode="Y" horiz-adv-x="1310" d="M160 1386q-6 14 2 31t39 17h299q41 0 50 -12.5t15 -41.5l72 -250l65 -274h13l145 279l146 254q12 23 26.5 34t42.5 11h334q39 0 37 -15.5t-10 -29.5l-570 -889l-63 -453q-4 -25 -12.5 -36t-40.5 -11h-283q-40 0 -40 37q0 4 1 10l61 447z" />
<glyph unicode="Z" horiz-adv-x="1267" d="M25 117l8 63q8 55 35.5 98.5t68.5 86.5l666 722l4 21h-520q-36 0 -36 33q0 6 1 14l33 229q4 35 14 42.5t33 7.5h905q67 0 91 -25q16 -17 17 -55q0 -18 -4 -41l-12 -88q-8 -49 -42 -97.5t-64 -83.5l-645 -700l2 -16h579q25 0 33 -7.5t4 -41.5l-33 -232q-8 -47 -49 -47 h-985q-61 0 -88 26q-19 18 -19 56q0 16 3 35z" />
<glyph unicode="[" horiz-adv-x="802" d="M96 -137l219 1564q6 47 56 48h469q16 0 20 -7.5t2 -23.5l-31 -209q-2 -16 -7 -22.5t-29 -6.5h-174l-158 -1122h180q29 0 23 -29l-29 -207q-4 -23 -8 -27.5t-21 -4.5h-471q-47 0 -41 47z" />
<glyph unicode="\" horiz-adv-x="944" d="M182 1548q-12 45 41 45h193q35 0 44 -10t13 -29l381 -1708q4 -18 -5 -30.5t-34 -12.5h-188q-35 0 -50.5 8.5t-19.5 30.5z" />
<glyph unicode="]" horiz-adv-x="825" d="M82 -150l29 205q6 29 32 29h179l157 1122h-180q-27 0 -23 29l29 205q4 23 12.5 29t24.5 6h465q27 0 34 -12.5t3 -35.5l-219 -1564q-4 -23 -14.5 -35t-37.5 -12h-471q-16 0 -20 6t0 28z" />
<glyph unicode="^" horiz-adv-x="1236" d="M148.5 787.5q-3.5 13.5 9.5 29.5l440 608q16 23 45 46.5t76 23.5h102q59 0 75.5 -20.5t27.5 -49.5l270 -604q8 -18 -1 -31.5t-26 -13.5h-223q-20 0 -35.5 6t-19.5 25l-154 385h-8l-258 -377q-16 -25 -31.5 -33t-40.5 -8h-227q-18 0 -21.5 13.5z" />
<glyph unicode="_" horiz-adv-x="993" d="M-125 -281l12 84q4 35 10.5 42.5t30.5 7.5h992q25 0 29.5 -7.5t0.5 -42.5l-12 -84q-4 -27 -12 -37t-31 -10h-991q-23 0 -28 10.5t-1 36.5z" />
<glyph unicode="`" horiz-adv-x="1105" d="M313.5 1556.5q-0.5 12.5 14.5 20.5l225 131q23 10 31 7t16 -19l231 -387q12 -18 6 -28.5t-20 -20.5l-117 -74q-12 -10 -22 -10t-25 14l-329 346q-10 8 -10.5 20.5z" />
<glyph unicode="a" horiz-adv-x="1241" d="M104 391q0 332 143.5 519.5t432.5 187.5q78 0 202 -9.5t269 -50.5q35 -10 40 -26.5t1 -38.5q-37 -227 -65.5 -443.5t-53.5 -439.5q-4 -16 -9 -24.5t-22 -14.5q-68 -25 -140.5 -40t-138 -23t-122.5 -10.5t-94 -2.5q-133 0 -219 31t-135.5 86t-69 132t-19.5 167zM481 457 q0 -92 36 -131t106 -39q18 0 55 4t65 14q12 100 19.5 152.5t12.5 93.5t12.5 90t23.5 141q-27 8 -55.5 11.5t-44.5 3.5q-96 0 -163 -81t-67 -259z" />
<glyph unicode="b" horiz-adv-x="1257" d="M96 98q-4 19 0 43l185 1309q4 27 15 36t40 9h262q29 0 39 -8t6 -37l-55 -391q59 23 117.5 36t123.5 13q106 0 178 -32t115 -88t61.5 -133t18.5 -167q0 -133 -33.5 -261t-108.5 -227.5t-197 -161t-296 -61.5q-117 0 -233.5 19.5t-204.5 66.5q-29 16 -33 35zM483 307 q25 -8 57.5 -11t49.5 -3q104 0 169.5 88t65.5 252q0 158 -129 158q-18 0 -59 -9.5t-88 -31.5z" />
<glyph unicode="c" horiz-adv-x="1060" d="M109 434q0 178 40.5 305t114.5 208t177.5 120t228.5 39q84 0 171 -17.5t152 -46.5q23 -10 28 -22t-5 -43l-66 -207q-10 -31 -28.5 -29t-49.5 9q-57 10 -103 17t-77 7q-109 0 -157 -79t-48 -214q0 -80 31 -124t121 -44q61 0 119.5 12.5t107.5 26.5q23 6 36 6t18 -28 l65 -203q4 -23 4 -36t-33 -30q-49 -25 -103 -41t-107.5 -25t-103.5 -13.5t-91 -4.5q-442 0 -442 457z" />
<glyph unicode="d" horiz-adv-x="1257" d="M106 422q0 160 37 288t109 216t175 135t239 47q66 0 106.5 -5t93.5 -16l54 363q4 27 15 36t42 9h260q27 0 37 -8t6 -37l-180 -1309q-4 -25 -12.5 -43t-40.5 -35q-100 -47 -223.5 -66.5t-237.5 -19.5q-137 0 -229.5 34t-147.5 93.5t-79 140.5t-24 177zM483 461 q0 -86 43 -127t121 -41q16 0 49 3t62 11l65 467q-35 10 -70 13.5t-53 3.5q-35 0 -72.5 -15.5t-69.5 -52.5t-53.5 -100.5t-21.5 -161.5z" />
<glyph unicode="e" horiz-adv-x="1177" d="M102 397q0 346 157 527.5t439 181.5q86 0 166 -15.5t140.5 -52.5t96.5 -98t36 -154q0 -182 -127 -275t-367 -93q-37 0 -77 2t-81 6q0 -8 -1 -14t-1 -15q0 -37 12.5 -59.5t34 -32.5t52 -13t69.5 -3q51 0 101.5 11t113.5 32q29 10 38 6t16 -21l77 -192q6 -20 -2 -30.5 t-24 -20.5q-41 -25 -96.5 -43.5t-116 -30.5t-116.5 -17.5t-99 -5.5q-123 0 -207 28t-136.5 81t-75 131t-22.5 180zM518 645q12 -2 23.5 -2h25.5q119 0 160 25.5t41 74.5q0 27 -18.5 48.5t-69.5 21.5q-63 0 -105.5 -40t-56.5 -128z" />
<glyph unicode="f" horiz-adv-x="892" d="M93 814q-1 9 1 26l25 166q2 18 9 28t32 17l143 32l14 103q10 70 35 131t70 107t110.5 72t157.5 26q14 0 47 -1t74 -6.5t84 -12.5t78 -19q27 -8 27.5 -18.5t-3.5 -26.5l-53 -219q-8 -23 -17 -25t-30 2q-27 4 -66.5 9t-62.5 5q-59 0 -76.5 -23.5t-21.5 -51.5l-11 -60h234 q16 0 23.5 -5t3.5 -26l-29 -208q-4 -16 -9 -23.5t-34 -7.5h-225l-152 -1081q-4 -37 -18.5 -50.5t-34.5 -19.5l-271 -84q-18 -6 -35.5 2t-13.5 37l166 1196h-147q-23 0 -24 9z" />
<glyph unicode="g" horiz-adv-x="1257" d="M109 442q0 147 36.5 269.5t113.5 208.5t192.5 133t273.5 47q57 0 117.5 -5t119 -15.5t111.5 -27t96 -38.5q29 -16 36 -34.5t3 -43.5l-135 -942q-33 -221 -164 -337t-368 -116q-49 0 -101.5 5t-103.5 14.5t-100.5 23t-88.5 27.5q-31 14 -30.5 29.5t4.5 27.5l61 185 q8 23 20.5 29.5t43.5 -1.5q53 -14 115.5 -26.5t117.5 -12.5q63 0 105.5 10.5t69 34t42 62.5t23.5 98q-43 -12 -96.5 -19.5t-118.5 -7.5q-106 0 -181 30t-123 85t-69.5 133t-21.5 174zM481 487q0 -90 42 -119.5t114 -29.5q18 0 58 4t69 14l57 414q-25 8 -57.5 11t-48.5 3 q-43 0 -85 -13t-75 -46t-53.5 -91.5t-20.5 -146.5z" />
<glyph unicode="h" horiz-adv-x="1271" d="M82 39l199 1415q4 23 14 32t35 9h266q35 0 41 -8t2 -33l-51 -373q25 6 56.5 11.5t65 8.5t63.5 5t50 2q211 0 301 -110q69 -84 69 -224q0 -44 -7 -94l-90 -641q-4 -25 -11.5 -32t-42.5 -7h-266q-44 0 -44 31q0 4 1 8l82 575q4 33 7 65t-5 57.5t-33.5 41t-76.5 15.5 q-12 0 -33 -1t-44.5 -4.5t-47 -6.5t-39.5 -9l-103 -733q-4 -25 -11 -32t-42 -7h-264q-42 0 -42 31q0 4 1 8z" />
<glyph unicode="i" horiz-adv-x="684" d="M119 41l139 993q4 23 14.5 32t36.5 9h264q33 0 39 -8t2 -33l-139 -993q-4 -25 -11 -33t-40 -8h-264q-42 0 -42 32q0 4 1 9zM295 1327q0 47 18.5 88t49 72t70.5 48t83 17q72 0 120 -47t48 -121q0 -49 -19.5 -90t-51 -70.5t-71.5 -46t-81 -16.5q-72 0 -119 46t-47 120z" />
<glyph unicode="j" horiz-adv-x="686" d="M-170 -179q8 11 37 23q68 29 116 59.5t79.5 69.5t49 89.5t27.5 117.5l119 854q4 23 14.5 32t36.5 9h269q33 0 38 -8t0 -33l-122 -882q-20 -147 -62.5 -248t-105 -169.5t-148.5 -111.5t-196 -74q-41 -10 -53.5 -9t-22.5 28l-72 207q-12 35 -4 46zM299 1327q0 47 18.5 88 t49 72t70.5 48t83 17q72 0 120 -47t48 -121q0 -49 -19.5 -90t-51 -70.5t-71.5 -46t-81 -16.5q-72 0 -119 46t-47 120z" />
<glyph unicode="k" horiz-adv-x="1167" d="M82 43l201 1415q4 23 14 32t35 9h268q35 0 40 -8t1 -33l-96 -682l6 -4l242 264q25 23 41 32t51 9h305q41 0 42 -16.5t-22 -38.5l-315 -315l219 -656q3 -10 3 -17q0 -34 -50 -34h-270q-29 0 -44.5 9t-21.5 40l-115 383l-139 -143q-4 -35 -8 -59.5t-7 -50t-8 -57.5t-14 -79 q-4 -25 -11 -34t-42 -9h-264q-42 0 -42 34q0 4 1 9z" />
<glyph unicode="l" horiz-adv-x="720" d="M126 160q-3 25 -3 55q0 54 10 123l164 1116q4 33 18.5 37t36.5 4h254q25 0 36 -7t7 -32l-149 -1071q-2 -20 -2 -35q0 -22 5 -36q9 -22 60 -23q14 0 34.5 1t37.5 3q23 2 28 -2t7 -25l24 -215q2 -20 -7 -28.5t-36 -16.5q-57 -16 -124.5 -23.5t-129.5 -7.5q-80 0 -137 15.5 t-91 56.5t-43 111z" />
<glyph unicode="m" horiz-adv-x="1902" d="M82 41l125 879q8 63 33.5 104t97.5 57q20 4 60 9.5t85 8.5t90 5t80 2q123 0 217.5 -21.5t159.5 -68.5q33 20 75 37.5t88 30t92 18.5t87 6q135 0 225.5 -38t141.5 -105.5t67 -160.5q8 -47 7 -100q0 -51 -7 -106l-80 -557q-4 -25 -11 -33t-40 -8h-264q-42 0 -42 32q0 4 1 9 l74 516q7 49 7 90v10q-1 45 -17.5 76t-49 47.5t-90.5 16.5q-10 0 -27.5 -1t-37 -4.5t-37.5 -7.5t-31 -8q4 -33 4 -70q0 -60 -10 -131l-76 -534q-4 -25 -11 -33t-40 -8h-268q-44 0 -44 33q0 4 1 8l80 559q5 33 5 62q0 58 -20 94q-30 52 -137 53q-16 0 -44 -2t-54 -6 l-107 -760q-4 -25 -11 -33t-42 -8h-264q-42 0 -42 32q0 4 1 9z" />
<glyph unicode="n" horiz-adv-x="1271" d="M84 41l125 879q8 63 33.5 104t97.5 57q20 4 61 9.5t88.5 8.5t94.5 5t82 2q145 0 250.5 -27.5t169.5 -92.5q64 -64 84 -168q10 -51 9 -113q0 -64 -10 -140l-73 -524q-4 -25 -11.5 -33t-42.5 -8h-266q-44 0 -44 33q0 4 1 8l80 559q4 33 4 60q-1 60 -21 96q-30 52 -139 53 q-18 0 -50 -2t-58 -6l-107 -760q-4 -25 -11 -33t-42 -8h-264q-42 0 -42 32q0 4 1 9z" />
<glyph unicode="o" horiz-adv-x="1228" d="M104 408q0 166 42 294.5t121 219t191 137.5t253 47q236 0 348 -121t112 -340q0 -152 -39.5 -274.5t-116.5 -210.5t-190.5 -135.5t-259.5 -47.5q-244 0 -352.5 115t-108.5 316zM483 455q0 -86 31 -124t90 -38q84 0 136.5 91t52.5 245q0 162 -119 162q-84 0 -137.5 -84 t-53.5 -252z" />
<glyph unicode="p" horiz-adv-x="1257" d="M23 -385l184 1317q4 25 15 43t46 35q98 47 221 66.5t238 19.5q137 0 227 -34t143.5 -95.5t75 -144.5t21.5 -181q0 -135 -34 -254t-102.5 -209t-173 -142t-243.5 -52q-66 0 -106.5 5t-94.5 15l-57 -389q-4 -25 -11 -31t-42 -6h-267q-25 0 -35 7t-5 30zM483 317 q35 -10 70 -13t53 -3q92 0 153.5 80t61.5 233q0 96 -43 131t-121 35q-16 0 -49 -3t-61 -11z" />
<glyph unicode="q" horiz-adv-x="1257" d="M106 410q0 180 42 310t121 214t194 123t260 39q115 0 234.5 -20.5t205.5 -65.5q29 -16 35 -35t2 -43l-178 -1311q-4 -25 -11 -34t-40 -9h-269q-43 0 -43 37v6l56 385q-43 -12 -96 -19t-119 -7q-109 0 -183.5 31.5t-120.5 88t-68 135t-22 175.5zM485 467q0 -90 36 -130 t106 -40q18 0 59 4t70 14l65 457q-25 8 -57.5 11t-48.5 3q-96 0 -163 -75.5t-67 -243.5z" />
<glyph unicode="r" horiz-adv-x="874" d="M96 51l105 764q8 66 16 113t28.5 78.5t58.5 51t108 27.5q130 15 246 17q32 0 63 1q85 0 172 -3q39 -2 49 -12.5t4 -43.5l-41 -227q-4 -29 -19.5 -34t-45.5 -1q-49 8 -85 12.5t-69 7.5t-62.5 5t-66.5 4l-108 -760q-4 -33 -17.5 -42t-46.5 -9h-242q-27 0 -40 9t-7 42z" />
<glyph unicode="s" horiz-adv-x="1026" d="M46 112.5q1 12.5 11 37.5l76 169q12 29 24.5 32t35.5 -7q84 -35 157.5 -52.5t132.5 -17.5q57 0 73.5 19.5t16.5 42.5q0 18 -24.5 36.5t-99.5 53.5q-137 59 -212 141t-77 195q0 76 28.5 139.5t84 108.5t136 70.5t185.5 25.5q98 0 197.5 -21.5t164.5 -56.5q25 -14 27 -24.5 t-12 -45.5l-58 -145q-12 -29 -24 -34t-39 3q-66 18 -128.5 31.5t-127.5 13.5q-20 0 -32.5 -7t-18.5 -16t-8.5 -17.5t-2.5 -10.5q0 -25 24 -41t85 -43q70 -29 128 -61.5t99 -74.5t63.5 -95t22.5 -125q0 -90 -34.5 -157.5t-97 -113t-149.5 -67t-192 -21.5q-55 0 -112.5 6.5 t-112.5 20.5t-105.5 34.5t-89.5 51.5q-16 10 -15 22.5z" />
<glyph unicode="t" horiz-adv-x="903" d="M98 854l21 145q4 20 9 27.5t30 13.5l145 37l27 189q4 29 18 40t35 17l276 84q23 6 35.5 -3t7.5 -36l-40 -293h221q27 0 29.5 -8t-1.5 -29l-26 -184q-4 -23 -7.5 -33t-31.5 -10h-221l-60 -432q-2 -13 -3 -25q0 -30 18 -44q22 -18 77 -19q31 0 71 5t65 9q35 2 36 -29 l29 -217q-2 -14 -4 -23t-27 -18q-86 -27 -172 -34t-151 -7q-180 0 -256 80q-60 63 -60 163q0 28 5 59l73 532h-139q-25 0 -28 13.5t-1 29.5z" />
<glyph unicode="u" horiz-adv-x="1253" d="M144 260q-8 44 -7 97q0 70 13 157l71 520q4 25 12.5 33t40.5 8h269q42 0 42 -32q0 -4 -1 -9l-78 -555q-6 -53 -6 -92t14 -64.5t46 -39t85 -13.5q18 0 50 2t59 7l104 755q4 25 12.5 33t42.5 8h265q40 0 40 -32q0 -4 -1 -9l-123 -874q-8 -66 -34 -106t-97 -56 q-20 -4 -61.5 -9t-88.5 -8.5t-94 -5.5t-80 -2q-154 0 -257 28t-161.5 92.5t-76.5 166.5z" />
<glyph unicode="v" horiz-adv-x="1183" d="M119 1028q-6 29 3 38t34 9h264q41 0 54 -7t20 -40l45 -344l36 -340h13l135 348l135 330q14 33 26.5 43t57.5 10h291q39 0 20 -39l-440 -927q-18 -41 -36.5 -65t-39 -35t-44 -14t-52.5 -3h-197q-53 0 -81.5 22.5t-43.5 94.5z" />
<glyph unicode="w" horiz-adv-x="1640" d="M115 1028q-4 29 7 38t36 9h272q31 0 46.5 -3t17.5 -38l10 -262l6 -317h12l103 250l88 202q31 63 58.5 85t82.5 22h135q53 0 68.5 -28t27.5 -75l37 -227l29 -219h12l90 332l72 231q10 35 20.5 40t40.5 5l293 2q27 0 35 -9t-2 -38l-375 -919q-31 -72 -63.5 -94.5 t-85.5 -22.5h-121q-29 0 -49.5 3t-35.5 14t-25.5 34t-18.5 63l-41 236l-37 227h-10l-107 -225l-110 -238q-23 -41 -39 -63.5t-32.5 -33.5t-37 -14t-49.5 -3h-129q-53 0 -80.5 22.5t-38.5 94.5z" />
<glyph unicode="x" horiz-adv-x="1097" d="M-36 15.5q-5 15.5 11 35.5l402 516l-234 469q-6 12 -1 24.5t28 12.5h287q35 0 50 -9t25 -38l68 -205l121 205q16 29 35.5 38t52.5 9h319q23 0 26 -12t-7 -25l-369 -469l260 -516q10 -20 2 -35.5t-39 -15.5h-270q-37 0 -52 15.5t-26 43.5l-92 252l-164 -252 q-20 -29 -39.5 -44t-56.5 -15h-303q-29 0 -34 15.5z" />
<glyph unicode="y" horiz-adv-x="1200" d="M47 -401.5q-4 10.5 2 39.5l47 196q6 29 17.5 30t38.5 -3q31 -4 52 -6t42 -2q35 0 58.5 4t42 16t33.5 34.5t34 61.5l43 90h-62q-53 0 -68.5 20.5t-25.5 72.5l-182 874q-8 29 5 38t32 9h280q41 0 54.5 -7t17.5 -40l35 -344l37 -340h12l137 348l129 328q14 33 27.5 44 t54.5 11h317q43 0 21 -39l-580 -1218q-29 -61 -62.5 -110.5t-78.5 -83.5t-103.5 -52.5t-138.5 -18.5q-51 0 -111.5 7.5t-125.5 23.5q-27 6 -31 16.5z" />
<glyph unicode="z" horiz-adv-x="1056" d="M10 94l13 84q4 33 17 64.5t52 70.5l463 461l-8 10h-350q-27 0 -32 7.5t-1 33.5l29 207q4 27 15 35t32 8h735q47 0 73 -13q19 -10 19 -44q0 -11 -2 -23l-14 -100q-4 -35 -17.5 -65.5t-42.5 -59.5l-456 -457l6 -12h407q20 0 28.5 -7t4.5 -34l-29 -215q-4 -29 -12 -37 t-31 -8h-805q-48 0 -74 24q-21 19 -21 53q0 8 1 17z" />
<glyph unicode="{" horiz-adv-x="925" d="M176 588l21 137q2 14 10 27.5t26 19.5q31 8 53.5 17.5t37 22.5t23.5 31.5t15 49.5l39 192q18 94 40 170t72 126.5t142.5 73t251.5 11.5q41 -4 39 -30l-18 -181q-4 -29 -15.5 -37t-27.5 -10q-49 -4 -80 -19t-49.5 -41t-27.5 -62.5t-17 -86.5l-27 -149q-12 -72 -51 -124 t-129 -79l-2 -6q43 -14 69.5 -32.5t40 -47.5t15.5 -70.5t-6 -103.5l-21 -160q-4 -27 -2 -51t17.5 -44.5t47 -35t91.5 -20.5q29 -2 26 -27l-28 -196q-2 -37 -35 -35q-141 0 -233.5 33.5t-142.5 93t-65.5 140.5t-3.5 177l19 146q10 72 -11.5 98t-72.5 39q-37 8 -31 43z" />
<glyph unicode="|" horiz-adv-x="624" d="M242 -334v1925q0 47 47 47h182q35 0 42 -11t7 -36v-1925q0 -25 -7 -36t-42 -11h-182q-47 0 -47 47z" />
<glyph unicode="}" horiz-adv-x="925" d="M94 -145l21 188q4 29 15 37t28 10q49 4 79.5 19.5t49 41t28 62.5t17.5 86l26 176q12 72 51.5 124t129.5 79l2 6q-43 14 -70 32.5t-40 47.5t-15 71t6 103l20 133q2 27 1 51.5t-16 44t-48 35t-90 21.5q-29 2 -27 26l27 189q2 37 35 35q141 0 233 -34t142.5 -93.5 t65.5 -141.5t3 -176l-18 -119q-10 -72 11 -98.5t73 -38.5q37 -8 30 -43l-18 -137q-2 -14 -10.5 -27.5t-26.5 -19.5q-63 -18 -91 -40t-40 -81l-39 -219q-16 -80 -40 -154t-77 -127t-145 -81.5t-244 -18.5q-41 4 -39 31z" />
<glyph unicode="~" horiz-adv-x="1384" d="M181 573.5q5 10.5 16 24.5q76 104 162.5 150.5t183.5 46.5q55 0 104 -17.5t93 -39t86 -39t85 -17.5q47 0 83 20.5t79 61.5q27 29 45 12l144 -125q10 -10 9 -20.5t-11 -22.5q-82 -106 -176.5 -155.5t-186.5 -49.5q-53 0 -101 17.5t-93.5 38t-89.5 38t-87 17.5 q-49 0 -79.5 -15.5t-69.5 -54.5q-14 -14 -24.5 -19t-22.5 5l-142 123q-12 10 -7 20.5z" />
<glyph unicode="&#xa1;" horiz-adv-x="636" d="M39 -319l162 849q6 45 59 45h174q23 0 33 -9t6 -36l-72 -849q-4 -23 -13 -39.5t-50 -16.5h-252q-35 0 -44 13.5t-3 42.5zM186 854q0 47 19.5 89t52.5 73t75 48t87 17q78 0 127 -48t49 -122q0 -47 -19.5 -88t-52 -71.5t-74.5 -49t-88 -18.5q-76 0 -126 49t-50 121z" />
<glyph unicode="&#xa2;" horiz-adv-x="1384" d="M258 434q0 166 36 288t101.5 204t156.5 125t204 53l32 209q4 41 43 41h119q29 0 34 -9.5t1 -31.5l-33 -217q53 -8 101.5 -22.5t89.5 -31.5q23 -10 28 -22t-6 -43l-65 -207q-10 -31 -28.5 -29t-49.5 9q-57 10 -103 17t-77 7q-109 0 -157 -79t-48 -214q0 -80 30.5 -124 t120.5 -44q61 0 120 12.5t108 26.5q23 6 36 6t17 -28l66 -203q4 -23 4 -36t-33 -30q-72 -37 -154 -55t-153 -24l-33 -220q-4 -20 -9 -29t-34 -9h-119q-39 0 -35 38l33 222q-344 45 -344 450z" />
<glyph unicode="&#xa3;" horiz-adv-x="1384" d="M133 98l10 74q6 41 20.5 71.5t55.5 73.5q51 55 81 104.5t46 121.5h-117q-23 0 -31 6t-3 33l20 141q4 27 12.5 36t32.5 9h86q-4 47 -10 89t-6 87q0 119 40 205t111.5 142.5t172 84t220.5 27.5q115 0 223.5 -25.5t182.5 -66.5q27 -16 26 -29.5t-18 -56.5l-61 -158 q-16 -39 -31.5 -42t-50.5 9q-72 25 -126 33t-114 8q-53 0 -87 -22.5t-52 -63.5t-24.5 -97t-2.5 -124h256q23 0 29 -5t2 -40l-20 -141q-4 -27 -12.5 -33t-28.5 -6h-244q-10 -68 -29.5 -125.5t-66.5 -112.5h540q25 0 33 -4t2 -39l-31 -223q-4 -27 -13 -33t-32 -6h-884 q-43 0 -79 22.5t-28 75.5z" />
<glyph unicode="&#xa4;" horiz-adv-x="1110" d="M45 918.5q-6 21.5 29 50.5l14 14l20.5 20.5l31 31l46.5 46.5q43 47 86 4l103 -102q88 45 207 45q53 0 105 -11t99 -36q35 35 59.5 58.5t39.5 39.5q39 47 90 -4q29 -27 56.5 -50.5t53.5 -51.5q23 -25 26 -50.5t-15 -43.5l-109 -109q20 -45 31.5 -93t11.5 -102 q0 -109 -43 -202l107 -105q20 -20 16 -44.5t-27 -51.5l-108 -106q-47 -47 -90 -3l-105 105q-47 -23 -98 -36t-104 -13q-55 0 -103.5 13t-91.5 36q-29 -27 -55.5 -58.5t-55.5 -54.5q-18 -16 -43.5 -13t-44.5 21l-108 113q-33 29 -30 49.5t26 40.5q27 29 50 51.5t52 49.5 q-29 49 -39 99t-10 107q0 59 9 109.5t36 95.5l-96 96q-23 23 -29 44.5zM387 565q0 -39 14.5 -73.5t40 -60t59.5 -40t72 -14.5q39 0 74 14.5t60.5 40t41 60t15.5 73.5q0 37 -15.5 72t-41 60.5t-60.5 41t-74 15.5t-73.5 -15.5t-59 -41t-39 -59.5t-14.5 -73z" />
<glyph unicode="&#xa5;" horiz-adv-x="1384" d="M140 405.5q-3 8.5 1 28.5l17 111q4 18 7 27.5t25 9.5h1072q23 0 24.5 -9.5t-2.5 -27.5l-16 -111q-4 -20 -6 -28.5t-25 -8.5h-344l-51 -358q-4 -23 -11.5 -31t-42.5 -8h-276q-47 0 -41 39l51 358h-356q-23 0 -26 8.5zM180 686q-2 8 2 29l15 110q4 18 8 27.5t26 9.5h152 l-178 467q-6 14 2 30.5t39 16.5h299q41 0 50 -11t17 -38l68 -242l70 -264h10l143 269l139 245q12 20 25.5 30.5t42.5 10.5h324q18 0 26 -4t9 -10t-3 -14.5t-8 -16.5l-305 -469h150q23 0 23.5 -9t-3.5 -28l-14 -110q-4 -20 -7.5 -28.5t-25.5 -8.5h-1071q-23 0 -25 8z" />
<glyph unicode="&#xa6;" horiz-adv-x="624" d="M242 -334v858q0 47 47 47h182q35 0 42 -11t7 -36v-858q0 -25 -7 -36t-42 -11h-182q-47 0 -47 47zM242 721v864q0 47 47 47h182q35 0 42 -11t7 -36v-864q0 -25 -7 -36t-42 -11h-182q-47 0 -47 47z" />
<glyph unicode="&#xa7;" horiz-adv-x="1335" d="M161 -140.5q1 11.5 11 36.5l74 165q14 27 22 28t31 -9q47 -20 104.5 -33.5t114.5 -13.5q68 0 95.5 27.5t27.5 52.5q0 37 -40 81t-83 80q-61 53 -115.5 104.5t-96.5 104t-65.5 106.5t-23.5 111q0 39 11.5 84t37 88t66.5 82t100 68q-29 47 -36 83t-7 71q0 156 110.5 242.5 t321.5 86.5q31 0 73 -2t88 -8t95 -18.5t94 -34.5q25 -10 26 -23.5t-11 -48.5l-56 -147q-14 -29 -25 -35t-38 4q-59 20 -108.5 31.5t-94.5 11.5q-53 0 -86 -14.5t-33 -57.5q0 -23 14.5 -46t36 -46.5t47 -47.5t48.5 -46q66 -63 120 -119.5t93 -109t60.5 -102.5t21.5 -105 q0 -80 -53.5 -163t-153.5 -142q20 -45 31.5 -79t11.5 -79q-2 -59 -29.5 -116.5t-85 -104.5t-147.5 -76t-219 -29q-100 0 -191.5 18.5t-175.5 67.5q-14 10 -13 21.5zM555 750q0 -31 44 -93.5t130 -148.5q20 -20 42 -41t46 -43q23 25 27 45t4 37q0 45 -48 104.5t-110 120.5 l-106 103q-10 -14 -19.5 -38t-9.5 -46z" />
<glyph unicode="&#xa8;" horiz-adv-x="1110" d="M350 1333q0 41 16.5 78t44 64.5t63.5 43t73 15.5q63 0 105 -44t42 -110q0 -37 -17.5 -72.5t-45 -62t-62 -43t-71.5 -16.5q-61 0 -104.5 43t-43.5 104zM791 1333q0 41 16 78t44 64.5t63.5 43t74.5 15.5q61 0 102.5 -43t41.5 -109q0 -39 -16.5 -73.5t-44.5 -62t-62.5 -44 t-69.5 -16.5q-66 0 -107.5 43t-41.5 104z" />
<glyph unicode="&#xa9;" horiz-adv-x="1726" d="M174 717q0 158 57.5 293t157.5 234t237.5 155.5t297.5 56.5t297 -56.5t237.5 -155.5t157.5 -234t57 -293t-57 -293t-157.5 -234.5t-238 -156t-296.5 -56.5q-160 0 -297.5 56.5t-237.5 156t-157.5 234.5t-57.5 293zM348 717q0 -125 44 -230.5t121 -181.5t182.5 -118 t228.5 -42t228 42t182 118t121 181.5t44 230.5t-44 230.5t-121 181t-182 117.5t-228 42t-228.5 -42t-182.5 -117.5t-121 -181t-44 -230.5zM551 711q0 94 26.5 173t74.5 135t116 87t152 31q121 0 194.5 -43t120.5 -115q6 -10 6 -16q0 -8 -14 -19l-121 -86q-10 -6 -16 -6 q-12 0 -19 10q-33 47 -68.5 65.5t-82.5 18.5q-76 0 -116 -61.5t-40 -173.5q0 -111 41 -173.5t117 -62.5q47 0 86 18.5t71 65.5q6 12 19 12q8 0 16 -8l121 -86q14 -10 14 -20q0 -7 -6 -15q-47 -72 -120.5 -114.5t-194.5 -42.5q-88 0 -158 32.5t-119 89t-74.5 134t-25.5 170.5 z" />
<glyph unicode="&#xaa;" horiz-adv-x="856" d="M121 815q0 236 108.5 346.5t331.5 110.5q45 0 120 -5t161 -28q33 -10 37 -24.5t2 -32.5l-80 -566q-4 -16 -9.5 -23t-23.5 -15q-39 -16 -84 -25.5t-90 -16t-84 -8.5t-64 -2q-92 0 -154.5 20.5t-100 58.5t-54 91.5t-16.5 118.5zM408 852q0 -51 22.5 -72.5t63.5 -21.5 q10 0 27.5 2t35.5 6q8 66 18.5 139.5t20.5 136.5q-16 4 -31.5 5.5t-21.5 1.5q-59 0 -97 -46.5t-38 -150.5z" />
<glyph unicode="&#xab;" horiz-adv-x="1269" d="M133 537q6 41 45 92l211 297q23 31 42.5 42t66.5 11h233q18 0 23.5 -13.5t-11.5 -35.5l-282 -393l190 -433q10 -25 -1 -37t-34 -12h-231q-47 0 -62.5 11.5t-25.5 33.5l-143 346q-10 27 -17.5 49t-3.5 42zM616 537q6 41 46 92l210 297q23 31 42.5 42t66.5 11h233 q18 0 22.5 -13.5t-9.5 -35.5l-283 -393l189 -433q10 -25 -0.5 -37t-32.5 -12h-234q-45 0 -60 11.5t-26 33.5l-143 346q-10 27 -17.5 49t-3.5 42z" />
<glyph unicode="&#xac;" horiz-adv-x="1384" d="M209 608l27 189q4 35 17 42t38 7h936q20 0 31.5 -7.5t7.5 -41.5l-80 -574q-4 -25 -12.5 -36t-40.5 -11h-195q-45 0 -39 47l47 338h-696q-47 0 -41 47z" />
<glyph unicode="&#xad;" horiz-adv-x="880" d="M147 516l29 203q4 35 14.5 42t32.5 7h537q25 0 31 -7t2 -42l-29 -203q-6 -47 -47 -47h-537q-39 0 -33 47z" />
<glyph unicode="&#xae;" horiz-adv-x="1234" d="M174 981q0 106 40 196.5t109.5 156t164 102.5t200.5 37q109 0 200 -37t156.5 -103.5t102.5 -157t37 -194.5t-40 -193.5t-107.5 -154t-160 -101t-196.5 -36.5q-109 0 -201 36.5t-159.5 101t-106.5 154t-39 193.5zM305 983q0 -80 28.5 -148.5t79 -118.5t119 -80t148.5 -30 t148.5 26.5t117.5 76t78 119t29 155.5q0 80 -29 148.5t-78 120t-117.5 80t-148.5 28.5t-147.5 -30t-119 -80t-80 -118.5t-28.5 -148.5zM477 750v452q0 51 58 51h180q90 0 134 -41t44 -112q0 -41 -19.5 -77t-62.5 -52v-2q35 -10 48 -28.5t22 -47.5l34 -141q2 -10 2.5 -15.5 t-10.5 -5.5h-110q-12 0 -20.5 2t-12.5 19l-29 120q-10 33 -23.5 48.5t-45.5 15.5h-48v-186q0 -10 -3 -14.5t-15 -4.5h-104q-18 0 -19 19zM618 1044h84q18 0 32 11.5t14 31.5q0 18 -10.5 32t-35.5 14h-84v-89z" />
<glyph unicode="&#xaf;" horiz-adv-x="880" d="M236 1249l22 152q4 35 16.5 42t36.5 7h578q23 0 33 -7t6 -42l-23 -152q-6 -47 -51 -47h-578q-47 0 -40 47z" />
<glyph unicode="&#xb0;" horiz-adv-x="1079" d="M227 1069q0 78 30 145.5t81 116.5t120.5 78t149.5 29t149.5 -29t121 -78t81 -116.5t29.5 -145.5q0 -80 -29.5 -148.5t-81 -118.5t-121 -78t-149.5 -28t-149.5 28t-120.5 77t-81 117.5t-30 150.5zM446 1069q0 -78 46.5 -124t117.5 -46q72 0 117 45t45 125q0 72 -45 117 t-117 45t-118 -45t-46 -117z" />
<glyph unicode="&#xb1;" horiz-adv-x="1384" d="M135 45l27 193q4 35 16 42t37 7h928q23 0 33 -7.5t6 -41.5l-27 -193q-8 -47 -53 -47h-928q-47 0 -39 47zM233 774l27 189q4 35 16.5 42t36.5 7h308l47 340q6 47 51 47h229q33 0 39 -11.5t2 -35.5l-47 -340h307q25 0 35 -7.5t6 -41.5l-26 -189q-8 -47 -56 -47h-307 l-47 -338q-4 -25 -12 -36t-41 -11h-230q-45 0 -39 47l48 338h-308q-47 0 -39 47z" />
<glyph unicode="&#xb2;" horiz-adv-x="927" d="M135 829q0 57 38 112.5t94.5 107t124 94.5t128.5 78q33 18 52.5 32.5t30.5 25.5t14.5 21.5t5.5 20.5q0 6 -5 18.5t-38 12.5q-53 0 -115 -18.5t-119 -47.5q-18 -10 -28.5 -7t-18.5 19l-61 117q-8 18 -7.5 29.5t23.5 25.5q78 55 175 82t179 27q63 0 119.5 -11.5t97.5 -38 t64.5 -67.5t23.5 -98q0 -96 -60 -157.5t-144 -112.5q-53 -35 -111.5 -70t-112.5 -80h332q29 0 34 -6t1 -31l-18 -135q-4 -29 -11.5 -35t-29.5 -6h-547q-45 0 -78 19.5t-33 78.5z" />
<glyph unicode="&#xb3;" horiz-adv-x="927" d="M141 828.5q0 9.5 17 37.5l69 129q12 16 21.5 14.5t32.5 -12.5q96 -51 192 -51q63 0 89 27.5t26 56.5q0 25 -19.5 38t-54.5 13h-37q-41 0 -48 13.5t-3 38.5l8 69q6 51 53 51h48q35 0 54 15.5t19 40.5t-18.5 33t-44.5 8q-35 0 -82 -12.5t-94 -37.5q-23 -10 -40.5 -15 t-29.5 18l-63 112q-10 23 -4 34t28 28q37 27 81 45t91 30.5t91 17.5t81 5q45 0 96.5 -9.5t94.5 -32t70.5 -60t27.5 -95.5q0 -23 -7 -49t-23.5 -54t-45.5 -53.5t-72 -43.5l-2 -7q37 -14 60.5 -34.5t37 -45t17.5 -50t4 -46.5q0 -66 -30.5 -117t-84 -85.5t-126 -52 t-154.5 -17.5q-80 0 -163 20.5t-138 59.5q-25 16 -25 25.5z" />
<glyph unicode="&#xb4;" horiz-adv-x="1105" d="M413 1222.5q-5 8.5 7 30.5l194 383q8 16 17.5 22.5t32.5 2.5l239 -62q16 -4 19.5 -16t-7.5 -22l-299 -381q-10 -18 -20 -20.5t-27 1.5l-137 49q-14 4 -19 12.5z" />
<glyph unicode="&#xb5;" horiz-adv-x="1253" d="M23 -381l198 1415q6 41 51 41h267q35 0 41 -8t2 -33l-86 -616q-6 -45 -1 -74t24.5 -45t54 -22.5t88.5 -6.5q16 0 40.5 2t51.5 7l104 755q4 25 12.5 33t42.5 8h265q45 0 39 -41l-119 -858q-8 -49 -18.5 -81t-29 -52t-48 -31.5t-74.5 -19.5q-23 -4 -57.5 -8t-71.5 -6.5 t-70 -3.5t-53 -1q-66 0 -134.5 4.5t-117.5 14.5l-53 -371q-4 -23 -13.5 -33t-38.5 -10h-253q-49 0 -43 41z" />
<glyph unicode="&#xb6;" horiz-adv-x="1255" d="M201 987q0 100 31.5 184t90 143.5t141.5 92.5t183 33h166q20 0 25.5 -9.5t3.5 -29.5l-103 -723q-4 -23 -11 -31t-28 -8h-165q-90 0 -153 25.5t-103.5 71.5t-59 110.5t-18.5 140.5zM461 -92q0 39 39 41q74 8 122 25.5t78.5 44t46 64.5t21.5 85l174 1237q4 18 15.5 26.5 t27.5 8.5h227q45 0 39 -35l-182 -1290q-16 -121 -63.5 -203t-121 -133t-170 -77t-212.5 -32q-18 0 -28.5 3t-12.5 32v203z" />
<glyph unicode="&#xb7;" horiz-adv-x="628" d="M145 563q0 45 19.5 87t52.5 73t75 49.5t87 18.5q78 0 127 -48.5t49 -119.5q0 -47 -18.5 -89t-51 -73t-74.5 -49.5t-89 -18.5q-76 0 -126.5 48t-50.5 122z" />
<glyph unicode="&#xb8;" horiz-adv-x="1056" d="M126 -508q1 8 9 31l33 100q8 23 15 26t24 -3q43 -14 81 -22.5t81 -8.5q47 0 79.5 15.5t38.5 56.5q4 35 -27.5 49t-86.5 14q-41 0 -50.5 1t-19.5 11q-14 14 -9 33t17 39l135 248q4 4 10.5 11t18.5 7h111q16 0 15 -8t-5 -12l-100 -189q84 -4 136 -24.5t81.5 -50t40 -66.5 t10.5 -74q0 -47 -20.5 -93t-62.5 -82t-106.5 -57.5t-154.5 -21.5q-37 0 -77 5.5t-77 12.5t-69.5 17.5t-55.5 20.5q-16 6 -15 14z" />
<glyph unicode="&#xb9;" horiz-adv-x="927" d="M199 768l18 139q4 25 12.5 31t30.5 6h109l53 383l-115 -22q-31 -6 -35 4t-2 26l21 133q2 16 8 28.5t31 19.5l252 61q35 8 62.5 10t46 -6t26.5 -29.5t2 -60.5l-76 -547h127q25 0 30 -7t1 -30l-19 -135q-4 -23 -11 -32t-32 -9h-510q-25 0 -29.5 7t-0.5 30z" />
<glyph unicode="&#xba;" horiz-adv-x="847" d="M123 827q0 217 108.5 333t305.5 116q166 0 250.5 -82t84.5 -225q0 -98 -26.5 -180t-79.5 -140.5t-131 -90.5t-178 -32q-176 0 -255 81t-79 220zM408 852q0 -49 18 -70.5t53 -21.5q47 0 77 51t30 141t-68 90q-47 0 -78.5 -46t-31.5 -144z" />
<glyph unicode="&#xbb;" horiz-adv-x="1269" d="M56 67.5q-7 12.5 12 36.5l309 433l-172 393q-10 23 0 36t28 13h234q47 0 62.5 -11.5t29.5 -41.5l129 -297q10 -27 15.5 -48t1.5 -44q-6 -39 -46 -91l-241 -346q-16 -23 -34.5 -34t-64.5 -11h-233q-23 0 -30 12.5zM538 67.5q-8 12.5 13 36.5l307 433l-170 393q-10 23 0 36 t27 13h235q47 0 62.5 -11.5t27.5 -41.5l131 -297q21 -49 15 -92q-4 -20 -13.5 -42t-29.5 -49l-242 -346q-16 -23 -35.5 -34t-64.5 -11h-232q-23 0 -31 12.5z" />
<glyph unicode="&#xbc;" horiz-adv-x="2048" d="M205 584l18 139q4 25 12.5 31t30.5 6h109l53 383l-115 -23q-31 -6 -35 4.5t-2 26.5l21 133q2 16 8 28.5t31 18.5l252 62q35 8 62.5 10t46 -6t26.5 -29.5t2 -60.5l-76 -547h127q25 0 30 -7.5t1 -29.5l-19 -135q-4 -23 -11 -32t-32 -9h-509q-25 0 -30 7t-1 30zM426 -67.5 q-2 14.5 8 30.5l1039 1473q10 16 19 22t34 6h145q25 0 30 -12t-9 -33l-1024 -1462q-14 -18 -34 -28.5t-54 -10.5h-127q-25 0 -27 14.5zM1030 227l6 56q10 57 49 96l385 395q29 29 63 51.5t101 22.5h86q47 0 63.5 -19.5t8.5 -68.5l-57 -404h73q23 0 28 -7t1 -23l-20 -150 q-2 -14 -7.5 -23.5t-27.5 -9.5h-76l-14 -104q-4 -27 -16.5 -33t-28.5 -6h-199q-16 0 -23.5 8t-3.5 31l15 102h-320q-16 0 -33.5 1t-31 9.5t-19.5 26t-2 49.5zM1321 356h143l25 172h-8l-160 -163v-9z" />
<glyph unicode="&#xbd;" horiz-adv-x="2048" d="M154 584l18 139q4 25 12.5 31t30.5 6h109l53 383l-115 -23q-31 -6 -35 4.5t-2 26.5l21 133q2 16 8 28.5t31 18.5l252 62q35 8 62.5 10t46 -6t26.5 -29.5t2 -60.5l-76 -547h127q25 0 30 -7.5t1 -29.5l-19 -135q-4 -23 -11 -32t-32 -9h-510q-25 0 -29.5 7t-0.5 30z M401 -67.5q-2 14.5 9 30.5l1038 1473q10 16 19.5 22t33.5 6h146q25 0 29.5 -12t-9.5 -33l-1024 -1462q-14 -18 -33.5 -28.5t-54.5 -10.5h-127q-25 0 -27 14.5zM1151 98q0 57 38 112.5t94 107t124 94.5t129 77q33 18 52.5 33t30.5 26t14 21.5t5 20.5q0 6 -5 18.5t-38 12.5 q-53 0 -114.5 -18.5t-118.5 -47.5q-18 -10 -28.5 -7t-18.5 19l-62 117q-8 18 -7 29.5t24 25.5q78 55 175 82t179 27q63 0 119.5 -11.5t97.5 -38t64.5 -67.5t23.5 -98q0 -96 -60.5 -157.5t-144.5 -113.5q-53 -35 -111.5 -69.5t-111.5 -79.5h332q29 0 34 -6t1 -31l-19 -135 q-4 -29 -11 -35t-30 -6h-546q-45 0 -78 19.5t-33 78.5z" />
<glyph unicode="&#xbe;" horiz-adv-x="2048" d="M133 643.5q0 9.5 17 38.5l69 129q12 16 21.5 14t31.5 -12q96 -51 193 -51q63 0 89 27.5t26 56.5q0 25 -19.5 38t-54.5 13h-37q-41 0 -48 13.5t-3 37.5l8 70q6 51 53 51h47q35 0 54.5 15.5t19.5 39.5q0 25 -18.5 33t-44.5 8q-35 0 -82 -12t-95 -37q-23 -10 -40 -15t-29 17 l-64 113q-10 23 -4 34t29 27q37 27 81 45.5t91 30.5t91 17.5t81 5.5q45 0 96 -9.5t94 -32t71 -60.5t28 -95q0 -23 -7.5 -49.5t-23.5 -54t-45 -53t-72 -44.5l-2 -6q37 -14 60.5 -34.5t37 -45t17.5 -50.5t4 -46q0 -66 -30.5 -117t-84 -86t-126 -52t-154.5 -17q-80 0 -163 20.5 t-138 58.5q-25 16 -25 25.5zM450.5 -67.5q-1.5 14.5 8.5 30.5l1038 1473q10 16 19.5 22t33.5 6h146q25 0 30 -12t-10 -33l-1024 -1462q-14 -18 -33.5 -28.5t-54.5 -10.5h-127q-25 0 -26.5 14.5zM1112 227l6 56q10 57 49 96l385 395q29 29 63 51.5t101 22.5h86 q47 0 63.5 -19.5t8.5 -68.5l-57 -404h73q23 0 28 -7t1 -23l-21 -150q-2 -14 -7 -23.5t-27 -9.5h-76l-14 -104q-4 -27 -16.5 -33t-28.5 -6h-199q-16 0 -23.5 8t-3.5 31l15 102h-320q-16 0 -33.5 1t-31 9.5t-19.5 26t-2 49.5zM1403 356h143l25 172h-8l-160 -163v-9z" />
<glyph unicode="&#xbf;" horiz-adv-x="1142" d="M41 -129q0 57 18.5 109.5t49 100.5t70.5 91t83 80q39 35 77 68.5t69.5 69.5t54 73t29.5 78l8 51q4 23 9 27t26 4h276q27 0 27 -10.5t-2 -26.5l-11 -76q-8 -61 -30.5 -109.5t-52 -88.5t-64.5 -71.5t-68 -60.5q-53 -45 -91 -87t-38 -101q0 -37 24.5 -56.5t65.5 -19.5 q37 0 70 5t66.5 15.5t71.5 29t85 42.5q23 12 33 12t21 -22l100 -201q6 -16 4 -27.5t-25 -25.5q-59 -41 -125.5 -69.5t-134 -47t-133.5 -27t-123 -8.5q-84 0 -163.5 14.5t-141 48.5t-98.5 86t-37 130zM516 860q0 47 18.5 88t50 71t73.5 46t90 16q76 0 127 -45t51 -116 q0 -47 -19.5 -88t-52.5 -72t-75 -49.5t-87 -18.5q-78 0 -127 48t-49 120z" />
<glyph unicode="&#xc0;" horiz-adv-x="1339" d="M-24.5 11.5q-4.5 11.5 1.5 27.5l570 1268q37 82 79 105.5t107 23.5h162q35 0 61.5 -3t46 -15.5t33 -38t19.5 -70.5l213 -1270q2 -10 -2 -24.5t-27 -14.5h-295q-23 0 -38 6t-19 29l-31 246h-391l-98 -236q-12 -23 -23.5 -34t-46.5 -11h-299q-18 0 -22.5 11.5zM472 1797 q-3 13 9 24l162 161q18 12 28.5 11.5t24.5 -15.5l342 -329q18 -18 15.5 -27.5t-13.5 -19.5l-98 -105q-12 -10 -21.5 -12t-25.5 10l-410 283q-10 6 -13 19zM592 584h225l-14 159l-23 295h-16l-111 -301z" />
<glyph unicode="&#xc1;" horiz-adv-x="1339" d="M-24.5 11.5q-4.5 11.5 1.5 27.5l570 1268q37 82 79 105.5t107 23.5h162q35 0 61.5 -3t46 -15.5t33 -38t19.5 -70.5l213 -1270q2 -10 -2 -24.5t-27 -14.5h-295q-23 0 -38 6t-19 29l-31 246h-391l-98 -236q-12 -23 -23.5 -34t-46.5 -11h-299q-18 0 -22.5 11.5zM592 584h225 l-14 159l-23 295h-16l-111 -301zM664 1640.5q-2 10.5 18 26.5l377 289q16 12 26.5 13t26.5 -13l141 -180q12 -10 8 -23.5t-16 -17.5l-438 -236q-18 -10 -27.5 -7t-19.5 13l-86 115q-8 10 -10 20.5z" />
<glyph unicode="&#xc2;" horiz-adv-x="1339" d="M-24.5 11.5q-4.5 11.5 1.5 27.5l570 1268q37 82 79 105.5t107 23.5h162q35 0 61.5 -3t46 -15.5t33 -38t19.5 -70.5l213 -1270q2 -10 -2 -24.5t-27 -14.5h-295q-23 0 -38 6t-19 29l-31 246h-391l-98 -236q-12 -23 -23.5 -34t-46.5 -11h-299q-18 0 -22.5 11.5zM404 1611.5 q4 12.5 20 30.5l291 248q39 33 82 54.5t77 21.5q47 0 80 -20.5t68 -55.5l238 -245q16 -18 13 -32t-26 -32l-71 -74q-14 -18 -28.5 -17t-37.5 17l-274 181l-304 -175q-20 -12 -31.5 -13t-27.5 18l-57 63q-16 18 -12 30.5zM592 584h225l-14 159l-23 295h-16l-111 -301z" />
<glyph unicode="&#xc3;" horiz-adv-x="1339" d="M-24.5 11.5q-4.5 11.5 1.5 27.5l570 1268q37 82 79 105.5t107 23.5h162q35 0 61.5 -3t46 -15.5t33 -38t19.5 -70.5l213 -1270q2 -10 -2 -24.5t-27 -14.5h-295q-23 0 -38 6t-19 29l-31 246h-391l-98 -236q-12 -23 -23.5 -34t-46.5 -11h-299q-18 0 -22.5 11.5z M367.5 1612.5q1.5 9.5 13.5 29.5q57 92 130 145.5t165 53.5q39 0 73.5 -14.5t66.5 -31.5t64.5 -31.5t67.5 -14.5q27 0 51.5 20.5t59.5 61.5q18 23 23 27t24 -7l94 -47q23 -12 27 -21t-13 -38q-112 -217 -290 -217q-37 0 -72 14t-68.5 30.5t-66.5 31t-66 14.5q-57 0 -110 -66 q-16 -20 -27.5 -26t-38.5 10l-82 51q-27 16 -25.5 25.5zM592 584h225l-14 159l-23 295h-16l-111 -301z" />
<glyph unicode="&#xc4;" horiz-adv-x="1339" d="M-24.5 11.5q-4.5 11.5 1.5 27.5l570 1268q37 82 79 105.5t107 23.5h162q35 0 61.5 -3t46 -15.5t33 -38t19.5 -70.5l213 -1270q2 -10 -2 -24.5t-27 -14.5h-295q-23 0 -38 6t-19 29l-31 246h-391l-98 -236q-12 -23 -23.5 -34t-46.5 -11h-299q-18 0 -22.5 11.5zM420 1657 q0 41 16.5 78t44 64.5t63 43t72.5 15.5q63 0 105.5 -44.5t42.5 -109.5q0 -37 -17.5 -73t-45 -62.5t-62.5 -43t-72 -16.5q-61 0 -104 43t-43 105zM592 584h225l-14 159l-23 295h-16l-111 -301zM860 1657q0 41 16.5 78t44 64.5t63.5 43t75 15.5q61 0 102 -43t41 -109 q0 -39 -16.5 -74t-44 -62.5t-62.5 -44t-69 -16.5q-66 0 -108 43t-42 105z" />
<glyph unicode="&#xc5;" horiz-adv-x="1339" d="M-24.5 11.5q-4.5 11.5 1.5 27.5l570 1268q29 61 57.5 88.5t69.5 36.5q-53 29 -82 80t-29 120q0 70 25.5 128.5t69.5 100.5t102 65.5t121 23.5q109 0 176 -63.5t67 -168.5q0 -98 -50 -171.5t-128 -112.5q47 -4 72.5 -29t36.5 -96l213 -1270q2 -10 -2 -24.5t-27 -14.5h-295 q-23 0 -38 6t-19 29l-31 246h-391l-98 -236q-12 -23 -23.5 -34t-46.5 -11h-299q-18 0 -22.5 11.5zM592 584h225l-14 159l-23 295h-16l-111 -301zM752 1657q0 -37 20.5 -58.5t54.5 -21.5q41 0 75 30.5t34 84.5q0 35 -22.5 57.5t-57.5 22.5q-43 0 -73.5 -33t-30.5 -82z" />
<glyph unicode="&#xc6;" horiz-adv-x="1929" d="M-22.5 12.5q-10.5 12.5 6.5 36.5l489 1051q51 106 105.5 172.5t115 101.5t130 47.5t151.5 12.5h964q23 0 29 -7.5t2 -42.5l-33 -231q-4 -27 -13 -36t-30 -9h-432q-41 0 -65.5 -11.5t-40 -27.5t-22.5 -36.5t-9 -41.5l-12 -86h514q23 0 28 -8t0 -43l-30 -213 q-6 -47 -43 -47h-514l-21 -154q-6 -39 0 -61.5t21.5 -33.5t37 -14t46.5 -3h503q25 0 31 -7.5t2 -41.5l-33 -232q-4 -27 -13 -37t-32 -10h-639q-96 0 -156.5 23.5t-94 62.5t-47 90t-15.5 107h-379l-104 -236q-10 -23 -22.5 -35t-47.5 -12h-299q-18 0 -28.5 12.5zM608 578h283 l65 466q6 43 19 86q-76 0 -112 -29.5t-56 -70.5l-94 -211z" />
<glyph unicode="&#xc7;" horiz-adv-x="1333" d="M150 563q0 211 55 377t152.5 279.5t232.5 174t295 60.5q117 0 218 -21.5t185 -68.5q31 -16 29 -34.5t-19 -53.5l-71 -168q-16 -41 -31.5 -47t-50.5 6q-37 12 -69 21.5t-60.5 15.5t-59 8t-67.5 2q-68 0 -129.5 -29.5t-108.5 -92t-74.5 -160t-27.5 -232.5q0 -137 52 -206.5 t181 -69.5q102 0 177 24.5t141 48.5q33 12 42 7t23 -37l80 -189q12 -29 6 -44t-28 -28q-115 -66 -224.5 -94t-224.5 -32l-35 -89q88 -4 147.5 -24.5t94.5 -50t50.5 -65.5t15.5 -73q0 -47 -17.5 -92t-56.5 -81.5t-102.5 -59.5t-155.5 -23q-37 0 -78 4.5t-80 11.5t-71.5 17 t-57.5 21q-16 6 -21.5 15t1.5 32l32 100q8 23 19.5 24t32.5 -5q47 -14 79.5 -20.5t77.5 -6.5q49 0 81 15.5t32 56.5q0 35 -35 49t-92 14q-41 0 -52.5 1t-21.5 11q-16 14 -12 32t10 40l62 150q-127 12 -216.5 60t-146.5 124t-82.5 176t-25.5 219z" />
<glyph unicode="&#xc8;" horiz-adv-x="1255" d="M147.5 252q-6.5 70 4.5 137l92 655q10 74 34.5 145t71.5 125t122 87t185 33h600q25 0 31 -7.5t2 -42.5l-33 -231q-4 -27 -13 -36t-32 -9h-464q-39 0 -65 -11.5t-40 -27.5t-21.5 -36.5t-9.5 -41.5l-12 -86h533q25 0 28.5 -8t-0.5 -43l-31 -213q-4 -27 -12 -37t-31 -10 h-532l-20 -154q-6 -39 0 -61.5t20 -33.5t35.5 -14t46.5 -3h518q23 0 29 -7.5t2 -41.5l-33 -232q-8 -47 -43 -47h-629q-119 0 -188.5 35t-104 91t-41 126zM513 1797q-3 13 9 24l162 161q18 12 28.5 11.5t24.5 -15.5l342 -329q18 -18 15.5 -27.5t-13.5 -19.5l-98 -105 q-12 -10 -21.5 -12t-25.5 10l-410 283q-10 6 -13 19z" />
<glyph unicode="&#xc9;" horiz-adv-x="1255" d="M147.5 252q-6.5 70 4.5 137l92 655q10 74 34.5 145t71.5 125t122 87t185 33h600q25 0 31 -7.5t2 -42.5l-33 -231q-4 -27 -13 -36t-32 -9h-464q-39 0 -65 -11.5t-40 -27.5t-21.5 -36.5t-9.5 -41.5l-12 -86h533q25 0 28.5 -8t-0.5 -43l-31 -213q-4 -27 -12 -37t-31 -10 h-532l-20 -154q-6 -39 0 -61.5t20 -33.5t35.5 -14t46.5 -3h518q23 0 29 -7.5t2 -41.5l-33 -232q-8 -47 -43 -47h-629q-119 0 -188.5 35t-104 91t-41 126zM670 1640.5q-2 10.5 18 26.5l377 289q16 12 26.5 13t26.5 -13l142 -180q12 -10 8 -23.5t-17 -17.5l-438 -236 q-18 -10 -27.5 -7t-19.5 13l-86 115q-8 10 -10 20.5z" />
<glyph unicode="&#xca;" horiz-adv-x="1255" d="M147.5 252q-6.5 70 4.5 137l92 655q10 74 34.5 145t71.5 125t122 87t185 33h600q25 0 31 -7.5t2 -42.5l-33 -231q-4 -27 -13 -36t-32 -9h-464q-39 0 -65 -11.5t-40 -27.5t-21.5 -36.5t-9.5 -41.5l-12 -86h533q25 0 28.5 -8t-0.5 -43l-31 -213q-4 -27 -12 -37t-31 -10 h-532l-20 -154q-6 -39 0 -61.5t20 -33.5t35.5 -14t46.5 -3h518q23 0 29 -7.5t2 -41.5l-33 -232q-8 -47 -43 -47h-629q-119 0 -188.5 35t-104 91t-41 126zM459 1611.5q4 12.5 20 30.5l291 248q39 33 82 54.5t78 21.5q47 0 79.5 -20.5t67.5 -55.5l238 -245q16 -18 13 -32 t-25 -32l-72 -74q-14 -18 -28.5 -17t-37.5 17l-274 181l-303 -175q-20 -12 -31.5 -13t-28.5 18l-57 63q-16 18 -12 30.5z" />
<glyph unicode="&#xcb;" horiz-adv-x="1255" d="M147.5 252q-6.5 70 4.5 137l92 655q10 74 34.5 145t71.5 125t122 87t185 33h600q25 0 31 -7.5t2 -42.5l-33 -231q-4 -27 -13 -36t-32 -9h-464q-39 0 -65 -11.5t-40 -27.5t-21.5 -36.5t-9.5 -41.5l-12 -86h533q25 0 28.5 -8t-0.5 -43l-31 -213q-4 -27 -12 -37t-31 -10 h-532l-20 -154q-6 -39 0 -61.5t20 -33.5t35.5 -14t46.5 -3h518q23 0 29 -7.5t2 -41.5l-33 -232q-8 -47 -43 -47h-629q-119 0 -188.5 35t-104 91t-41 126zM487 1659q0 41 16.5 78t44 64.5t63.5 43t73 15.5q63 0 105 -44t42 -110q0 -37 -17 -73t-45 -62.5t-62.5 -43 t-71.5 -16.5q-61 0 -104.5 43t-43.5 105zM928 1659q0 41 16.5 78t44 64.5t63 43t74.5 15.5q61 0 102.5 -43t41.5 -109q0 -39 -16.5 -74t-44 -62.5t-62.5 -44t-70 -16.5q-66 0 -107.5 43t-41.5 105z" />
<glyph unicode="&#xcc;" horiz-adv-x="733" d="M131 43l191 1348q6 43 53 43h280q35 0 41 -9.5t2 -33.5l-190 -1348q-4 -25 -11.5 -34t-41.5 -9h-281q-49 0 -43 43zM140.5 1797q-3.5 13 9.5 24l161 161q18 12 28.5 11.5t25.5 -15.5l342 -329q18 -18 15 -27.5t-13 -19.5l-99 -105q-12 -10 -21 -12t-26 10l-409 283 q-10 6 -13.5 19z" />
<glyph unicode="&#xcd;" horiz-adv-x="733" d="M131 43l191 1348q6 43 53 43h280q35 0 41 -9.5t2 -33.5l-190 -1348q-4 -25 -11.5 -34t-41.5 -9h-281q-49 0 -43 43zM358.5 1640.5q-2.5 10.5 18.5 26.5l377 289q16 12 26.5 13t26.5 -13l141 -180q12 -10 8 -23.5t-16 -17.5l-438 -236q-18 -10 -27.5 -7t-19.5 13l-86 115 q-8 10 -10.5 20.5z" />
<glyph unicode="&#xce;" horiz-adv-x="733" d="M105 1611.5q4 12.5 20 30.5l291 248q39 33 82 54.5t77 21.5q47 0 80 -20.5t68 -55.5l238 -245q16 -18 13 -32t-26 -32l-71 -74q-14 -18 -28.5 -17t-37.5 17l-274 181l-304 -175q-20 -12 -31.5 -13t-27.5 18l-57 63q-16 18 -12 30.5zM131 43l191 1348q6 43 53 43h280 q35 0 41 -9.5t2 -33.5l-190 -1348q-4 -25 -11.5 -34t-41.5 -9h-281q-49 0 -43 43z" />
<glyph unicode="&#xcf;" horiz-adv-x="733" d="M131 43l191 1348q6 43 53 43h280q35 0 41 -9.5t2 -33.5l-190 -1348q-4 -25 -11.5 -34t-41.5 -9h-281q-49 0 -43 43zM154 1661q0 41 16 78t44 64.5t63.5 43t72.5 15.5q63 0 105.5 -44t42.5 -110q0 -37 -17.5 -73t-45 -62.5t-62.5 -43t-72 -16.5q-61 0 -104 43t-43 105z M594 1661q0 41 16.5 78t44 64.5t63.5 43t75 15.5q61 0 102 -43t41 -109q0 -39 -16.5 -73.5t-44 -62.5t-62.5 -44.5t-70 -16.5q-66 0 -107.5 43t-41.5 105z" />
<glyph unicode="&#xd0;" horiz-adv-x="1404" d="M74 666l16 120q6 35 18.5 42.5t36.5 7.5h70l66 462q10 68 36.5 102t110.5 34h365q162 0 269 -48.5t171.5 -128t90.5 -184t26 -219.5q0 -90 -13.5 -187.5t-46.5 -192.5t-86 -181t-133 -150.5t-190.5 -103.5t-253.5 -39h-400q-84 0 -102.5 31.5t-7.5 103.5l67 483h-69 q-47 0 -41 48zM518 336h88q100 0 169 41t111 107.5t60.5 152.5t18.5 178q0 63 -12.5 116.5t-42 91.5t-79 58.5t-124.5 20.5h-82l-37 -266h180q25 0 35 -7.5t4 -42.5l-16 -120q-6 -47 -54 -48h-180z" />
<glyph unicode="&#xd1;" horiz-adv-x="1544" d="M102 43l174 1229q12 96 48 129t120 33h103q35 0 57.5 -2t40 -11.5t29.5 -28t28 -51.5l211 -446l127 -279h15l108 775q4 25 12.5 34t41.5 9h282q45 0 39 -43l-172 -1229q-10 -70 -45 -116t-123 -46h-102q-35 0 -58.5 3t-41 12.5t-31 27.5t-27.5 49l-201 422l-135 303h-14 l-111 -774q-4 -25 -11 -34t-40 -9h-283q-47 0 -41 43zM541.5 1620.5q1.5 9.5 13.5 30.5q57 92 130 145t165 53q39 0 73.5 -14t66.5 -31.5t64.5 -32t67.5 -14.5q27 0 51.5 20.5t59.5 61.5q18 23 23.5 27t23.5 -6l94 -48q23 -12 27 -21t-12 -38q-113 -217 -291 -217 q-37 0 -72 14.5t-68.5 30.5t-66.5 30.5t-66 14.5q-57 0 -110 -65q-16 -20 -27.5 -26.5t-38.5 9.5l-82 51q-27 16 -25.5 25.5z" />
<glyph unicode="&#xd2;" horiz-adv-x="1476" d="M150 559q0 201 50 367t144 283.5t228 182t302 64.5q141 0 245 -42t171.5 -117.5t101 -183t33.5 -239.5q0 -199 -46 -363.5t-138 -283t-229.5 -184.5t-317.5 -66q-143 0 -245.5 39t-169 114t-98 183.5t-31.5 245.5zM535.5 1809.5q-3.5 13.5 9.5 23.5l162 162q18 12 28 11 t25 -15l342 -330q18 -18 15 -27.5t-13 -19.5l-98 -105q-12 -10 -21.5 -12t-26.5 10l-409 283q-10 6 -13.5 19.5zM545 575q0 -119 44 -185t150 -66q76 0 130.5 46t90 121.5t52 169t16.5 189.5q0 57 -9 105.5t-30.5 83t-57.5 54t-91 19.5q-74 0 -129.5 -47t-92 -124t-55 -172 t-18.5 -194z" />
<glyph unicode="&#xd3;" horiz-adv-x="1476" d="M150 559q0 201 50 367t144 283.5t228 182t302 64.5q141 0 245 -42t171.5 -117.5t101 -183t33.5 -239.5q0 -199 -46 -363.5t-138 -283t-229.5 -184.5t-317.5 -66q-143 0 -245.5 39t-169 114t-98 183.5t-31.5 245.5zM545 575q0 -119 44 -185t150 -66q76 0 130.5 46 t90 121.5t52 169t16.5 189.5q0 57 -9 105.5t-30.5 83t-57.5 54t-91 19.5q-74 0 -129.5 -47t-92 -124t-55 -172t-18.5 -194zM774 1667q-2 10 19 27l376 288q16 12 26.5 13.5t27.5 -13.5l141 -180q12 -10 8 -23.5t-16 -17.5l-438 -235q-18 -10 -27.5 -7t-20.5 13l-86 115 q-8 10 -10 20z" />
<glyph unicode="&#xd4;" horiz-adv-x="1476" d="M150 559q0 201 50 367t144 283.5t228 182t302 64.5q141 0 245 -42t171.5 -117.5t101 -183t33.5 -239.5q0 -199 -46 -363.5t-138 -283t-229.5 -184.5t-317.5 -66q-143 0 -245.5 39t-169 114t-98 183.5t-31.5 245.5zM479.5 1611.5q3.5 12.5 20.5 30.5l291 248 q39 33 81.5 54.5t77.5 21.5q47 0 80 -20.5t68 -55.5l237 -245q16 -18 13.5 -32t-25.5 -32l-72 -74q-14 -18 -28.5 -17t-36.5 17l-275 181l-303 -175q-20 -12 -31.5 -13t-27.5 18l-57 63q-16 18 -12.5 30.5zM545 575q0 -119 44 -185t150 -66q76 0 130.5 46t90 121.5t52 169 t16.5 189.5q0 57 -9 105.5t-30.5 83t-57.5 54t-91 19.5q-74 0 -129.5 -47t-92 -124t-55 -172t-18.5 -194z" />
<glyph unicode="&#xd5;" horiz-adv-x="1476" d="M150 559q0 201 50 367t144 283.5t228 182t302 64.5q141 0 245 -42t171.5 -117.5t101 -183t33.5 -239.5q0 -199 -46 -363.5t-138 -283t-229.5 -184.5t-317.5 -66q-143 0 -245.5 39t-169 114t-98 183.5t-31.5 245.5zM492.5 1616.5q1.5 9.5 13.5 30.5q57 92 130 145t165 53 q39 0 73.5 -14t66.5 -31.5t64.5 -32t67.5 -14.5q27 0 51.5 20.5t59.5 61.5q18 23 23 27t24 -7l94 -47q23 -12 27 -21t-13 -38q-112 -217 -290 -217q-37 0 -72 14.5t-69 30.5t-66.5 30.5t-65.5 14.5q-57 0 -110 -66q-16 -20 -27.5 -26t-38.5 10l-82 51q-27 16 -25.5 25.5z M545 575q0 -119 44 -185t150 -66q76 0 130.5 46t90 121.5t52 169t16.5 189.5q0 57 -9 105.5t-30.5 83t-57.5 54t-91 19.5q-74 0 -129.5 -47t-92 -124t-55 -172t-18.5 -194z" />
<glyph unicode="&#xd6;" horiz-adv-x="1476" d="M150 559q0 201 50 367t144 283.5t228 182t302 64.5q141 0 245 -42t171.5 -117.5t101 -183t33.5 -239.5q0 -199 -46 -363.5t-138 -283t-229.5 -184.5t-317.5 -66q-143 0 -245.5 39t-169 114t-98 183.5t-31.5 245.5zM545 575q0 -119 44 -185t150 -66q76 0 130.5 46 t90 121.5t52 169t16.5 189.5q0 57 -9 105.5t-30.5 83t-57.5 54t-91 19.5q-74 0 -129.5 -47t-92 -124t-55 -172t-18.5 -194zM582 1663q0 41 16 78t44 64.5t63.5 43t72.5 15.5q63 0 105.5 -44t42.5 -110q0 -37 -17.5 -72.5t-45 -62.5t-62.5 -43t-72 -16q-61 0 -104 43t-43 104 zM1022 1663q0 41 16.5 78t44 64.5t63.5 43t75 15.5q61 0 102 -43t41 -109q0 -39 -16.5 -73.5t-44 -62.5t-62.5 -44t-70 -16q-66 0 -107.5 43t-41.5 104z" />
<glyph unicode="&#xd7;" horiz-adv-x="1384" d="M251 427.5q5 16.5 21 33.5l271 241l-203 242q-29 35 10 68l148 133q29 23 40 20.5t27 -20.5l201 -242l266 242q37 35 66 0l110 -133q20 -25 16.5 -38t-26.5 -32l-264 -240l196 -239q16 -18 17.5 -31.5t-27.5 -38.5l-147 -133q-20 -18 -35.5 -17t-30.5 17l-196 242 l-271 -242q-20 -18 -32.5 -20t-34.5 20l-111 133q-16 18 -11 34.5z" />
<glyph unicode="&#xd8;" horiz-adv-x="1476" d="M68 69.5q2 8.5 18 26.5l127 131q-33 66 -48 150t-15 182q0 201 50 367t144 283.5t228 182t302 64.5q133 0 231.5 -37t168.5 -104l96 98q33 35 51 14l39 -38q12 -12 12.5 -22.5t-20.5 -29.5l-111 -112q84 -143 84 -351q0 -199 -46 -363.5t-138 -283t-229.5 -184.5 t-317.5 -66q-285 0 -418 156l-112 -117q-20 -20 -27.5 -21t-17.5 9l-39 43q-14 14 -12 22.5zM545 565l448 461q-23 41 -58.5 63.5t-94.5 22.5q-74 0 -129.5 -47t-92 -124t-55 -172t-18.5 -194v-10zM567 430q41 -106 172 -106q76 0 130.5 46t90 121.5t52 169t16.5 189.5 q0 12 -1 25.5t-1 25.5z" />
<glyph unicode="&#xd9;" horiz-adv-x="1474" d="M176.5 283.5q-22.5 115.5 1.5 291.5l115 816q6 43 51 43h283q33 0 39 -9.5t2 -33.5l-121 -852q-16 -121 33 -174.5t184 -53.5h33.5t51.5 2t54.5 3t42.5 6l150 1069q4 23 14 33t37 10h280q33 0 39.5 -9.5t1.5 -33.5l-170 -1192q-10 -66 -43.5 -118t-113.5 -75 q-41 -12 -97.5 -18t-110.5 -9.5t-100.5 -4.5t-68.5 -1q-176 0 -299 28t-194.5 97.5t-94 185zM531.5 1797q-3.5 13 9.5 24l161 161q18 12 28.5 11.5t25.5 -15.5l342 -329q18 -18 15 -27.5t-13 -19.5l-99 -105q-12 -10 -21 -12t-26 10l-409 283q-10 6 -13.5 19z" />
<glyph unicode="&#xda;" horiz-adv-x="1474" d="M176.5 283.5q-22.5 115.5 1.5 291.5l115 816q6 43 51 43h283q33 0 39 -9.5t2 -33.5l-121 -852q-16 -121 33 -174.5t184 -53.5h33.5t51.5 2t54.5 3t42.5 6l150 1069q4 23 14 33t37 10h280q33 0 39.5 -9.5t1.5 -33.5l-170 -1192q-10 -66 -43.5 -118t-113.5 -75 q-41 -12 -97.5 -18t-110.5 -9.5t-100.5 -4.5t-68.5 -1q-176 0 -299 28t-194.5 97.5t-94 185zM750 1640.5q-2 10.5 18 26.5l377 289q16 12 26.5 13t26.5 -13l141 -180q12 -10 8 -23.5t-16 -17.5l-438 -236q-18 -10 -27.5 -7t-19.5 13l-86 115q-8 10 -10 20.5z" />
<glyph unicode="&#xdb;" horiz-adv-x="1474" d="M176.5 283.5q-22.5 115.5 1.5 291.5l115 816q6 43 51 43h283q33 0 39 -9.5t2 -33.5l-121 -852q-16 -121 33 -174.5t184 -53.5h33.5t51.5 2t54.5 3t42.5 6l150 1069q4 23 14 33t37 10h280q33 0 39.5 -9.5t1.5 -33.5l-170 -1192q-10 -66 -43.5 -118t-113.5 -75 q-41 -12 -97.5 -18t-110.5 -9.5t-100.5 -4.5t-68.5 -1q-176 0 -299 28t-194.5 97.5t-94 185zM504 1611.5q4 12.5 20 30.5l291 248q39 33 82 54.5t78 21.5q47 0 79.5 -20.5t67.5 -55.5l238 -245q16 -18 13 -32t-25 -32l-72 -74q-14 -18 -28.5 -17t-37.5 17l-274 181 l-303 -175q-20 -12 -31.5 -13t-28.5 18l-57 63q-16 18 -12 30.5z" />
<glyph unicode="&#xdc;" horiz-adv-x="1474" d="M176.5 283.5q-22.5 115.5 1.5 291.5l115 816q6 43 51 43h283q33 0 39 -9.5t2 -33.5l-121 -852q-16 -121 33 -174.5t184 -53.5h33.5t51.5 2t54.5 3t42.5 6l150 1069q4 23 14 33t37 10h280q33 0 39.5 -9.5t1.5 -33.5l-170 -1192q-10 -66 -43.5 -118t-113.5 -75 q-41 -12 -97.5 -18t-110.5 -9.5t-100.5 -4.5t-68.5 -1q-176 0 -299 28t-194.5 97.5t-94 185zM512 1667q0 41 16.5 78t44 64.5t63.5 43t73 15.5q63 0 105 -44t42 -110q0 -37 -17.5 -72.5t-45 -62.5t-62.5 -43t-72 -16q-61 0 -104 43t-43 104zM952 1667q0 41 16.5 78t44 64.5 t63.5 43t75 15.5q61 0 102 -43t41 -109q0 -39 -16 -73.5t-44 -62.5t-62.5 -44t-69.5 -16q-66 0 -108 43t-42 104z" />
<glyph unicode="&#xdd;" horiz-adv-x="1310" d="M160 1386q-6 14 2 31t39 17h299q41 0 50 -12.5t15 -41.5l72 -250l65 -274h13l145 279l146 254q12 23 26.5 34t42.5 11h334q39 0 37 -15.5t-10 -29.5l-570 -889l-63 -453q-4 -25 -12.5 -36t-40.5 -11h-283q-45 0 -39 47l61 447zM647 1640.5q-2 10.5 19 26.5l376 289 q16 12 26.5 13t27.5 -13l141 -180q12 -10 8 -23.5t-16 -17.5l-438 -236q-18 -10 -27.5 -7t-20.5 13l-86 115q-8 10 -10 20.5z" />
<glyph unicode="&#xde;" horiz-adv-x="1327" d="M104 47l191 1364q6 47 53 47h260q33 0 38 -11t1 -36l-24 -184h280q109 0 187.5 -32t131 -87t78 -132t25.5 -167q0 -29 -7 -80t-28.5 -109.5t-62.5 -119t-109.5 -109.5t-169 -79.5t-241.5 -30.5h-195l-33 -234q-4 -25 -12 -36t-41 -11h-283q-45 0 -39 47zM555 584h209 q39 0 70.5 16t53 42t34 58.5t12.5 65.5q0 20 -6 42.5t-20.5 41t-39 31t-61.5 12.5h-209z" />
<glyph unicode="&#xdf;" horiz-adv-x="1265" d="M86 59l133 951q35 252 177.5 382t365.5 130q229 0 348 -100.5t119 -266.5q0 -35 -8.5 -78t-30 -87t-61 -87t-101.5 -76v-10q92 -47 127 -121.5t35 -191.5q0 -170 -47 -279.5t-125 -174t-180 -91.5t-215 -29q-55 0 -64.5 9.5t-5.5 42.5l29 202q4 27 11 36t40 16 q68 12 103.5 46.5t53 76.5t20.5 81t3 60q0 61 -27.5 109t-91.5 65q-47 12 -59 26.5t-8 51.5l14 98q4 41 20.5 62.5t75.5 29.5q16 2 38 12.5t40.5 31t31.5 50t13 72.5q0 41 -25.5 76t-86.5 35q-74 0 -114 -50.5t-50 -121.5l-138 -988q-4 -29 -15 -44t-52 -15h-246 q-31 0 -41 16.5t-6 42.5z" />
<glyph unicode="&#xe0;" horiz-adv-x="1241" d="M104 391q0 332 143.5 519.5t432.5 187.5q78 0 202 -9.5t269 -50.5q35 -10 40 -26.5t1 -38.5q-37 -227 -65.5 -443.5t-53.5 -439.5q-4 -16 -9 -24.5t-22 -14.5q-68 -25 -140.5 -40t-138 -23t-122.5 -10.5t-94 -2.5q-133 0 -219 31t-135.5 86t-69 132t-19.5 167z M442.5 1556.5q-0.5 12.5 14.5 20.5l225 131q23 10 31 7t16 -19l232 -387q12 -18 6 -28.5t-21 -20.5l-117 -74q-12 -10 -22 -10t-25 14l-329 346q-10 8 -10.5 20.5zM481 457q0 -92 36 -131t106 -39q18 0 55 4t65 14q12 100 19.5 152.5t12.5 93.5t12.5 90t23.5 141 q-27 8 -55.5 11.5t-44.5 3.5q-96 0 -163 -81t-67 -259z" />
<glyph unicode="&#xe1;" horiz-adv-x="1241" d="M104 391q0 332 143.5 519.5t432.5 187.5q78 0 202 -9.5t269 -50.5q35 -10 40 -26.5t1 -38.5q-37 -227 -65.5 -443.5t-53.5 -439.5q-4 -16 -9 -24.5t-22 -14.5q-68 -25 -140.5 -40t-138 -23t-122.5 -10.5t-94 -2.5q-133 0 -219 31t-135.5 86t-69 132t-19.5 167zM481 457 q0 -92 36 -131t106 -39q18 0 55 4t65 14q12 100 19.5 152.5t12.5 93.5t12.5 90t23.5 141q-27 8 -55.5 11.5t-44.5 3.5q-96 0 -163 -81t-67 -259zM632 1222.5q-5 8.5 7 30.5l195 383q8 16 17 22.5t32 2.5l239 -62q16 -4 19.5 -16t-6.5 -22l-299 -381q-10 -18 -20.5 -20.5 t-27.5 1.5l-137 49q-14 4 -19 12.5z" />
<glyph unicode="&#xe2;" horiz-adv-x="1241" d="M104 391q0 332 143.5 519.5t432.5 187.5q78 0 202 -9.5t269 -50.5q35 -10 40 -26.5t1 -38.5q-37 -227 -65.5 -443.5t-53.5 -439.5q-4 -16 -9 -24.5t-22 -14.5q-68 -25 -140.5 -40t-138 -23t-122.5 -10.5t-94 -2.5q-133 0 -219 31t-135.5 86t-69 132t-19.5 167z M306 1251.5q3 12.5 20 30.5l297 289q39 35 80.5 57.5t76.5 22.5q57 0 90 -19.5t62 -60.5l233 -287q14 -18 10 -31.5t-24 -31.5l-74 -64q-18 -14 -32.5 -13t-32.5 17l-246 211l-311 -235q-18 -12 -30.5 -10.5t-29.5 18.5l-78 76q-14 18 -11 30.5zM481 457q0 -92 36 -131 t106 -39q18 0 55 4t65 14q12 100 19.5 152.5t12.5 93.5t12.5 90t23.5 141q-27 8 -55.5 11.5t-44.5 3.5q-96 0 -163 -81t-67 -259z" />
<glyph unicode="&#xe3;" horiz-adv-x="1241" d="M104 391q0 332 143.5 519.5t432.5 187.5q78 0 202 -9.5t269 -50.5q35 -10 40 -26.5t1 -38.5q-37 -227 -65.5 -443.5t-53.5 -439.5q-4 -16 -9 -24.5t-22 -14.5q-68 -25 -140.5 -40t-138 -23t-122.5 -10.5t-94 -2.5q-133 0 -219 31t-135.5 86t-69 132t-19.5 167z M310 1307.5q1 9.5 14 29.5q57 92 129.5 145.5t164.5 53.5q39 0 74 -14.5t67 -31.5t64.5 -31.5t67.5 -14.5q27 0 51.5 20.5t58.5 61.5q18 23 23.5 26.5t24.5 -6.5l94 -47q23 -12 27 -21.5t-13 -37.5q-113 -217 -291 -217q-37 0 -71.5 14t-68.5 30.5t-66.5 31t-65.5 14.5 q-57 0 -111 -66q-16 -20 -27.5 -26.5t-37.5 10.5l-82 51q-27 16 -26 25.5zM481 457q0 -92 36 -131t106 -39q18 0 55 4t65 14q12 100 19.5 152.5t12.5 93.5t12.5 90t23.5 141q-27 8 -55.5 11.5t-44.5 3.5q-96 0 -163 -81t-67 -259z" />
<glyph unicode="&#xe4;" horiz-adv-x="1241" d="M104 391q0 332 143.5 519.5t432.5 187.5q78 0 202 -9.5t269 -50.5q35 -10 40 -26.5t1 -38.5q-37 -227 -65.5 -443.5t-53.5 -439.5q-4 -16 -9 -24.5t-22 -14.5q-68 -25 -140.5 -40t-138 -23t-122.5 -10.5t-94 -2.5q-133 0 -219 31t-135.5 86t-69 132t-19.5 167zM360 1354 q0 41 16.5 77.5t44.5 64.5t63.5 43t72.5 15q63 0 105.5 -44t42.5 -109q0 -37 -17.5 -73t-45.5 -62.5t-62.5 -43t-71.5 -16.5q-61 0 -104.5 43t-43.5 105zM481 457q0 -92 36 -131t106 -39q18 0 55 4t65 14q12 100 19.5 152.5t12.5 93.5t12.5 90t23.5 141q-27 8 -55.5 11.5 t-44.5 3.5q-96 0 -163 -81t-67 -259zM801 1354q0 41 16.5 77.5t44 64.5t63 43t74.5 15q61 0 102.5 -43t41.5 -108q0 -39 -16.5 -74t-44 -62.5t-62.5 -44t-70 -16.5q-66 0 -107.5 43t-41.5 105z" />
<glyph unicode="&#xe5;" horiz-adv-x="1241" d="M104 391q0 332 143.5 519.5t432.5 187.5q78 0 202 -9.5t269 -50.5q35 -10 40 -26.5t1 -38.5q-37 -227 -65.5 -443.5t-53.5 -439.5q-4 -16 -9 -24.5t-22 -14.5q-68 -25 -140.5 -40t-138 -23t-122.5 -10.5t-94 -2.5q-133 0 -219 31t-135.5 86t-69 132t-19.5 167zM479 1380 q0 70 25.5 128.5t69.5 100.5t102 65.5t121 23.5q109 0 176 -63.5t67 -168.5q0 -70 -26.5 -128t-70.5 -100t-102.5 -65.5t-121.5 -23.5q-109 0 -174.5 63.5t-65.5 167.5zM481 457q0 -92 36 -131t106 -39q18 0 55 4t65 14q12 100 19.5 152.5t12.5 93.5t12.5 90t23.5 141 q-27 8 -55.5 11.5t-44.5 3.5q-96 0 -163 -81t-67 -259zM668 1405q0 -37 20.5 -58.5t54.5 -21.5q41 0 75 30.5t34 84.5q0 35 -22.5 57.5t-57.5 22.5q-43 0 -73.5 -33t-30.5 -82z" />
<glyph unicode="&#xe6;" horiz-adv-x="1777" d="M82 297q0 117 37 192.5t101.5 118.5t151.5 59.5t187 16.5q47 0 94 -3t97 -7q4 14 6 28.5t2 26.5q0 90 -125 90q-53 0 -132 -9t-157 -26q-43 -8 -51 31l-37 176q-4 29 4 38t25 15q197 63 417 64q92 0 171 -18.5t126 -61.5q131 78 314 78q86 0 166 -15.5t140 -52.5t96 -98 t36 -154q0 -182 -127 -275t-367 -93q-37 0 -76.5 2t-80.5 6q0 -8 -1 -14t-1 -15q0 -37 12 -59.5t33.5 -32.5t52.5 -13t70 -3q51 0 101 11t114 32q29 10 38 6t15 -21l78 -192q6 -20 -2 -30.5t-25 -20.5q-41 -25 -96 -43.5t-115.5 -30.5t-117 -17.5t-99.5 -5.5q-211 0 -317 84 q-43 -23 -89 -39t-93.5 -26t-90.5 -15.5t-80 -5.5q-115 0 -192.5 24t-124.5 67t-67.5 101t-20.5 130zM461 352q-1 -86 114 -86q12 0 57.5 4t82.5 23q-4 23 -6 45t-2 47q0 18 1 36.5t3 37.5q-43 6 -88 6q-33 0 -62 -5t-51.5 -17.5t-35.5 -34t-13 -56.5zM1133 645q12 -2 23 -2 h26q119 0 159.5 25.5t40.5 74.5q0 27 -18.5 48.5t-69.5 21.5q-63 0 -105 -40t-56 -128z" />
<glyph unicode="&#xe7;" horiz-adv-x="1060" d="M109 434q0 178 40.5 305t114.5 208t177.5 120t228.5 39q84 0 171 -17.5t152 -46.5q23 -10 28 -22t-5 -43l-66 -207q-10 -31 -28.5 -29t-49.5 9q-57 10 -103 17t-77 7q-109 0 -157 -79t-48 -214q0 -80 31 -124t121 -44q61 0 119.5 12.5t107.5 26.5q23 6 36 6t18 -28 l65 -203q4 -23 4 -36t-33 -30q-86 -43 -180 -60t-174 -21l-45 -89q84 -4 136 -24.5t82 -50t40 -66.5t10 -74q0 -47 -20.5 -93t-62.5 -82t-106.5 -57.5t-154.5 -21.5q-37 0 -76.5 5.5t-76.5 12.5t-70 17.5t-55 20.5q-16 6 -15.5 14t9.5 31l32 100q8 23 15.5 26t23.5 -3 q43 -14 81 -22.5t81 -8.5q47 0 80 15.5t39 56.5q4 35 -28 49t-87 14q-41 0 -50 1t-19 11q-14 14 -9.5 33t17.5 39l82 150q-346 47 -346 450z" />
<glyph unicode="&#xe8;" horiz-adv-x="1177" d="M102 397q0 346 157 527.5t439 181.5q86 0 166 -15.5t140.5 -52.5t96.5 -98t36 -154q0 -182 -127 -275t-367 -93q-37 0 -77 2t-81 6q0 -8 -1 -14t-1 -15q0 -37 12.5 -59.5t34 -32.5t52 -13t69.5 -3q51 0 101.5 11t113.5 32q29 10 38 6t16 -21l77 -192q6 -20 -2 -30.5 t-24 -20.5q-41 -25 -96.5 -43.5t-116 -30.5t-116.5 -17.5t-99 -5.5q-123 0 -207 28t-136.5 81t-75 131t-22.5 180zM381 1556.5q0 12.5 14 20.5l226 131q23 10 30.5 7t16.5 -19l231 -387q12 -18 6 -28.5t-20 -20.5l-117 -74q-12 -10 -22.5 -10t-24.5 14l-330 346 q-10 8 -10 20.5zM518 645q12 -2 23.5 -2h25.5q119 0 160 25.5t41 74.5q0 27 -18.5 48.5t-69.5 21.5q-63 0 -105.5 -40t-56.5 -128z" />
<glyph unicode="&#xe9;" horiz-adv-x="1177" d="M102 397q0 346 157 527.5t439 181.5q86 0 166 -15.5t140.5 -52.5t96.5 -98t36 -154q0 -182 -127 -275t-367 -93q-37 0 -77 2t-81 6q0 -8 -1 -14t-1 -15q0 -37 12.5 -59.5t34 -32.5t52 -13t69.5 -3q51 0 101.5 11t113.5 32q29 10 38 6t16 -21l77 -192q6 -20 -2 -30.5 t-24 -20.5q-41 -25 -96.5 -43.5t-116 -30.5t-116.5 -17.5t-99 -5.5q-123 0 -207 28t-136.5 81t-75 131t-22.5 180zM518 645q12 -2 23.5 -2h25.5q119 0 160 25.5t41 74.5q0 27 -18.5 48.5t-69.5 21.5q-63 0 -105.5 -40t-56.5 -128zM615.5 1222.5q-5.5 8.5 7.5 30.5l194 383 q8 16 17.5 22.5t31.5 2.5l240 -62q16 -4 19 -16t-7 -22l-299 -381q-10 -18 -20.5 -20.5t-26.5 1.5l-137 49q-14 4 -19.5 12.5z" />
<glyph unicode="&#xea;" horiz-adv-x="1177" d="M102 397q0 346 157 527.5t439 181.5q86 0 166 -15.5t140.5 -52.5t96.5 -98t36 -154q0 -182 -127 -275t-367 -93q-37 0 -77 2t-81 6q0 -8 -1 -14t-1 -15q0 -37 12.5 -59.5t34 -32.5t52 -13t69.5 -3q51 0 101.5 11t113.5 32q29 10 38 6t16 -21l77 -192q6 -20 -2 -30.5 t-24 -20.5q-41 -25 -96.5 -43.5t-116 -30.5t-116.5 -17.5t-99 -5.5q-123 0 -207 28t-136.5 81t-75 131t-22.5 180zM314.5 1251.5q2.5 12.5 19.5 30.5l297 289q39 35 81 57.5t76 22.5q57 0 90 -19.5t62 -60.5l234 -287q14 -18 10 -31.5t-25 -31.5l-74 -64q-18 -14 -32.5 -13 t-32.5 17l-246 211l-311 -235q-18 -12 -30.5 -10.5t-29.5 18.5l-77 76q-14 18 -11.5 30.5zM518 645q12 -2 23.5 -2h25.5q119 0 160 25.5t41 74.5q0 27 -18.5 48.5t-69.5 21.5q-63 0 -105.5 -40t-56.5 -128z" />
<glyph unicode="&#xeb;" horiz-adv-x="1177" d="M102 397q0 346 157 527.5t439 181.5q86 0 166 -15.5t140.5 -52.5t96.5 -98t36 -154q0 -182 -127 -275t-367 -93q-37 0 -77 2t-81 6q0 -8 -1 -14t-1 -15q0 -37 12.5 -59.5t34 -32.5t52 -13t69.5 -3q51 0 101.5 11t113.5 32q29 10 38 6t16 -21l77 -192q6 -20 -2 -30.5 t-24 -20.5q-41 -25 -96.5 -43.5t-116 -30.5t-116.5 -17.5t-99 -5.5q-123 0 -207 28t-136.5 81t-75 131t-22.5 180zM375 1354q0 41 16.5 77.5t44 64.5t63 43t72.5 15q63 0 105.5 -44t42.5 -109q0 -37 -17.5 -73t-45 -62.5t-62.5 -43t-72 -16.5q-61 0 -104 43t-43 105z M518 645q12 -2 23.5 -2h25.5q119 0 160 25.5t41 74.5q0 27 -18.5 48.5t-69.5 21.5q-63 0 -105.5 -40t-56.5 -128zM815 1354q0 41 16.5 77.5t44 64.5t63.5 43t75 15q61 0 102 -43t41 -108q0 -39 -16.5 -74t-44 -62.5t-62.5 -44t-69 -16.5q-66 0 -108 43t-42 105z" />
<glyph unicode="&#xec;" horiz-adv-x="704" d="M119 41l139 993q4 23 14.5 32t36.5 9h264q33 0 39 -8t2 -33l-139 -993q-4 -25 -11 -33t-40 -8h-264q-47 0 -41 41zM121 1556.5q0 12.5 14 20.5l225 131q23 10 31 7t17 -19l231 -387q12 -18 6 -28.5t-20 -20.5l-117 -74q-12 -10 -22.5 -10t-24.5 14l-330 346 q-10 8 -10 20.5z" />
<glyph unicode="&#xed;" horiz-adv-x="704" d="M119 41l139 993q4 23 14.5 32t36.5 9h264q33 0 39 -8t2 -33l-139 -993q-4 -25 -11 -33t-40 -8h-264q-47 0 -41 41zM308.5 1222.5q-5.5 8.5 6.5 30.5l195 383q8 16 17.5 22.5t31.5 2.5l240 -62q16 -4 19 -16t-7 -22l-299 -381q-10 -18 -20.5 -20.5t-26.5 1.5l-137 49 q-14 4 -19.5 12.5z" />
<glyph unicode="&#xee;" horiz-adv-x="704" d="M34 1251.5q3 12.5 19 30.5l297 289q39 35 81 57.5t77 22.5q57 0 90 -19.5t61 -60.5l234 -287q14 -18 10 -31.5t-24 -31.5l-74 -64q-18 -14 -32.5 -13t-33.5 17l-245 211l-312 -235q-18 -12 -30.5 -10.5t-28.5 18.5l-78 76q-14 18 -11 30.5zM119 41l139 993q4 23 14.5 32 t36.5 9h264q33 0 39 -8t2 -33l-139 -993q-4 -25 -11 -33t-40 -8h-264q-47 0 -41 41z" />
<glyph unicode="&#xef;" horiz-adv-x="704" d="M96 1333q0 41 16.5 78t44 64.5t63.5 43t73 15.5q63 0 105 -44t42 -110q0 -37 -17 -72.5t-45 -62t-62.5 -43t-71.5 -16.5q-61 0 -104.5 43t-43.5 104zM119 41l139 993q4 23 14.5 32t36.5 9h264q33 0 39 -8t2 -33l-139 -993q-4 -25 -11 -33t-40 -8h-264q-47 0 -41 41z M537 1333q0 41 16 78t44 64.5t63.5 43t74.5 15.5q61 0 102.5 -43t41.5 -109q0 -39 -16.5 -73.5t-44 -62t-62.5 -44t-70 -16.5q-66 0 -107.5 43t-41.5 104z" />
<glyph unicode="&#xf0;" horiz-adv-x="1251" d="M100 395q0 125 35 232.5t102.5 186.5t166 124t225.5 45q57 0 107 -6t95 -29l15 15q-12 66 -36 113.5t-58 94.5l-168 -104q-8 -4 -16.5 -5t-14.5 11l-27 57q-8 16 -1 22.5t14 10.5l139 88q-47 49 -111 92q-16 12 -19 23.5t7 30.5l82 123q10 18 23.5 19t35.5 -9 q121 -53 222 -129l149 96q16 10 25.5 12t15.5 -10l33 -55q12 -20 -15 -35l-120 -78q111 -104 154.5 -246.5t43.5 -308.5q0 -51 -7 -131t-29.5 -168t-65.5 -177t-116 -160.5t-179.5 -115.5t-255.5 -44q-135 0 -222 34.5t-138.5 93t-71 133t-19.5 154.5zM480 427 q-1 -36 9.5 -64.5t35 -48t71.5 -19.5t80 20.5t54.5 54t33.5 78t18 91.5q10 59 6 102q-63 45 -129 45q-86 0 -124.5 -55.5t-49.5 -132.5q-4 -35 -5 -71z" />
<glyph unicode="&#xf1;" horiz-adv-x="1271" d="M84 41l125 879q8 63 33.5 104t97.5 57q20 4 61 9.5t88.5 8.5t94.5 5t82 2q145 0 250.5 -27.5t169 -92t84 -168t-0.5 -253.5l-73 -524q-4 -25 -11.5 -33t-42.5 -8h-266q-49 0 -43 41l80 559q14 104 -16.5 156.5t-139.5 52.5q-18 0 -50 -2t-58 -6l-107 -760q-4 -25 -11 -33 t-42 -8h-264q-47 0 -41 41zM273 1287q1 9 14 30q57 92 129.5 145.5t165.5 53.5q39 0 73.5 -14.5t66.5 -32t64.5 -32t67.5 -14.5q27 0 51.5 20.5t59.5 61.5q18 23 23 27t24 -6l94 -47q23 -12 27 -21.5t-13 -38.5q-113 -217 -291 -217q-37 0 -71.5 14.5t-68.5 31t-66.5 30.5 t-65.5 14q-57 0 -111 -65q-16 -20 -27 -26.5t-38 9.5l-82 52q-27 16 -26 25z" />
<glyph unicode="&#xf2;" horiz-adv-x="1228" d="M104 408q0 166 42 294.5t121 219t191 137.5t253 47q236 0 348 -121t112 -340q0 -152 -39.5 -274.5t-116.5 -210.5t-190.5 -135.5t-259.5 -47.5q-244 0 -352.5 115t-108.5 316zM373 1556.5q0 12.5 14 20.5l225 131q23 10 31 7t16 -19l232 -387q12 -18 6 -28.5t-20 -20.5 l-117 -74q-12 -10 -22.5 -10t-24.5 14l-330 346q-10 8 -10 20.5zM483 455q0 -86 31 -124t90 -38q84 0 136.5 91t52.5 245q0 162 -119 162q-84 0 -137.5 -84t-53.5 -252z" />
<glyph unicode="&#xf3;" horiz-adv-x="1228" d="M104 408q0 166 42 294.5t121 219t191 137.5t253 47q236 0 348 -121t112 -340q0 -152 -39.5 -274.5t-116.5 -210.5t-190.5 -135.5t-259.5 -47.5q-244 0 -352.5 115t-108.5 316zM483 455q0 -86 31 -124t90 -38q84 0 136.5 91t52.5 245q0 162 -119 162q-84 0 -137.5 -84 t-53.5 -252zM605.5 1222.5q-5.5 8.5 6.5 30.5l195 383q8 16 17.5 22.5t31.5 2.5l240 -62q16 -4 19 -16t-7 -22l-299 -381q-10 -18 -20.5 -20.5t-26.5 1.5l-137 49q-14 4 -19.5 12.5z" />
<glyph unicode="&#xf4;" horiz-adv-x="1228" d="M104 408q0 166 42 294.5t121 219t191 137.5t253 47q236 0 348 -121t112 -340q0 -152 -39.5 -274.5t-116.5 -210.5t-190.5 -135.5t-259.5 -47.5q-244 0 -352.5 115t-108.5 316zM288 1251.5q3 12.5 19 30.5l297 289q39 35 81 57.5t77 22.5q57 0 90 -19.5t61 -60.5l234 -287 q14 -18 10 -31.5t-24 -31.5l-74 -64q-18 -14 -32.5 -13t-33.5 17l-245 211l-312 -235q-18 -12 -30.5 -10.5t-28.5 18.5l-78 76q-14 18 -11 30.5zM483 455q0 -86 31 -124t90 -38q84 0 136.5 91t52.5 245q0 162 -119 162q-84 0 -137.5 -84t-53.5 -252z" />
<glyph unicode="&#xf5;" horiz-adv-x="1228" d="M104 408q0 166 42 294.5t121 219t191 137.5t253 47q236 0 348 -121t112 -340q0 -152 -39.5 -274.5t-116.5 -210.5t-190.5 -135.5t-259.5 -47.5q-244 0 -352.5 115t-108.5 316zM330.5 1307.5q1.5 9.5 13.5 29.5q57 92 130 145.5t165 53.5q39 0 74 -14.5t66.5 -31.5 t64.5 -31.5t67 -14.5q27 0 51.5 20.5t59.5 61.5q18 23 23.5 26.5t23.5 -6.5l94 -47q23 -12 27 -21.5t-12 -37.5q-113 -217 -291 -217q-37 0 -72 14t-68.5 30.5t-66.5 31t-66 14.5q-57 0 -110 -66q-16 -20 -27.5 -26.5t-38.5 10.5l-82 51q-27 16 -25.5 25.5zM483 455 q0 -86 31 -124t90 -38q84 0 136.5 91t52.5 245q0 162 -119 162q-84 0 -137.5 -84t-53.5 -252z" />
<glyph unicode="&#xf6;" horiz-adv-x="1228" d="M104 408q0 166 42 294.5t121 219t191 137.5t253 47q236 0 348 -121t112 -340q0 -152 -39.5 -274.5t-116.5 -210.5t-190.5 -135.5t-259.5 -47.5q-244 0 -352.5 115t-108.5 316zM365 1354q0 41 16 77.5t44 64.5t63.5 43t72.5 15q63 0 105.5 -44t42.5 -109q0 -37 -17.5 -73 t-45.5 -62.5t-62.5 -43t-71.5 -16.5q-61 0 -104 43t-43 105zM483 455q0 -86 31 -124t90 -38q84 0 136.5 91t52.5 245q0 162 -119 162q-84 0 -137.5 -84t-53.5 -252zM805 1354q0 41 16.5 77.5t44 64.5t63.5 43t75 15q61 0 102 -43t41 -108q0 -39 -16.5 -74t-44 -62.5 t-62.5 -44t-70 -16.5q-66 0 -107.5 43t-41.5 105z" />
<glyph unicode="&#xf7;" horiz-adv-x="1384" d="M209 604l29 199q4 29 14 36t35 7h944q23 0 31 -8.5t4 -36.5l-27 -191q-6 -49 -51 -49h-938q-23 0 -34 9.5t-7 33.5zM479 240q0 45 19.5 87t51.5 72.5t74 49t87 18.5q78 0 127 -48t49 -120q0 -47 -18.5 -89t-51.5 -73t-75 -49t-89 -18q-76 0 -125 48t-49 122zM600 1102 q0 45 19.5 87t51 72.5t73.5 49t87 18.5q78 0 127.5 -48t49.5 -120q0 -47 -18.5 -89t-51.5 -72.5t-75 -49t-89 -18.5q-76 0 -125 48t-49 122z" />
<glyph unicode="&#xf8;" horiz-adv-x="1228" d="M58 12q5 8 12 17l108 104q-39 53 -56.5 122t-17.5 153q0 166 42 294.5t121 219t191 137.5t253 47q229 0 344 -119l100 98q14 12 19.5 13.5t15.5 -8.5l20 -21q10 -12 11.5 -18.5t-11.5 -18.5l-108 -104q70 -109 69 -283q0 -152 -39.5 -274.5t-116.5 -210.5t-190.5 -135.5 t-259.5 -47.5q-225 0 -338 101l-106 -103q-10 -10 -18.5 -13t-18.5 7l-21 23q-10 12 -5 20zM483 432l295 287q-24 72 -104 72q-84 0 -137.5 -84t-53.5 -252v-23zM504 346q26 -53 100 -53q84 0 135.5 90t53.5 244z" />
<glyph unicode="&#xf9;" horiz-adv-x="1253" d="M144.5 260q-17.5 102 5.5 254l71 520q4 25 12.5 33t40.5 8h269q47 0 41 -41l-78 -555q-6 -53 -6 -92t14 -64.5t46 -39t85 -13.5q18 0 50 2t59 7l104 755q4 25 12.5 33t42.5 8h265q45 0 39 -41l-123 -874q-8 -66 -34 -106t-97 -56q-20 -4 -61.5 -9t-88.5 -8.5t-94 -5.5 t-80 -2q-154 0 -257 28t-161.5 92.5t-76 166.5zM367 1556.5q0 12.5 14 20.5l225 131q23 10 31 7t16 -19l232 -387q12 -18 6 -28.5t-21 -20.5l-116 -74q-12 -10 -22.5 -10t-24.5 14l-330 346q-10 8 -10 20.5z" />
<glyph unicode="&#xfa;" horiz-adv-x="1253" d="M144.5 260q-17.5 102 5.5 254l71 520q4 25 12.5 33t40.5 8h269q47 0 41 -41l-78 -555q-6 -53 -6 -92t14 -64.5t46 -39t85 -13.5q18 0 50 2t59 7l104 755q4 25 12.5 33t42.5 8h265q45 0 39 -41l-123 -874q-8 -66 -34 -106t-97 -56q-20 -4 -61.5 -9t-88.5 -8.5t-94 -5.5 t-80 -2q-154 0 -257 28t-161.5 92.5t-76 166.5zM607.5 1222.5q-5.5 8.5 6.5 30.5l195 383q8 16 17.5 22.5t31.5 2.5l240 -62q16 -4 19 -16t-7 -22l-299 -381q-10 -18 -20.5 -20.5t-26.5 1.5l-137 49q-14 4 -19.5 12.5z" />
<glyph unicode="&#xfb;" horiz-adv-x="1253" d="M144.5 260q-17.5 102 5.5 254l71 520q4 25 12.5 33t40.5 8h269q47 0 41 -41l-78 -555q-6 -53 -6 -92t14 -64.5t46 -39t85 -13.5q18 0 50 2t59 7l104 755q4 25 12.5 33t42.5 8h265q45 0 39 -41l-123 -874q-8 -66 -34 -106t-97 -56q-20 -4 -61.5 -9t-88.5 -8.5t-94 -5.5 t-80 -2q-154 0 -257 28t-161.5 92.5t-76 166.5zM300 1251.5q3 12.5 19 30.5l297 289q39 35 81 57.5t77 22.5q57 0 90 -19.5t62 -60.5l233 -287q14 -18 10 -31.5t-24 -31.5l-74 -64q-18 -14 -32.5 -13t-32.5 17l-246 211l-311 -235q-18 -12 -30.5 -10.5t-29.5 18.5l-78 76 q-14 18 -11 30.5z" />
<glyph unicode="&#xfc;" horiz-adv-x="1253" d="M144.5 260q-17.5 102 5.5 254l71 520q4 25 12.5 33t40.5 8h269q47 0 41 -41l-78 -555q-6 -53 -6 -92t14 -64.5t46 -39t85 -13.5q18 0 50 2t59 7l104 755q4 25 12.5 33t42.5 8h265q45 0 39 -41l-123 -874q-8 -66 -34 -106t-97 -56q-20 -4 -61.5 -9t-88.5 -8.5t-94 -5.5 t-80 -2q-154 0 -257 28t-161.5 92.5t-76 166.5zM379 1358q0 41 16.5 78t44 64.5t63 43t72.5 15.5q63 0 105.5 -44.5t42.5 -109.5q0 -37 -17.5 -73t-45 -62.5t-62.5 -43t-72 -16.5q-61 0 -104 43t-43 105zM819 1358q0 41 16.5 78t44 64.5t63.5 43t75 15.5q61 0 102 -43 t41 -109q0 -39 -16.5 -74t-44 -62.5t-62 -44t-69.5 -16.5q-66 0 -108 43t-42 105z" />
<glyph unicode="&#xfd;" horiz-adv-x="1200" d="M47 -401.5q-4 10.5 2 39.5l47 196q6 29 17.5 30t38.5 -3q31 -4 52 -6t42 -2q35 0 58.5 4t42 16t33.5 34.5t34 61.5l43 90h-62q-53 0 -68.5 20.5t-25.5 72.5l-182 874q-8 29 5 38t32 9h280q41 0 54.5 -7t17.5 -40l35 -344l37 -340h12l137 348l129 328q14 33 27.5 44 t54.5 11h317q43 0 21 -39l-580 -1218q-29 -61 -62.5 -110.5t-78.5 -83.5t-103.5 -52.5t-138.5 -18.5q-51 0 -111.5 7.5t-125.5 23.5q-27 6 -31 16.5zM558.5 1222.5q-5.5 8.5 6.5 30.5l195 383q8 16 17 22.5t32 2.5l240 -62q16 -4 19 -16t-7 -22l-299 -381 q-10 -18 -20.5 -20.5t-26.5 1.5l-137 49q-14 4 -19.5 12.5z" />
<glyph unicode="&#xfe;" horiz-adv-x="1257" d="M23 -385l251 1794q6 47 54 47h266q35 0 40 -12t1 -37l-47 -320q35 4 69.5 6.5t69.5 2.5q137 0 227 -34t143.5 -95.5t75 -144.5t21.5 -181q0 -135 -34 -254t-102.5 -209t-173 -142t-243.5 -52q-66 0 -106.5 5t-94.5 15l-57 -389q-4 -25 -11 -31t-42 -6h-267q-25 0 -35 7 t-5 30zM483 317q35 -10 70 -13t53 -3q92 0 153.5 80t61.5 233q0 96 -43 131t-121 35q-16 0 -49 -3t-61 -11z" />
<glyph unicode="&#xff;" horiz-adv-x="1200" d="M47 -401.5q-4 10.5 2 39.5l47 196q6 29 17.5 30t38.5 -3q31 -4 52 -6t42 -2q35 0 58.5 4t42 16t33.5 34.5t34 61.5l43 90h-62q-53 0 -68.5 20.5t-25.5 72.5l-182 874q-8 29 5 38t32 9h280q41 0 54.5 -7t17.5 -40l35 -344l37 -340h12l137 348l129 328q14 33 27.5 44 t54.5 11h317q43 0 21 -39l-580 -1218q-29 -61 -62.5 -110.5t-78.5 -83.5t-103.5 -52.5t-138.5 -18.5q-51 0 -111.5 7.5t-125.5 23.5q-27 6 -31 16.5zM326 1348q0 41 16 77.5t44 64.5t63.5 43t72.5 15q63 0 105.5 -44t42.5 -109q0 -37 -17.5 -73t-45 -62.5t-62.5 -43 t-72 -16.5q-61 0 -104 43t-43 105zM766 1348q0 41 16.5 77.5t44 64.5t63.5 43t75 15q61 0 102 -43t41 -108q0 -39 -16.5 -74t-44 -62.5t-62.5 -44t-70 -16.5q-66 0 -107.5 43t-41.5 105z" />
<glyph unicode="&#x100;" horiz-adv-x="1339" d="M-24.5 11.5q-4.5 11.5 1.5 27.5l570 1268q37 82 79 105.5t107 23.5h162q35 0 61.5 -3t46 -15.5t33 -38t19.5 -70.5l213 -1270q2 -10 -2 -24.5t-27 -14.5h-295q-23 0 -38 6t-19 29l-31 246h-391l-98 -236q-12 -23 -23.5 -34t-46.5 -11h-299q-18 0 -22.5 11.5zM461 1604 l22 151q4 35 16.5 42t37.5 7h577q23 0 33 -7t6 -42l-23 -151q-6 -47 -51 -48h-577q-47 0 -41 48zM592 584h225l-14 159l-23 295h-16l-111 -301z" />
<glyph unicode="&#x101;" horiz-adv-x="1241" d="M104 391q0 332 143.5 519.5t432.5 187.5q78 0 202 -9.5t269 -50.5q35 -10 40 -26.5t1 -38.5q-37 -227 -65.5 -443.5t-53.5 -439.5q-4 -16 -9 -24.5t-22 -14.5q-68 -25 -140.5 -40t-138 -23t-122.5 -10.5t-94 -2.5q-133 0 -219 31t-135.5 86t-69 132t-19.5 167zM393 1300 l23 152q4 35 16 42t37 7h578q23 0 33 -7t5 -42l-22 -152q-6 -47 -51 -47h-578q-47 0 -41 47zM481 457q0 -92 36 -131t106 -39q18 0 55 4t65 14q12 100 19.5 152.5t12.5 93.5t12.5 90t23.5 141q-27 8 -55.5 11.5t-44.5 3.5q-96 0 -163 -81t-67 -259z" />
<glyph unicode="&#x102;" horiz-adv-x="1339" d="M-24.5 11.5q-4.5 11.5 1.5 27.5l570 1268q37 82 79 105.5t107 23.5h162q35 0 61.5 -3t46 -15.5t33 -38t19.5 -70.5l213 -1270q2 -10 -2 -24.5t-27 -14.5h-295q-23 0 -38 6t-19 29l-31 246h-391l-98 -236q-12 -23 -23.5 -34t-46.5 -11h-299q-18 0 -22.5 11.5zM420 1772.5 q-2 11.5 16 27.5l123 111q23 14 29 10t20 -16q113 -141 232 -142q25 0 50 3t58 17.5t74 43t96 80.5q23 16 30 15t17 -11l88 -94q18 -18 14.5 -28.5t-12.5 -19.5q-117 -133 -227.5 -199.5t-239.5 -66.5q-66 0 -121 21.5t-100 56.5t-80.5 80t-60.5 94q-4 6 -6 17.5zM592 584 h225l-14 159l-23 295h-16l-111 -301z" />
<glyph unicode="&#x103;" horiz-adv-x="1241" d="M104 391q0 332 143.5 519.5t432.5 187.5q78 0 202 -9.5t269 -50.5q35 -10 40 -26.5t1 -38.5q-37 -227 -65.5 -443.5t-53.5 -439.5q-4 -16 -9 -24.5t-22 -14.5q-68 -25 -140.5 -40t-138 -23t-122.5 -10.5t-94 -2.5q-133 0 -219 31t-135.5 86t-69 132t-19.5 167z M317.5 1440.5q-2.5 11.5 16.5 27.5l123 111q23 14 29 10t20 -16q113 -141 231 -141q25 0 50.5 3t58.5 17t74 43t96 80q23 16 30 15t17 -11l88 -94q18 -18 14 -28.5t-12 -18.5q-117 -133 -227.5 -200t-239.5 -67q-66 0 -121 21.5t-100 56.5t-81 80t-60 94q-4 6 -6.5 17.5z M481 457q0 -92 36 -131t106 -39q18 0 55 4t65 14q12 100 19.5 152.5t12.5 93.5t12.5 90t23.5 141q-27 8 -55.5 11.5t-44.5 3.5q-96 0 -163 -81t-67 -259z" />
<glyph unicode="&#x104;" horiz-adv-x="1339" d="M-24.5 11.5q-4.5 11.5 1.5 27.5l570 1268q37 82 79 105.5t107 23.5h162q35 0 61.5 -3t46 -15.5t33 -38t19.5 -70.5l213 -1270q2 -10 -2 -24.5t-27 -14.5h-174q-84 -70 -115.5 -124t-31.5 -105q0 -74 96 -74q27 0 65.5 3t67.5 9q20 4 30.5 1t10.5 -21l22 -101 q6 -33 -26 -45q-86 -35 -161 -43t-138 -8q-117 0 -174.5 49t-57.5 123q0 37 17.5 84t48.5 96.5t74 96.5t96 84q-2 2 -2 10l-31 246h-391l-98 -236q-12 -23 -23.5 -34t-46.5 -11h-299q-18 0 -22.5 11.5zM592 584h225l-14 159l-23 295h-16l-111 -301z" />
<glyph unicode="&#x105;" horiz-adv-x="1241" d="M104 391q0 332 143.5 519.5t432.5 187.5q78 0 202 -9.5t269 -50.5q35 -10 40 -26.5t1 -38.5q-37 -227 -65.5 -443.5t-53.5 -439.5q-4 -16 -9 -24.5t-22 -14.5q-23 -8 -44 -15t-44 -13q-51 -51 -71.5 -94.5t-20.5 -84.5q0 -74 96 -73q27 0 66 3t68 9q20 4 30.5 1t10.5 -22 l22 -100q6 -33 -27 -45q-86 -35 -161 -43t-138 -8q-117 0 -174 49t-57 123q0 47 29.5 113.5t83.5 132.5q-51 -4 -93.5 -6.5t-70.5 -2.5q-133 0 -219 31t-135.5 86t-69 132t-19.5 167zM481 457q0 -92 36 -131t106 -39q18 0 55 4t65 14q12 100 19.5 152.5t12.5 93.5t12.5 90 t23.5 141q-27 8 -55.5 11.5t-44.5 3.5q-96 0 -163 -81t-67 -259z" />
<glyph unicode="&#x106;" horiz-adv-x="1333" d="M150 563q0 211 55 377t152.5 279.5t232.5 174t295 60.5q117 0 218 -21.5t185 -68.5q31 -16 29 -34.5t-19 -53.5l-71 -168q-16 -41 -31.5 -47t-50.5 6q-37 12 -69 21.5t-60.5 15.5t-59 8t-67.5 2q-68 0 -129.5 -29.5t-108.5 -92t-74.5 -160t-27.5 -232.5q0 -137 52 -206.5 t181 -69.5q102 0 177 24.5t141 48.5q33 12 42 7t23 -37l80 -189q12 -29 6 -44t-28 -28q-129 -74 -252 -101.5t-252 -27.5q-154 0 -262.5 43t-177 120t-99 185.5t-30.5 237.5zM664 1660.5q-2 10.5 18 27.5l377 288q16 12 26.5 13.5t26.5 -13.5l141 -180q12 -10 8 -23.5 t-16 -17.5l-438 -235q-18 -10 -27.5 -7t-19.5 13l-86 114q-8 10 -10 20.5z" />
<glyph unicode="&#x107;" horiz-adv-x="1060" d="M109 434q0 178 40.5 305t114.5 208t177.5 120t228.5 39q84 0 171 -17.5t152 -46.5q23 -10 28 -22t-5 -43l-66 -207q-10 -31 -28.5 -29t-49.5 9q-57 10 -103 17t-77 7q-109 0 -157 -79t-48 -214q0 -80 31 -124t121 -44q61 0 119.5 12.5t107.5 26.5q23 6 36 6t18 -28 l65 -203q4 -23 4 -36t-33 -30q-49 -25 -103 -41t-107.5 -25t-103.5 -13.5t-91 -4.5q-442 0 -442 457zM519.5 1237q-5.5 8 6.5 31l195 383q8 16 17.5 22t31.5 2l240 -61q16 -4 19 -16.5t-7 -22.5l-299 -381q-10 -18 -20.5 -20.5t-26.5 2.5l-137 49q-14 4 -19.5 12z" />
<glyph unicode="&#x108;" horiz-adv-x="1333" d="M150 563q0 211 55 377t152.5 279.5t232.5 174t295 60.5q117 0 218 -21.5t185 -68.5q31 -16 29 -34.5t-19 -53.5l-71 -168q-16 -41 -31.5 -47t-50.5 6q-37 12 -69 21.5t-60.5 15.5t-59 8t-67.5 2q-68 0 -129.5 -29.5t-108.5 -92t-74.5 -160t-27.5 -232.5q0 -137 52 -206.5 t181 -69.5q102 0 177 24.5t141 48.5q33 12 42 7t23 -37l80 -189q12 -29 6 -44t-28 -28q-129 -74 -252 -101.5t-252 -27.5q-154 0 -262.5 43t-177 120t-99 185.5t-30.5 237.5zM465 1611.5q4 12.5 20 30.5l291 248q39 33 82 54.5t78 21.5q47 0 80 -20.5t67 -55.5l238 -245 q16 -18 13 -32t-25 -32l-72 -74q-14 -18 -28.5 -17t-37.5 17l-274 181l-303 -175q-20 -12 -31.5 -13t-27.5 18l-58 63q-16 18 -12 30.5z" />
<glyph unicode="&#x109;" horiz-adv-x="1060" d="M109 434q0 178 40.5 305t114.5 208t177.5 120t228.5 39q84 0 171 -17.5t152 -46.5q23 -10 28 -22t-5 -43l-66 -207q-10 -31 -28.5 -29t-49.5 9q-57 10 -103 17t-77 7q-109 0 -157 -79t-48 -214q0 -80 31 -124t121 -44q61 0 119.5 12.5t107.5 26.5q23 6 36 6t18 -28 l65 -203q4 -23 4 -36t-33 -30q-49 -25 -103 -41t-107.5 -25t-103.5 -13.5t-91 -4.5q-442 0 -442 457zM233 1251.5q3 12.5 19 30.5l297 289q39 35 81 57.5t77 22.5q57 0 89.5 -19.5t61.5 -60.5l234 -287q14 -18 10 -31.5t-25 -31.5l-73 -64q-18 -14 -33 -13t-33 17l-246 211 l-311 -235q-18 -12 -30.5 -10.5t-28.5 18.5l-78 76q-14 18 -11 30.5z" />
<glyph unicode="&#x10a;" horiz-adv-x="1333" d="M150 563q0 211 55 377t152.5 279.5t232.5 174t295 60.5q117 0 218 -21.5t185 -68.5q31 -16 29 -34.5t-19 -53.5l-71 -168q-16 -41 -31.5 -47t-50.5 6q-37 12 -69 21.5t-60.5 15.5t-59 8t-67.5 2q-68 0 -129.5 -29.5t-108.5 -92t-74.5 -160t-27.5 -232.5q0 -137 52 -206.5 t181 -69.5q102 0 177 24.5t141 48.5q33 12 42 7t23 -37l80 -189q12 -29 6 -44t-28 -28q-129 -74 -252 -101.5t-252 -27.5q-154 0 -262.5 43t-177 120t-99 185.5t-30.5 237.5zM672 1679q0 47 18.5 88t49 72t70.5 48.5t83 17.5q74 0 121 -47.5t47 -120.5q0 -47 -19.5 -88 t-50 -71t-70.5 -47.5t-83 -17.5q-72 0 -119 46.5t-47 119.5z" />
<glyph unicode="&#x10b;" horiz-adv-x="1060" d="M109 434q0 178 40.5 305t114.5 208t177.5 120t228.5 39q84 0 171 -17.5t152 -46.5q23 -10 28 -22t-5 -43l-66 -207q-10 -31 -28.5 -29t-49.5 9q-57 10 -103 17t-77 7q-109 0 -157 -79t-48 -214q0 -80 31 -124t121 -44q61 0 119.5 12.5t107.5 26.5q23 6 36 6t18 -28 l65 -203q4 -23 4 -36t-33 -30q-49 -25 -103 -41t-107.5 -25t-103.5 -13.5t-91 -4.5q-442 0 -442 457zM487 1354q0 47 18.5 88t49.5 71.5t71 48t83 17.5q74 0 121 -47t47 -121q0 -47 -19.5 -88t-50.5 -70.5t-71 -47t-83 -17.5q-72 0 -119 46t-47 120z" />
<glyph unicode="&#x10c;" horiz-adv-x="1333" d="M150 563q0 211 55 377t152.5 279.5t232.5 174t295 60.5q117 0 218 -21.5t185 -68.5q31 -16 29 -34.5t-19 -53.5l-71 -168q-16 -41 -31.5 -47t-50.5 6q-37 12 -69 21.5t-60.5 15.5t-59 8t-67.5 2q-68 0 -129.5 -29.5t-108.5 -92t-74.5 -160t-27.5 -232.5q0 -137 52 -206.5 t181 -69.5q102 0 177 24.5t141 48.5q33 12 42 7t23 -37l80 -189q12 -29 6 -44t-28 -28q-129 -74 -252 -101.5t-252 -27.5q-154 0 -262.5 43t-177 120t-99 185.5t-30.5 237.5zM476 1857.5q-1 12.5 22 30.5l73 64q20 18 33.5 17t30.5 -13l254 -174l323 180q27 16 41.5 17 t24.5 -17l51 -74q16 -18 16.5 -31.5t-20.5 -31.5l-307 -246q-45 -35 -83 -55.5t-85 -20.5q-37 0 -74 21.5t-65 54.5l-222 248q-12 18 -13 30.5z" />
<glyph unicode="&#x10d;" horiz-adv-x="1060" d="M109 434q0 178 40.5 305t114.5 208t177.5 120t228.5 39q84 0 171 -17.5t152 -46.5q23 -10 28 -22t-5 -43l-66 -207q-10 -31 -28.5 -29t-49.5 9q-57 10 -103 17t-77 7q-109 0 -157 -79t-48 -214q0 -80 31 -124t121 -44q61 0 119.5 12.5t107.5 26.5q23 6 36 6t18 -28 l65 -203q4 -23 4 -36t-33 -30q-49 -25 -103 -41t-107.5 -25t-103.5 -13.5t-91 -4.5q-442 0 -442 457zM258 1560.5q0 12.5 21 30.5l79 66q23 16 35.5 16t26.5 -12l244 -211l319 211q25 16 38 15t28 -15l63 -70q14 -18 14 -31.5t-20 -31.5l-311 -287q-41 -41 -80 -60.5 t-97 -19.5q-35 0 -70.5 22.5t-62.5 57.5l-217 289q-10 18 -10 30.5z" />
<glyph unicode="&#x10e;" horiz-adv-x="1404" d="M117 135l164 1163q10 68 36.5 102t110.5 34h365q162 0 269 -48.5t171.5 -128t90.5 -184t26 -219.5q0 -90 -13.5 -187.5t-46.5 -192.5t-86 -181t-133 -150.5t-190.5 -103.5t-253.5 -39h-400q-84 0 -102.5 31.5t-7.5 103.5zM368 1857.5q-1 12.5 21 30.5l74 64 q20 18 33.5 17t29.5 -13l254 -174l324 180q27 16 41 17t24 -17l52 -74q16 -18 16 -31.5t-20 -31.5l-308 -246q-45 -35 -83 -55.5t-85 -20.5q-37 0 -73.5 21.5t-65.5 54.5l-221 248q-12 18 -13 30.5zM518 336h88q100 0 169 41t111 107.5t60.5 152.5t18.5 178 q0 63 -12.5 116.5t-42 91.5t-79 58.5t-124.5 20.5h-82z" />
<glyph unicode="&#x10f;" horiz-adv-x="1640" d="M106 422q0 160 37 288t109 216t175 135t239 47q66 0 106.5 -5t93.5 -16l54 363q4 27 15 36t42 9h260q27 0 37 -8t6 -37l-180 -1309q-4 -25 -12.5 -43t-40.5 -35q-100 -47 -223.5 -66.5t-237.5 -19.5q-137 0 -229.5 34t-147.5 93.5t-79 140.5t-24 177zM483 461 q0 -86 43 -127t121 -41q16 0 49 3t62 11l65 467q-35 10 -70 13.5t-53 3.5q-35 0 -72.5 -15.5t-69.5 -52.5t-53.5 -100.5t-21.5 -161.5zM1393 989l86 420q4 20 13 33.5t38 13.5h223q31 0 34 -15.5t-3 -31.5l-193 -418q-10 -23 -19 -32t-32 -9h-106q-49 0 -41 39z" />
<glyph unicode="&#x110;" horiz-adv-x="1404" d="M74 666l16 120q6 35 18.5 42.5t36.5 7.5h70l66 462q10 68 36.5 102t110.5 34h365q162 0 269 -48.5t171.5 -128t90.5 -184t26 -219.5q0 -90 -13.5 -187.5t-46.5 -192.5t-86 -181t-133 -150.5t-190.5 -103.5t-253.5 -39h-400q-84 0 -102.5 31.5t-7.5 103.5l67 483h-69 q-47 0 -41 48zM518 336h88q100 0 169 41t111 107.5t60.5 152.5t18.5 178q0 63 -12.5 116.5t-42 91.5t-79 58.5t-124.5 20.5h-82l-37 -266h180q25 0 35 -7.5t4 -42.5l-16 -120q-6 -47 -54 -48h-180z" />
<glyph unicode="&#x111;" horiz-adv-x="1257" d="M102 399q0 147 36 267t105.5 205t173 130.5t238.5 45.5q66 0 108 -5.5t95 -15.5l21 154h-269q-20 0 -22 10t2 37l8 57q4 35 8 42t27 7h268l17 117q4 27 15 36t42 9h262q27 0 37 -8t6 -37l-16 -117h61q25 0 29 -7t0 -42l-8 -57q-4 -27 -12.5 -37t-30.5 -10h-62l-145 -1039 q-4 -25 -12.5 -43t-41.5 -35q-49 -23 -108.5 -39t-121.5 -26t-125 -15.5t-120 -5.5q-135 0 -225 32t-143.5 87.5t-75 133t-21.5 169.5zM479 438q0 -86 45 -115.5t123 -29.5q16 0 49 3t62 11l55 406q-35 10 -69 13t-52 3q-88 0 -150.5 -71.5t-62.5 -219.5z" />
<glyph unicode="&#x112;" horiz-adv-x="1255" d="M147.5 252q-6.5 70 4.5 137l92 655q10 74 34.5 145t71.5 125t122 87t185 33h600q25 0 31 -7.5t2 -42.5l-33 -231q-4 -27 -13 -36t-32 -9h-464q-39 0 -65 -11.5t-40 -27.5t-21.5 -36.5t-9.5 -41.5l-12 -86h533q25 0 28.5 -8t-0.5 -43l-31 -213q-4 -27 -12 -37t-31 -10 h-532l-20 -154q-6 -39 0 -61.5t20 -33.5t35.5 -14t46.5 -3h518q23 0 29 -7.5t2 -41.5l-33 -232q-8 -47 -43 -47h-629q-119 0 -188.5 35t-104 91t-41 126zM518 1618l23 151q4 35 16 42.5t37 7.5h577q23 0 33 -7.5t6 -42.5l-22 -151q-6 -47 -51 -47h-578q-47 0 -41 47z" />
<glyph unicode="&#x113;" horiz-adv-x="1177" d="M102 397q0 346 157 527.5t439 181.5q86 0 166 -15.5t140.5 -52.5t96.5 -98t36 -154q0 -182 -127 -275t-367 -93q-37 0 -77 2t-81 6q0 -8 -1 -14t-1 -15q0 -37 12.5 -59.5t34 -32.5t52 -13t69.5 -3q51 0 101.5 11t113.5 32q29 10 38 6t16 -21l77 -192q6 -20 -2 -30.5 t-24 -20.5q-41 -25 -96.5 -43.5t-116 -30.5t-116.5 -17.5t-99 -5.5q-123 0 -207 28t-136.5 81t-75 131t-22.5 180zM391 1286l23 152q4 35 16 42t37 7h577q23 0 33 -7t6 -42l-22 -152q-6 -47 -51 -47h-578q-47 0 -41 47zM518 645q12 -2 23.5 -2h25.5q119 0 160 25.5t41 74.5 q0 27 -18.5 48.5t-69.5 21.5q-63 0 -105.5 -40t-56.5 -128z" />
<glyph unicode="&#x114;" horiz-adv-x="1255" d="M147.5 252q-6.5 70 4.5 137l92 655q10 74 34.5 145t71.5 125t122 87t185 33h600q25 0 31 -7.5t2 -42.5l-33 -231q-4 -27 -13 -36t-32 -9h-464q-39 0 -65 -11.5t-40 -27.5t-21.5 -36.5t-9.5 -41.5l-12 -86h533q25 0 28.5 -8t-0.5 -43l-31 -213q-4 -27 -12 -37t-31 -10 h-532l-20 -154q-6 -39 0 -61.5t20 -33.5t35.5 -14t46.5 -3h518q23 0 29 -7.5t2 -41.5l-33 -232q-8 -47 -43 -47h-629q-119 0 -188.5 35t-104 91t-41 126zM428 1758q-2 11 16 28l123 110q23 14 29 10.5t20 -16.5q113 -141 232 -141q25 0 50.5 3t58 17.5t73.5 43t96 79.5 q23 16 30 15.5t18 -11.5l88 -94q18 -18 14 -28.5t-12 -18.5q-117 -133 -227.5 -199.5t-239.5 -66.5q-66 0 -121 21.5t-100.5 56.5t-81 80t-60.5 94q-4 6 -6 17z" />
<glyph unicode="&#x115;" horiz-adv-x="1177" d="M102 397q0 346 157 527.5t439 181.5q86 0 166 -15.5t140.5 -52.5t96.5 -98t36 -154q0 -182 -127 -275t-367 -93q-37 0 -77 2t-81 6q0 -8 -1 -14t-1 -15q0 -37 12.5 -59.5t34 -32.5t52 -13t69.5 -3q51 0 101.5 11t113.5 32q29 10 38 6t16 -21l77 -192q6 -20 -2 -30.5 t-24 -20.5q-41 -25 -96.5 -43.5t-116 -30.5t-116.5 -17.5t-99 -5.5q-123 0 -207 28t-136.5 81t-75 131t-22.5 180zM315.5 1440.5q-2.5 11.5 16.5 27.5l123 111q23 14 28.5 10t20.5 -16q113 -141 231 -141q25 0 50.5 3t58.5 17t73.5 43t96.5 80q23 16 30 15t17 -11l88 -94 q18 -18 14 -28.5t-12 -18.5q-117 -133 -227.5 -200t-239.5 -67q-66 0 -121 21.5t-100 56.5t-81 80t-60 94q-4 6 -6.5 17.5zM518 645q12 -2 23.5 -2h25.5q119 0 160 25.5t41 74.5q0 27 -18.5 48.5t-69.5 21.5q-63 0 -105.5 -40t-56.5 -128z" />
<glyph unicode="&#x116;" horiz-adv-x="1255" d="M147.5 252q-6.5 70 4.5 137l92 655q10 74 34.5 145t71.5 125t122 87t185 33h600q25 0 31 -7.5t2 -42.5l-33 -231q-4 -27 -13 -36t-32 -9h-464q-39 0 -65 -11.5t-40 -27.5t-21.5 -36.5t-9.5 -41.5l-12 -86h533q25 0 28.5 -8t-0.5 -43l-31 -213q-4 -27 -12 -37t-31 -10 h-532l-20 -154q-6 -39 0 -61.5t20 -33.5t35.5 -14t46.5 -3h518q23 0 29 -7.5t2 -41.5l-33 -232q-8 -47 -43 -47h-629q-119 0 -188.5 35t-104 91t-41 126zM657 1673q0 47 18.5 88t49.5 72t71 48t83 17q74 0 121 -47t47 -120q0 -47 -19.5 -88t-50.5 -71t-71 -47.5t-83 -17.5 q-72 0 -119 46t-47 120z" />
<glyph unicode="&#x117;" horiz-adv-x="1177" d="M102 397q0 346 157 527.5t439 181.5q86 0 166 -15.5t140.5 -52.5t96.5 -98t36 -154q0 -182 -127 -275t-367 -93q-37 0 -77 2t-81 6q0 -8 -1 -14t-1 -15q0 -37 12.5 -59.5t34 -32.5t52 -13t69.5 -3q51 0 101.5 11t113.5 32q29 10 38 6t16 -21l77 -192q6 -20 -2 -30.5 t-24 -20.5q-41 -25 -96.5 -43.5t-116 -30.5t-116.5 -17.5t-99 -5.5q-123 0 -207 28t-136.5 81t-75 131t-22.5 180zM518 645q12 -2 23.5 -2h25.5q119 0 160 25.5t41 74.5q0 27 -18.5 48.5t-69.5 21.5q-63 0 -105.5 -40t-56.5 -128zM561 1354q0 47 18.5 88t49 71.5t70.5 48 t83 17.5q74 0 121 -47t47 -121q0 -47 -19.5 -88t-50 -70.5t-70.5 -47t-83 -17.5q-72 0 -119 46t-47 120z" />
<glyph unicode="&#x118;" horiz-adv-x="1255" d="M147.5 252q-6.5 70 4.5 137l92 655q10 74 34.5 145t71.5 125t122 87t185 33h600q25 0 31 -7.5t2 -42.5l-33 -231q-4 -27 -13 -36t-32 -9h-464q-39 0 -65 -11.5t-40 -27.5t-21.5 -36.5t-9.5 -41.5l-12 -86h533q25 0 28.5 -8t-0.5 -43l-31 -213q-4 -27 -12 -37t-31 -10 h-532l-20 -154q-6 -39 0 -61.5t20 -33.5t35.5 -14t46.5 -3h518q23 0 29 -7.5t2 -41.5l-33 -232q-8 -47 -43 -47h-18q-80 -66 -111 -120t-31 -103q0 -74 97 -74q27 0 65.5 3t67.5 9q20 4 30.5 1t10.5 -21l22 -101q6 -33 -26 -45q-86 -35 -161 -43t-138 -8q-117 0 -174.5 49.5 t-57.5 122.5q0 33 14.5 74t40 86t61.5 89t81 81h-402q-119 0 -188.5 35t-104 91t-41 126z" />
<glyph unicode="&#x119;" horiz-adv-x="1177" d="M102 397q0 346 157 527.5t439 181.5q86 0 166 -15.5t140.5 -52.5t96.5 -98t36 -154q0 -182 -127 -275t-367 -93q-37 0 -77 2t-81 6q0 -8 -1 -14t-1 -15q0 -37 12.5 -59.5t34 -32.5t52 -13t69.5 -3q51 0 101.5 11t113.5 32q29 10 38 6t16 -21l77 -192q6 -20 -2 -30.5 t-24 -20.5t-38 -20.5t-44 -18.5q-68 -61 -95.5 -110.5t-27.5 -96.5q0 -74 96 -74q27 0 66 3t67 10q20 4 30.5 0.5t10.5 -21.5l23 -100q6 -33 -27 -45q-86 -35 -161 -43.5t-138 -8.5q-117 0 -174 49.5t-57 122.5q0 51 32.5 123t92.5 138q-23 -2 -44.5 -3.5t-39.5 -1.5 q-123 0 -207 28t-136.5 81t-75 131t-22.5 180zM518 645q12 -2 23.5 -2h25.5q119 0 160 25.5t41 74.5q0 27 -18.5 48.5t-69.5 21.5q-63 0 -105.5 -40t-56.5 -128z" />
<glyph unicode="&#x11a;" horiz-adv-x="1255" d="M147.5 252q-6.5 70 4.5 137l92 655q10 74 34.5 145t71.5 125t122 87t185 33h600q25 0 31 -7.5t2 -42.5l-33 -231q-4 -27 -13 -36t-32 -9h-464q-39 0 -65 -11.5t-40 -27.5t-21.5 -36.5t-9.5 -41.5l-12 -86h533q25 0 28.5 -8t-0.5 -43l-31 -213q-4 -27 -12 -37t-31 -10 h-532l-20 -154q-6 -39 0 -61.5t20 -33.5t35.5 -14t46.5 -3h518q23 0 29 -7.5t2 -41.5l-33 -232q-8 -47 -43 -47h-629q-119 0 -188.5 35t-104 91t-41 126zM443.5 1857.5q-1.5 12.5 21.5 30.5l74 64q20 18 33.5 17t29.5 -13l254 -174l324 180q27 16 41 17t24 -17l51 -74 q16 -18 16.5 -31.5t-20.5 -31.5l-307 -246q-45 -35 -83 -55.5t-85 -20.5q-37 0 -73.5 21.5t-65.5 54.5l-221 248q-12 18 -13.5 30.5z" />
<glyph unicode="&#x11b;" horiz-adv-x="1177" d="M102 397q0 346 157 527.5t439 181.5q86 0 166 -15.5t140.5 -52.5t96.5 -98t36 -154q0 -182 -127 -275t-367 -93q-37 0 -77 2t-81 6q0 -8 -1 -14t-1 -15q0 -37 12.5 -59.5t34 -32.5t52 -13t69.5 -3q51 0 101.5 11t113.5 32q29 10 38 6t16 -21l77 -192q6 -20 -2 -30.5 t-24 -20.5q-41 -25 -96.5 -43.5t-116 -30.5t-116.5 -17.5t-99 -5.5q-123 0 -207 28t-136.5 81t-75 131t-22.5 180zM326 1560.5q0 12.5 20 30.5l80 66q23 16 35 16t26 -12l244 -211l320 211q25 16 38 15t27 -15l64 -70q14 -18 14 -31.5t-20 -31.5l-312 -287 q-41 -41 -80 -60.5t-96 -19.5q-35 0 -70.5 22.5t-62.5 57.5l-217 289q-10 18 -10 30.5zM518 645q12 -2 23.5 -2h25.5q119 0 160 25.5t41 74.5q0 27 -18.5 48.5t-69.5 21.5q-63 0 -105.5 -40t-56.5 -128z" />
<glyph unicode="&#x11c;" horiz-adv-x="1425" d="M150 563q0 211 58 377t159.5 279.5t239.5 174t298 60.5q117 0 218.5 -21.5t185.5 -68.5q31 -16 28.5 -34.5t-18.5 -53.5l-72 -168q-16 -41 -31.5 -47t-50.5 6q-37 12 -68.5 21.5t-60 15.5t-59.5 8t-68 2q-68 0 -132 -29.5t-115.5 -92t-82 -160t-30.5 -232.5 q0 -137 52 -206.5t181 -69.5q45 0 86 5t86 17l50 397q6 43 53 43h262q35 0 41 -9t2 -34l-66 -534q-4 -35 -17 -66.5t-60 -56.5q-68 -37 -140.5 -58.5t-141.5 -32.5t-126 -14.5t-92 -3.5q-154 0 -262.5 43t-177 120t-99 185.5t-30.5 237.5zM494 1611.5q4 12.5 20 30.5 l291 248q39 33 82 54.5t78 21.5q47 0 79.5 -20.5t67.5 -55.5l238 -245q16 -18 13 -32t-26 -32l-71 -74q-14 -18 -28.5 -17t-37.5 17l-274 181l-303 -175q-20 -12 -31.5 -13t-28.5 18l-57 63q-16 18 -12 30.5z" />
<glyph unicode="&#x11d;" horiz-adv-x="1257" d="M109 442q0 147 36.5 269.5t113.5 208.5t192.5 133t273.5 47q57 0 117.5 -5t119 -15.5t111.5 -27t96 -38.5q29 -16 36 -34.5t3 -43.5l-135 -942q-33 -221 -164 -337t-368 -116q-49 0 -101.5 5t-103.5 14.5t-100.5 23t-88.5 27.5q-31 14 -30.5 29.5t4.5 27.5l61 185 q8 23 20.5 29.5t43.5 -1.5q53 -14 115.5 -26.5t117.5 -12.5q63 0 105.5 10.5t69 34t42 62.5t23.5 98q-43 -12 -96.5 -19.5t-118.5 -7.5q-106 0 -181 30t-123 85t-69.5 133t-21.5 174zM351 1251.5q3 12.5 20 30.5l297 289q39 35 81 57.5t76 22.5q57 0 90 -19.5t62 -60.5 l233 -287q14 -18 10.5 -31.5t-24.5 -31.5l-74 -64q-18 -14 -32.5 -13t-32.5 17l-246 211l-311 -235q-18 -12 -30.5 -10.5t-29.5 18.5l-78 76q-14 18 -11 30.5zM481 487q0 -90 42 -119.5t114 -29.5q18 0 58 4t69 14l57 414q-25 8 -57.5 11t-48.5 3q-43 0 -85 -13t-75 -46 t-53.5 -91.5t-20.5 -146.5z" />
<glyph unicode="&#x11e;" horiz-adv-x="1425" d="M150 563q0 211 58 377t159.5 279.5t239.5 174t298 60.5q117 0 218.5 -21.5t185.5 -68.5q31 -16 28.5 -34.5t-18.5 -53.5l-72 -168q-16 -41 -31.5 -47t-50.5 6q-37 12 -68.5 21.5t-60 15.5t-59.5 8t-68 2q-68 0 -132 -29.5t-115.5 -92t-82 -160t-30.5 -232.5 q0 -137 52 -206.5t181 -69.5q45 0 86 5t86 17l50 397q6 43 53 43h262q35 0 41 -9t2 -34l-66 -534q-4 -35 -17 -66.5t-60 -56.5q-68 -37 -140.5 -58.5t-141.5 -32.5t-126 -14.5t-92 -3.5q-154 0 -262.5 43t-177 120t-99 185.5t-30.5 237.5zM469 1770.5q-2 11.5 16 27.5 l123 111q23 14 29 10t20 -16q113 -141 232 -142q25 0 50.5 3t58 17.5t73.5 43t96 80.5q23 16 30 15t17 -11l89 -94q18 -18 14 -28.5t-12 -19.5q-117 -133 -227.5 -199.5t-239.5 -66.5q-66 0 -121 21.5t-100.5 56.5t-81 80t-60.5 94q-4 6 -6 17.5z" />
<glyph unicode="&#x11f;" horiz-adv-x="1257" d="M109 442q0 147 36.5 269.5t113.5 208.5t192.5 133t273.5 47q57 0 117.5 -5t119 -15.5t111.5 -27t96 -38.5q29 -16 36 -34.5t3 -43.5l-135 -942q-33 -221 -164 -337t-368 -116q-49 0 -101.5 5t-103.5 14.5t-100.5 23t-88.5 27.5q-31 14 -30.5 29.5t4.5 27.5l61 185 q8 23 20.5 29.5t43.5 -1.5q53 -14 115.5 -26.5t117.5 -12.5q63 0 105.5 10.5t69 34t42 62.5t23.5 98q-43 -12 -96.5 -19.5t-118.5 -7.5q-106 0 -181 30t-123 85t-69.5 133t-21.5 174zM350 1440.5q-2 11.5 17 27.5l122 111q23 14 29 10t21 -16q113 -141 231 -141q25 0 50.5 3 t58 17t73.5 43t97 80q23 16 29.5 15t17.5 -11l88 -94q18 -18 14 -28.5t-12 -18.5q-117 -133 -227.5 -200t-239.5 -67q-66 0 -121 21.5t-100 56.5t-81 80t-61 94q-4 6 -6 17.5zM481 487q0 -90 42 -119.5t114 -29.5q18 0 58 4t69 14l57 414q-25 8 -57.5 11t-48.5 3 q-43 0 -85 -13t-75 -46t-53.5 -91.5t-20.5 -146.5z" />
<glyph unicode="&#x120;" horiz-adv-x="1425" d="M150 563q0 211 58 377t159.5 279.5t239.5 174t298 60.5q117 0 218.5 -21.5t185.5 -68.5q31 -16 28.5 -34.5t-18.5 -53.5l-72 -168q-16 -41 -31.5 -47t-50.5 6q-37 12 -68.5 21.5t-60 15.5t-59.5 8t-68 2q-68 0 -132 -29.5t-115.5 -92t-82 -160t-30.5 -232.5 q0 -137 52 -206.5t181 -69.5q45 0 86 5t86 17l50 397q6 43 53 43h262q35 0 41 -9t2 -34l-66 -534q-4 -35 -17 -66.5t-60 -56.5q-68 -37 -140.5 -58.5t-141.5 -32.5t-126 -14.5t-92 -3.5q-154 0 -262.5 43t-177 120t-99 185.5t-30.5 237.5zM696 1675q0 47 18.5 88t49.5 72 t71 48.5t83 17.5q74 0 120.5 -47.5t46.5 -120.5q0 -47 -19 -88t-50 -71t-71 -47.5t-83 -17.5q-72 0 -119 46.5t-47 119.5z" />
<glyph unicode="&#x121;" horiz-adv-x="1257" d="M109 442q0 147 36.5 269.5t113.5 208.5t192.5 133t273.5 47q57 0 117.5 -5t119 -15.5t111.5 -27t96 -38.5q29 -16 36 -34.5t3 -43.5l-135 -942q-33 -221 -164 -337t-368 -116q-49 0 -101.5 5t-103.5 14.5t-100.5 23t-88.5 27.5q-31 14 -30.5 29.5t4.5 27.5l61 185 q8 23 20.5 29.5t43.5 -1.5q53 -14 115.5 -26.5t117.5 -12.5q63 0 105.5 10.5t69 34t42 62.5t23.5 98q-43 -12 -96.5 -19.5t-118.5 -7.5q-106 0 -181 30t-123 85t-69.5 133t-21.5 174zM481 487q0 -90 42 -119.5t114 -29.5q18 0 58 4t69 14l57 414q-25 8 -57.5 11t-48.5 3 q-43 0 -85 -13t-75 -46t-53.5 -91.5t-20.5 -146.5zM598 1354q0 47 18.5 88t49 71.5t70.5 48t83 17.5q74 0 121 -47t47 -121q0 -47 -19.5 -88t-50 -70.5t-70.5 -47t-83 -17.5q-72 0 -119 46t-47 120z" />
<glyph unicode="&#x122;" horiz-adv-x="1425" d="M150 563q0 211 58 377t159.5 279.5t239.5 174t298 60.5q117 0 218.5 -21.5t185.5 -68.5q31 -16 28.5 -34.5t-18.5 -53.5l-72 -168q-16 -41 -31.5 -47t-50.5 6q-37 12 -68.5 21.5t-60 15.5t-59.5 8t-68 2q-68 0 -132 -29.5t-115.5 -92t-82 -160t-30.5 -232.5 q0 -137 52 -206.5t181 -69.5q45 0 86 5t86 17l50 397q6 43 53 43h262q35 0 41 -9t2 -34l-66 -534q-4 -35 -17 -66.5t-60 -56.5q-68 -37 -140.5 -58.5t-141.5 -32.5t-126 -14.5t-92 -3.5q-154 0 -262.5 43t-177 120t-99 185.5t-30.5 237.5zM467 -635l86 420q4 20 13 33.5 t38 13.5h223q31 0 34 -15.5t-3 -31.5l-192 -418q-10 -23 -19.5 -32t-32.5 -9h-106q-49 0 -41 39z" />
<glyph unicode="&#x123;" horiz-adv-x="1257" d="M109 442q0 147 36.5 269.5t113.5 208.5t192.5 133t273.5 47q57 0 117.5 -5t119 -15.5t111.5 -27t96 -38.5q29 -16 36 -34.5t3 -43.5l-135 -942q-33 -221 -164 -337t-368 -116q-49 0 -101.5 5t-103.5 14.5t-100.5 23t-88.5 27.5q-31 14 -30.5 29.5t4.5 27.5l61 185 q8 23 20.5 29.5t43.5 -1.5q53 -14 115.5 -26.5t117.5 -12.5q63 0 105.5 10.5t69 34t42 62.5t23.5 98q-43 -12 -96.5 -19.5t-118.5 -7.5q-106 0 -181 30t-123 85t-69.5 133t-21.5 174zM481 487q0 -90 42 -119.5t114 -29.5q18 0 58 4t69 14l57 414q-25 8 -57.5 11t-48.5 3 q-43 0 -85 -13t-75 -46t-53.5 -91.5t-20.5 -146.5zM625 1189q-4 15 2 32l180 417q10 23 19.5 32t31.5 9h109q53 0 45 -39l-70 -419q-2 -20 -12 -33.5t-39 -13.5h-229q-33 0 -37 15z" />
<glyph unicode="&#x124;" horiz-adv-x="1490" d="M102 43l191 1348q6 43 51 43h283q33 0 39 -9.5t2 -33.5l-68 -484h440l68 484q6 43 53 43h281q35 0 41 -9.5t2 -33.5l-191 -1348q-4 -25 -11 -34t-42 -9h-280q-49 0 -43 43l77 541h-440l-78 -541q-4 -25 -11 -34t-40 -9h-283q-47 0 -41 43zM490 1611.5q4 12.5 20 30.5 l291 248q39 33 82 54.5t78 21.5q47 0 79.5 -20.5t67.5 -55.5l238 -245q16 -18 13 -32t-26 -32l-71 -74q-14 -18 -28.5 -17t-37.5 17l-274 181l-304 -175q-20 -12 -31.5 -13t-27.5 18l-57 63q-16 18 -12 30.5z" />
<glyph unicode="&#x125;" horiz-adv-x="1271" d="M55.5 1613.5q3.5 12.5 20.5 31.5l291 247q39 33 82 54.5t77 21.5q47 0 80 -20.5t68 -55.5l237 -245q16 -18 13.5 -31.5t-25.5 -32.5l-72 -74q-14 -18 -28.5 -17t-36.5 17l-275 181l-303 -174q-20 -12 -31.5 -13.5t-27.5 17.5l-57 63q-16 18 -12.5 30.5zM82 39l199 1415 q4 23 14 32t35 9h266q35 0 41 -8t2 -33l-51 -373q25 6 56.5 11.5t65 8.5t63.5 5t50 2q211 0 301 -109.5t62 -318.5l-90 -641q-4 -25 -11.5 -32t-42.5 -7h-266q-49 0 -43 39l82 575q4 33 7 65t-5 57.5t-33.5 41t-76.5 15.5q-12 0 -33 -1t-44.5 -4.5t-47 -6.5t-39.5 -9 l-103 -733q-4 -25 -11 -32t-42 -7h-264q-47 0 -41 39z" />
<glyph unicode="&#x126;" horiz-adv-x="1490" d="M102 43l144 1008h-99q-14 0 -19 6t-1 30l14 107q6 35 31 35h98l23 162q6 43 51 43h283q33 0 39 -9.5t2 -33.5l-23 -162h440l23 162q6 43 53 43h281q35 0 41 -9.5t2 -33.5l-23 -162h80q25 0 19 -35l-15 -107q-4 -25 -9 -30.5t-19 -5.5h-80l-144 -1008q-4 -25 -11 -34 t-42 -9h-280q-49 0 -43 43l77 549h-440l-78 -549q-4 -25 -11 -34t-40 -9h-283q-47 0 -41 43zM600 915h440l21 136h-440z" />
<glyph unicode="&#x127;" horiz-adv-x="1271" d="M82 39l162 1147h-88q-10 0 -15.5 3t-1.5 21l13 95q2 16 8 19t16 3h88l17 127q4 23 14 32t35 9h266q35 0 41 -8t2 -33l-16 -127h311q23 0 20 -29l-12 -81q-4 -20 -11 -25.5t-18 -5.5h-311l-24 -180q25 6 56.5 11t64 8t62.5 5t50 2q211 0 302 -109.5t63 -318.5l-80 -565 q-4 -25 -11.5 -32t-42.5 -7h-266q-49 0 -43 39l70 500q6 33 9 64.5t-5 57t-33.5 41t-77.5 15.5q-12 0 -32.5 -1t-44 -4t-47 -6.5t-40.5 -9.5l-92 -657q-4 -25 -11 -32t-42 -7h-264q-47 0 -41 39z" />
<glyph unicode="&#x128;" horiz-adv-x="733" d="M115.5 1647.5q1.5 9.5 13.5 29.5q57 92 130 145.5t165 53.5q39 0 73.5 -14.5t66.5 -32t65 -31.5t67 -14q27 0 51.5 20.5t59.5 61.5q18 23 23.5 26.5t23.5 -6.5l94 -47q23 -12 27 -21.5t-12 -37.5q-113 -217 -291 -217q-37 0 -72 14t-68.5 30.5t-66.5 31t-66 14.5 q-57 0 -110 -66q-16 -20 -27.5 -26.5t-38.5 10.5l-82 51q-27 16 -25.5 25.5zM131 43l191 1348q6 43 53 43h280q35 0 41 -9.5t2 -33.5l-190 -1348q-4 -25 -11.5 -34t-41.5 -9h-281q-49 0 -43 43z" />
<glyph unicode="&#x129;" horiz-adv-x="704" d="M52 1274.5q1 9.5 14 30.5q57 92 129.5 145t164.5 53q39 0 74 -14t66.5 -31.5t64.5 -32t68 -14.5q27 0 51.5 20.5t58.5 61.5q18 23 23.5 27t24.5 -7l94 -47q23 -12 26.5 -21t-12.5 -38q-113 -217 -291 -217q-37 0 -71.5 14.5t-68.5 30.5t-66.5 30.5t-65.5 14.5 q-57 0 -111 -66q-16 -20 -27.5 -26t-37.5 10l-82 51q-27 16 -26 25.5zM119 41l139 993q4 23 14.5 32t36.5 9h264q33 0 39 -8t2 -33l-139 -993q-4 -25 -11 -33t-40 -8h-264q-47 0 -41 41z" />
<glyph unicode="&#x12a;" horiz-adv-x="733" d="M131 43l191 1348q6 43 53 43h280q35 0 41 -9.5t2 -33.5l-190 -1348q-4 -25 -11.5 -34t-41.5 -9h-281q-49 0 -43 43zM207 1630l22 152q4 35 16.5 42t37.5 7h577q23 0 33 -7t6 -42l-22 -152q-6 -47 -52 -47h-577q-47 0 -41 47z" />
<glyph unicode="&#x12b;" horiz-adv-x="704" d="M119 41l139 993q4 23 14.5 32t36.5 9h264q33 0 39 -8t2 -33l-139 -993q-4 -25 -11 -33t-40 -8h-264q-47 0 -41 41zM133 1270l23 151q4 35 16 42t37 7h577q23 0 33 -7t6 -42l-22 -151q-6 -47 -51 -47h-578q-47 0 -41 47z" />
<glyph unicode="&#x12c;" horiz-adv-x="733" d="M131 43l191 1348q6 43 53 43h280q35 0 41 -9.5t2 -33.5l-190 -1348q-4 -25 -11.5 -34t-41.5 -9h-281q-49 0 -43 43zM152 1768.5q-2 11.5 16 27.5l123 111q23 14 29 10t20 -16q113 -141 231 -142q25 0 50.5 3t58.5 17.5t74 43t96 80.5q23 16 30 15t17 -11l88 -95 q18 -18 14 -28t-12 -19q-117 -133 -227.5 -199.5t-239.5 -66.5q-66 0 -121 21.5t-100 56.5t-81 80t-60 94q-4 6 -6 17.5z" />
<glyph unicode="&#x12d;" horiz-adv-x="704" d="M70 1440.5q-2 11.5 16 27.5l123 111q23 14 29 10t20 -16q113 -141 231 -141q25 0 50.5 3t58.5 17t74 43t96 80q23 16 30 15t17 -11l88 -94q18 -18 14 -28.5t-12 -18.5q-117 -133 -227.5 -200t-239.5 -67q-66 0 -121 21.5t-100 56.5t-81 80t-60 94q-4 6 -6 17.5zM119 41 l139 993q4 23 14.5 32t36.5 9h264q33 0 39 -8t2 -33l-139 -993q-4 -25 -11 -33t-40 -8h-264q-47 0 -41 41z" />
<glyph unicode="&#x12e;" horiz-adv-x="733" d="M33 -330q0 33 14 74t40 86t61.5 89t80.5 81h-55q-49 0 -43 43l191 1348q6 43 53 43h280q35 0 41 -9.5t2 -33.5l-190 -1348q-4 -25 -11.5 -34t-41.5 -9h-17q-80 -66 -110.5 -120t-30.5 -103q0 -74 96 -74q27 0 66 3t67 9q20 4 30.5 1t10.5 -21l23 -101q6 -33 -27 -45 q-86 -35 -161 -43t-138 -8q-117 0 -174 49.5t-57 122.5z" />
<glyph unicode="&#x12f;" horiz-adv-x="704" d="M2 -332q0 33 14.5 75t40 86t62.5 89t82 82h-41q-47 0 -41 41l139 993q4 23 14.5 32t36.5 9h264q33 0 39 -8t2 -33l-139 -993q-4 -25 -11 -33t-40 -8h-14q-82 -68 -113 -121t-31 -104q0 -74 96 -74q27 0 66 3t68 9q20 4 30.5 1t10.5 -21l22 -101q6 -33 -27 -45 q-86 -35 -160.5 -43t-138.5 -8q-117 0 -174 49t-57 123zM295 1327q0 47 18.5 88t49 72t70.5 48t83 17q72 0 120 -47t48 -121q0 -49 -19.5 -90t-51 -70.5t-71.5 -46t-81 -16.5q-72 0 -119 46t-47 120z" />
<glyph unicode="&#x130;" horiz-adv-x="733" d="M131 43l191 1348q6 43 53 43h280q35 0 41 -9.5t2 -33.5l-190 -1348q-4 -25 -11.5 -34t-41.5 -9h-281q-49 0 -43 43zM356 1671q0 47 18.5 88t49.5 72t71 48t83 17q74 0 120.5 -47t46.5 -120q0 -47 -19 -88.5t-50 -71t-71 -47t-83 -17.5q-72 0 -119 46t-47 120z" />
<glyph unicode="&#x131;" horiz-adv-x="684" d="M119 41l139 993q4 23 14.5 32t36.5 9h264q33 0 39 -8t2 -33l-139 -993q-4 -25 -11 -33t-40 -8h-264q-47 0 -41 41z" />
<glyph unicode="&#x132;" horiz-adv-x="1804" d="M131 43l191 1348q6 43 53 43h280q35 0 41 -9.5t2 -33.5l-190 -1348q-4 -25 -11.5 -34t-41.5 -9h-281q-49 0 -43 43zM613.5 100.5q-5.5 12.5 9.5 42.5l88 213q10 27 21 27t32 -8q68 -27 138.5 -41.5t137.5 -14.5q82 0 132.5 21.5t79 61.5t42 96.5t23.5 128.5l106 768 q4 29 16.5 34t35.5 5h284q25 0 34 -5.5t5 -33.5l-121 -860q-16 -113 -50 -214.5t-100.5 -177t-174 -121t-267.5 -45.5q-43 0 -95 4.5t-110.5 15.5t-121 30.5t-123.5 52.5q-16 8 -21.5 20.5z" />
<glyph unicode="&#x133;" horiz-adv-x="1329" d="M119 41l139 993q4 23 14.5 32t36.5 9h264q33 0 39 -8t2 -33l-139 -993q-4 -25 -11 -33t-40 -8h-264q-47 0 -41 41zM295 1327q0 47 18.5 88t49 72t70.5 48t83 17q72 0 120 -47t48 -121q0 -49 -19.5 -90t-51 -70.5t-71.5 -46t-81 -16.5q-72 0 -119 46t-47 120zM473 -179 q8 11 37 23q68 29 116 59.5t79.5 69.5t49 89.5t27.5 117.5l119 854q4 23 14.5 32t36.5 9h269q33 0 38 -8t1 -33l-123 -882q-20 -147 -62.5 -248t-105 -169.5t-148.5 -111.5t-196 -74q-41 -10 -53.5 -9t-22.5 28l-72 207q-12 35 -4 46zM942 1327q0 47 18.5 88t49 72t70.5 48 t83 17q72 0 120 -47t48 -121q0 -49 -19.5 -90t-51 -70.5t-71.5 -46t-81 -16.5q-72 0 -119 46t-47 120z" />
<glyph unicode="&#x134;" horiz-adv-x="1206" d="M15.5 100.5q-5.5 12.5 9.5 42.5l88 213q10 27 21 27t32 -8q68 -27 138.5 -41.5t137.5 -14.5q82 0 132.5 21.5t79 61.5t42 96.5t23.5 128.5l106 768q4 29 16.5 34t35.5 5h284q25 0 34 -5.5t5 -33.5l-121 -860q-16 -113 -50 -214.5t-100.5 -177t-174 -121t-267.5 -45.5 q-43 0 -95 4.5t-110.5 15.5t-121 30.5t-123.5 52.5q-16 8 -21.5 20.5zM617 1611.5q4 12.5 20 30.5l291 248q39 33 82 54.5t77 21.5q47 0 80 -20.5t68 -55.5l238 -245q16 -18 13 -32t-26 -32l-71 -74q-14 -18 -28.5 -17t-37.5 17l-274 181l-304 -175q-20 -12 -31.5 -13 t-27.5 18l-57 63q-16 18 -12 30.5z" />
<glyph unicode="&#x135;" horiz-adv-x="706" d="M-170 -179q8 11 37 23q68 29 116 59.5t79.5 69.5t49 89.5t27.5 117.5l119 854q4 23 14.5 32t36.5 9h269q33 0 38 -8t0 -33l-122 -882q-20 -147 -62.5 -248t-105 -169.5t-148.5 -111.5t-196 -74q-41 -10 -53.5 -9t-22.5 28l-72 207q-12 35 -4 46zM34 1251.5 q3 12.5 19 30.5l297 289q39 35 81 57.5t77 22.5q57 0 90 -19.5t61 -60.5l234 -287q14 -18 10 -31.5t-24 -31.5l-74 -64q-18 -14 -32.5 -13t-33.5 17l-245 211l-312 -235q-18 -12 -30.5 -10.5t-28.5 18.5l-78 76q-14 18 -11 30.5z" />
<glyph unicode="&#x136;" horiz-adv-x="1421" d="M102 41l191 1352q6 41 51 41h281q33 0 39 -8.5t2 -32.5l-66 -463l6 -4l205 227l211 233q29 29 50.5 38.5t74.5 9.5h321q20 0 24.5 -13.5t-11.5 -29.5l-467 -484l329 -852q10 -25 4 -40t-30 -15h-285q-47 0 -68.5 5t-35.5 48l-201 555l-201 -200l-51 -367q-4 -25 -11 -33 t-40 -8h-281q-47 0 -41 41zM457 -573l86 419q4 20 13 34t38 14h223q31 0 34 -15.5t-3 -32.5l-193 -417q-10 -23 -19 -32t-32 -9h-106q-49 0 -41 39z" />
<glyph unicode="&#x137;" horiz-adv-x="1167" d="M82 43l201 1415q4 23 14 32t35 9h268q35 0 40 -8t1 -33l-96 -682l6 -4l242 264q25 23 41 32t51 9h305q41 0 42 -16.5t-22 -38.5l-315 -315l219 -656q14 -51 -47 -51h-270q-29 0 -44.5 9t-21.5 40l-115 383l-139 -143q-4 -35 -8 -59.5t-7 -50t-8 -57.5t-14 -79 q-4 -25 -11 -34t-42 -9h-264q-47 0 -41 43zM279 -635l86 420q4 20 13 33.5t38 13.5h223q31 0 34 -15.5t-3 -31.5l-193 -418q-10 -23 -19 -32t-32 -9h-107q-49 0 -40 39z" />
<glyph unicode="&#x138;" horiz-adv-x="1167" d="M82 43l139 991q6 41 51 41h269q35 0 39 -8t0 -33l-37 -270l8 -4l240 276q23 23 39 32t51 9h309q41 0 42 -16.5t-22 -38.5l-327 -334l237 -637q14 -51 -47 -51h-276q-29 0 -43.5 9t-22.5 40l-119 359l-137 -140q-4 -35 -7 -56.5t-7 -43t-8.5 -50t-12.5 -75.5 q-4 -25 -11 -34t-42 -9h-264q-47 0 -41 43z" />
<glyph unicode="&#x139;" horiz-adv-x="1177" d="M150.5 252q-7.5 70 3.5 137l139 1004q6 43 51 43h285q33 0 39 -9.5t2 -33.5l-133 -953q-6 -39 0 -61.5t20 -33.5t35.5 -14t46.5 -3h471q25 0 33 -7.5t4 -41.5l-33 -232q-8 -47 -49 -47h-580q-119 0 -188.5 35t-104 91t-42 126zM334 1648.5q-2 10.5 18 26.5l377 289 q16 12 26.5 13t26.5 -13l142 -180q12 -10 8 -23.5t-17 -17.5l-438 -236q-18 -10 -27.5 -7t-19.5 13l-86 115q-8 10 -10 20.5z" />
<glyph unicode="&#x13a;" horiz-adv-x="720" d="M126 159.5q-9 69.5 7 178.5l164 1116q4 33 18.5 37t36.5 4h254q25 0 36 -7t7 -32l-149 -1071q-6 -49 3 -71.5t60 -22.5q14 0 34.5 1t37.5 3q23 2 28 -2t7 -25l24 -215q2 -20 -7 -28.5t-36 -16.5q-57 -16 -124.5 -23.5t-129.5 -7.5q-80 0 -137 15.5t-91 56.5t-43 110.5z M346 1712q-2 10 19 27l376 289q16 12 26.5 13t27.5 -13l141 -181q12 -10 8 -23.5t-16 -17.5l-439 -235q-18 -10 -27 -7t-20 13l-86 115q-8 10 -10 20z" />
<glyph unicode="&#x13b;" horiz-adv-x="1177" d="M150.5 252q-7.5 70 3.5 137l139 1004q6 43 51 43h285q33 0 39 -9.5t2 -33.5l-133 -953q-6 -39 0 -61.5t20 -33.5t35.5 -14t46.5 -3h471q25 0 33 -7.5t4 -41.5l-33 -232q-8 -47 -49 -47h-580q-119 0 -188.5 35t-104 91t-42 126zM266 -635l86 420q4 20 13.5 33.5t37.5 13.5 h224q31 0 34 -15.5t-4 -31.5l-192 -418q-10 -23 -19.5 -32t-31.5 -9h-107q-49 0 -41 39z" />
<glyph unicode="&#x13c;" horiz-adv-x="720" d="M55 -635l86 420q4 20 13.5 33.5t38.5 13.5h223q31 0 34 -15.5t-4 -31.5l-192 -418q-10 -23 -19.5 -32t-31.5 -9h-107q-49 0 -41 39zM126 159.5q-9 69.5 7 178.5l164 1116q4 33 18.5 37t36.5 4h254q25 0 36 -7t7 -32l-149 -1071q-6 -49 3 -71.5t60 -22.5q14 0 34.5 1 t37.5 3q23 2 28 -2t7 -25l24 -215q2 -20 -7 -28.5t-36 -16.5q-57 -16 -124.5 -23.5t-129.5 -7.5q-80 0 -137 15.5t-91 56.5t-43 110.5z" />
<glyph unicode="&#x13d;" horiz-adv-x="1177" d="M150.5 252q-7.5 70 3.5 137l139 1004q6 43 51 43h285q33 0 39 -9.5t2 -33.5l-133 -953q-6 -39 0 -61.5t20 -33.5t35.5 -14t46.5 -3h471q25 0 33 -7.5t4 -41.5l-33 -232q-8 -47 -49 -47h-580q-119 0 -188.5 35t-104 91t-42 126zM848 969l86 420q4 20 13 33.5t38 13.5h223 q31 0 34 -15.5t-3 -31.5l-192 -418q-10 -23 -19.5 -32t-32.5 -9h-106q-49 0 -41 39z" />
<glyph unicode="&#x13e;" horiz-adv-x="976" d="M126 159.5q-9 69.5 7 178.5l164 1116q4 33 18.5 37t36.5 4h254q25 0 36 -7t7 -32l-149 -1071q-6 -49 3 -71.5t60 -22.5q14 0 34.5 1t37.5 3q23 2 28 -2t7 -25l24 -215q2 -20 -7 -28.5t-36 -16.5q-57 -16 -124.5 -23.5t-129.5 -7.5q-80 0 -137 15.5t-91 56.5t-43 110.5z M729 987l86 420q4 20 13.5 33.5t37.5 13.5h224q31 0 33.5 -15.5t-3.5 -31.5l-192 -418q-10 -23 -19.5 -32t-31.5 -9h-107q-49 0 -41 39z" />
<glyph unicode="&#x13f;" horiz-adv-x="1177" d="M150.5 252q-7.5 70 3.5 137l139 1004q6 43 51 43h285q33 0 39 -9.5t2 -33.5l-133 -953q-6 -39 0 -61.5t20 -33.5t35.5 -14t46.5 -3h471q25 0 33 -7.5t4 -41.5l-33 -232q-8 -47 -49 -47h-580q-119 0 -188.5 35t-104 91t-42 126zM795 770q0 47 18 88t49 72t71 48t83 17 q74 0 121 -47t47 -121q0 -47 -19.5 -88t-50.5 -70.5t-70.5 -47t-82.5 -17.5q-72 0 -119 46t-47 120z" />
<glyph unicode="&#x140;" horiz-adv-x="1028" d="M126 159.5q-9 69.5 7 178.5l164 1116q4 33 18.5 37t36.5 4h254q25 0 36 -7t7 -32l-149 -1071q-6 -49 3 -71.5t60 -22.5q14 0 34.5 1t37.5 3q23 2 28 -2t7 -25l24 -215q2 -20 -7 -28.5t-36 -16.5q-57 -16 -124.5 -23.5t-129.5 -7.5q-80 0 -137 15.5t-91 56.5t-43 110.5z M694 760q0 47 18.5 88t49.5 71.5t70.5 48t82.5 17.5q74 0 121 -47t47 -121q0 -47 -19.5 -88t-50 -70.5t-70.5 -47t-83 -17.5q-72 0 -119 46t-47 120z" />
<glyph unicode="&#x141;" horiz-adv-x="1177" d="M2 565q4 10 31 25l160 88l100 715q6 43 51 43h285q33 0 39 -9.5t2 -33.5l-70 -492l191 103q23 12 36 14t23 -23l29 -69q10 -23 11 -35t-28 -29l-289 -155l-36 -267q-6 -39 0 -61.5t20 -33.5t35.5 -14t46.5 -3h471q25 0 33 -7.5t4 -41.5l-33 -232q-8 -47 -49 -47h-580 q-119 0 -188.5 35t-104 91t-42 126t3.5 137l14 94l-84 -45q-18 -10 -28.5 -8t-18.5 23l-29 79q-10 23 -6 33z" />
<glyph unicode="&#x142;" horiz-adv-x="720" d="M-23 545q3 10 29 24l174 97l117 788q4 33 18.5 37t36.5 4h254q25 0 36 -7t7 -32l-82 -579l123 67q23 12 35 14.5t25 -22.5l26 -70q10 -23 11 -35t-27 -28l-219 -121l-41 -297q-6 -49 3 -71.5t60 -22.5q14 0 34.5 1t37.5 3q23 2 28 -2t7 -25l24 -215q2 -20 -7 -28.5 t-36 -16.5q-57 -16 -124.5 -23.5t-129.5 -7.5q-80 0 -137 15.5t-91 56.5t-43 110.5t7 178.5l19 133l-97 -53q-31 -20 -47 14l-24 80q-10 23 -7 33z" />
<glyph unicode="&#x143;" horiz-adv-x="1544" d="M102 43l174 1229q12 96 48 129t120 33h103q35 0 57.5 -2t40 -11.5t29.5 -28t28 -51.5l211 -446l127 -279h15l108 775q4 25 12.5 34t41.5 9h282q45 0 39 -43l-172 -1229q-10 -70 -45 -116t-123 -46h-102q-35 0 -58.5 3t-41 12.5t-31 27.5t-27.5 49l-201 422l-135 303h-14 l-111 -774q-4 -25 -11 -34t-40 -9h-283q-47 0 -41 43zM725 1640.5q-2 10.5 18 26.5l377 289q16 12 26.5 13t27.5 -13l141 -180q12 -10 8 -23.5t-16 -17.5l-439 -236q-18 -10 -27.5 -7t-19.5 13l-86 115q-8 10 -10 20.5z" />
<glyph unicode="&#x144;" horiz-adv-x="1271" d="M84 41l125 879q8 63 33.5 104t97.5 57q20 4 61 9.5t88.5 8.5t94.5 5t82 2q145 0 250.5 -27.5t169 -92t84 -168t-0.5 -253.5l-73 -524q-4 -25 -11.5 -33t-42.5 -8h-266q-49 0 -43 41l80 559q14 104 -16.5 156.5t-139.5 52.5q-18 0 -50 -2t-58 -6l-107 -760q-4 -25 -11 -33 t-42 -8h-264q-47 0 -41 41zM542 1222.5q-5 8.5 7 30.5l194 383q8 16 17.5 22.5t32.5 2.5l239 -62q16 -4 19.5 -16t-7.5 -22l-299 -381q-10 -18 -20 -20.5t-27 1.5l-137 49q-14 4 -19 12.5z" />
<glyph unicode="&#x145;" horiz-adv-x="1544" d="M102 43l174 1229q12 96 48 129t120 33h103q35 0 57.5 -2t40 -11.5t29.5 -28t28 -51.5l211 -446l127 -279h15l108 775q4 25 12.5 34t41.5 9h282q45 0 39 -43l-172 -1229q-10 -70 -45 -116t-123 -46h-102q-35 0 -58.5 3t-41 12.5t-31 27.5t-27.5 49l-201 422l-135 303h-14 l-111 -774q-4 -25 -11 -34t-40 -9h-283q-47 0 -41 43zM430 -571l86 419q4 20 13.5 34t37.5 14h224q31 0 33.5 -15.5t-3.5 -32.5l-192 -417q-10 -23 -19.5 -32t-31.5 -9h-107q-49 0 -41 39z" />
<glyph unicode="&#x146;" horiz-adv-x="1271" d="M84 41l125 879q8 63 33.5 104t97.5 57q20 4 61 9.5t88.5 8.5t94.5 5t82 2q145 0 250.5 -27.5t169 -92t84 -168t-0.5 -253.5l-73 -524q-4 -25 -11.5 -33t-42.5 -8h-266q-49 0 -43 41l80 559q14 104 -16.5 156.5t-139.5 52.5q-18 0 -50 -2t-58 -6l-107 -760q-4 -25 -11 -33 t-42 -8h-264q-47 0 -41 41zM342 -635l86 420q4 20 13.5 33.5t37.5 13.5h223q31 0 34 -15.5t-3 -31.5l-192 -418q-10 -23 -19.5 -32t-32.5 -9h-106q-49 0 -41 39z" />
<glyph unicode="&#x147;" horiz-adv-x="1544" d="M102 43l174 1229q12 96 48 129t120 33h103q35 0 57.5 -2t40 -11.5t29.5 -28t28 -51.5l211 -446l127 -279h15l108 775q4 25 12.5 34t41.5 9h282q45 0 39 -43l-172 -1229q-10 -70 -45 -116t-123 -46h-102q-35 0 -58.5 3t-41 12.5t-31 27.5t-27.5 49l-201 422l-135 303h-14 l-111 -774q-4 -25 -11 -34t-40 -9h-283q-47 0 -41 43zM564.5 1857.5q-1.5 12.5 21.5 30.5l73 64q20 18 34 17t30 -13l254 -174l323 180q27 16 41.5 17t24.5 -17l51 -74q16 -18 16.5 -31.5t-20.5 -31.5l-307 -246q-45 -35 -83 -55.5t-85 -20.5q-37 0 -74 21.5t-65 54.5 l-221 248q-12 18 -13.5 30.5z" />
<glyph unicode="&#x148;" horiz-adv-x="1271" d="M84 41l125 879q8 63 33.5 104t97.5 57q20 4 61 9.5t88.5 8.5t94.5 5t82 2q145 0 250.5 -27.5t169 -92t84 -168t-0.5 -253.5l-73 -524q-4 -25 -11.5 -33t-42.5 -8h-266q-49 0 -43 41l80 559q14 104 -16.5 156.5t-139.5 52.5q-18 0 -50 -2t-58 -6l-107 -760q-4 -25 -11 -33 t-42 -8h-264q-47 0 -41 41zM326 1560.5q0 12.5 20 30.5l80 66q23 16 35 16t26 -12l244 -211l320 211q25 16 38 15t27 -15l64 -70q14 -18 14 -31.5t-20 -31.5l-312 -287q-41 -41 -80 -60.5t-96 -19.5q-35 0 -70.5 22.5t-62.5 57.5l-217 289q-10 18 -10 30.5z" />
<glyph unicode="&#x149;" horiz-adv-x="1499" d="M82 1042l86 420q4 20 13 33.5t38 13.5h223q31 0 34 -15t-3 -32l-192 -418q-10 -23 -19.5 -31.5t-32.5 -8.5h-106q-49 0 -41 38zM311 41l125 879q8 63 34 104t97 57q20 4 61.5 9.5t88.5 8.5t94 5t82 2q145 0 250.5 -27.5t169 -92t84 -168t0.5 -253.5l-74 -524 q-4 -25 -11 -33t-42 -8h-266q-49 0 -43 41l79 559q14 104 -16 156.5t-139 52.5q-18 0 -50 -2t-59 -6l-106 -760q-4 -25 -11.5 -33t-42.5 -8h-264q-47 0 -41 41z" />
<glyph unicode="&#x14a;" horiz-adv-x="1544" d="M102 43l174 1229q12 96 48 129t120 33h103q35 0 57.5 -2t40 -11.5t29.5 -28t28 -51.5l211 -446l127 -279h15l108 775q4 25 12.5 34t41.5 9h282q45 0 39 -43q-43 -311 -73.5 -526.5t-51 -363t-34 -241.5t-23.5 -162.5t-18.5 -125t-18.5 -128.5q-8 -59 -28.5 -114.5 t-58.5 -96.5t-97.5 -65.5t-147.5 -24.5q-86 0 -154.5 13.5t-107.5 27.5q-18 8 -28.5 13.5t-14.5 11.5t-2 17.5t8 29.5l39 133q6 23 12 32t14.5 11t20.5 -1t31 -5q16 -2 42.5 -5t43.5 -3q47 0 74.5 16t35.5 66l11 84l-275 538l-135 295h-14l-111 -774q-4 -25 -11 -34t-40 -9 h-283q-47 0 -41 43z" />
<glyph unicode="&#x14b;" horiz-adv-x="1271" d="M84 41l125 879q8 63 33.5 104t97.5 57q20 4 61 9.5t88.5 8.5t94.5 5t82 2q145 0 250.5 -27.5t169 -92t84 -168t-0.5 -253.5l-96 -686q-8 -59 -27.5 -114.5t-58.5 -96.5t-98.5 -65.5t-147.5 -24.5q-86 0 -154.5 13.5t-109.5 27.5q-18 8 -28.5 13.5t-13.5 11.5t-1 17t8 30 l43 155q8 27 22.5 26t43.5 -5q37 -6 67 -6q39 0 67 18.5t38 77.5l90 643q14 104 -16.5 156.5t-139.5 52.5q-18 0 -50 -2t-58 -6l-107 -760q-4 -25 -11 -33t-42 -8h-264q-47 0 -41 41z" />
<glyph unicode="&#x14c;" horiz-adv-x="1476" d="M150 559q0 201 50 367t144 283.5t228 182t302 64.5q141 0 245 -42t171.5 -117.5t101 -183t33.5 -239.5q0 -199 -46 -363.5t-138 -283t-229.5 -184.5t-317.5 -66q-143 0 -245.5 39t-169 114t-98 183.5t-31.5 245.5zM545 575q0 -119 44 -185t150 -66q76 0 130.5 46 t90 121.5t52 169t16.5 189.5q0 57 -9 105.5t-30.5 83t-57.5 54t-91 19.5q-74 0 -129.5 -47t-92 -124t-55 -172t-18.5 -194zM627 1630l22 152q4 35 16.5 42t36.5 7h578q23 0 33 -7t6 -42l-23 -152q-6 -47 -51 -47h-577q-47 0 -41 47z" />
<glyph unicode="&#x14d;" horiz-adv-x="1228" d="M104 408q0 166 42 294.5t121 219t191 137.5t253 47q236 0 348 -121t112 -340q0 -152 -39.5 -274.5t-116.5 -210.5t-190.5 -135.5t-259.5 -47.5q-244 0 -352.5 115t-108.5 316zM420 1249l22 152q4 35 16.5 42t37.5 7h577q23 0 33 -7t6 -42l-22 -152q-6 -47 -52 -47h-577 q-47 0 -41 47zM483 455q0 -86 31 -124t90 -38q84 0 136.5 91t52.5 245q0 162 -119 162q-84 0 -137.5 -84t-53.5 -252z" />
<glyph unicode="&#x14e;" horiz-adv-x="1476" d="M150 559q0 201 50 367t144 283.5t228 182t302 64.5q141 0 245 -42t171.5 -117.5t101 -183t33.5 -239.5q0 -199 -46 -363.5t-138 -283t-229.5 -184.5t-317.5 -66q-143 0 -245.5 39t-169 114t-98 183.5t-31.5 245.5zM545 575q0 -119 44 -185t150 -66q76 0 130.5 46 t90 121.5t52 169t16.5 189.5q0 57 -9 105.5t-30.5 83t-57.5 54t-91 19.5q-74 0 -129.5 -47t-92 -124t-55 -172t-18.5 -194zM555 1774.5q-2 11.5 16 27.5l123 111q23 14 29 10t20 -16q113 -141 232 -142q25 0 50.5 3.5t58 17.5t73.5 43t96 80q23 16 30 15t17 -11l89 -94 q18 -18 14 -28.5t-12 -18.5q-117 -133 -227.5 -200t-239.5 -67q-66 0 -121 21.5t-100.5 56.5t-81 80t-60.5 94q-4 6 -6 17.5z" />
<glyph unicode="&#x14f;" horiz-adv-x="1228" d="M104 408q0 166 42 294.5t121 219t191 137.5t253 47q236 0 348 -121t112 -340q0 -152 -39.5 -274.5t-116.5 -210.5t-190.5 -135.5t-259.5 -47.5q-244 0 -352.5 115t-108.5 316zM360.5 1440.5q-2.5 11.5 16.5 27.5l123 111q23 14 29 10t20 -16q113 -141 231 -141 q25 0 50.5 3t58.5 17t74 43t96 80q23 16 30 15t17 -11l88 -94q18 -18 14 -28.5t-12 -18.5q-117 -133 -227.5 -200t-239.5 -67q-66 0 -121 21.5t-100 56.5t-81 80t-60 94q-4 6 -6.5 17.5zM483 455q0 -86 31 -124t90 -38q84 0 136.5 91t52.5 245q0 162 -119 162 q-84 0 -137.5 -84t-53.5 -252z" />
<glyph unicode="&#x150;" horiz-adv-x="1476" d="M150 559q0 201 50 367t144 283.5t228 182t302 64.5q141 0 245 -42t171.5 -117.5t101 -183t33.5 -239.5q0 -199 -46 -363.5t-138 -283t-229.5 -184.5t-317.5 -66q-143 0 -245.5 39t-169 114t-98 183.5t-31.5 245.5zM545 575q0 -119 44 -185t150 -66q76 0 130.5 46 t90 121.5t52 169t16.5 189.5q0 57 -9 105.5t-30.5 83t-57.5 54t-91 19.5q-74 0 -129.5 -47t-92 -124t-55 -172t-18.5 -194zM547 1639.5q-2 11.5 18 25.5l357 279q16 12 25 13t26 -13l123 -154q12 -10 8 -23.5t-17 -19.5l-413 -227q-20 -10 -30.5 -7t-20.5 13l-64 92 q-10 10 -12 21.5zM1022 1639.5q-2 11.5 18 25.5l357 279q14 12 24.5 13t26.5 -13l123 -154q10 -10 7 -23.5t-15 -19.5l-414 -227q-20 -10 -30.5 -7t-20.5 13l-64 92q-10 10 -12 21.5z" />
<glyph unicode="&#x151;" horiz-adv-x="1228" d="M104 408q0 166 42 294.5t121 219t191 137.5t253 47q236 0 348 -121t112 -340q0 -152 -39.5 -274.5t-116.5 -210.5t-190.5 -135.5t-259.5 -47.5q-244 0 -352.5 115t-108.5 316zM431.5 1222.5q-5.5 8.5 6.5 30.5l195 383q8 16 17 22.5t32 2.5l229 -62q16 -4 19.5 -16 t-6.5 -22l-297 -381q-12 -18 -22.5 -20.5t-26.5 1.5l-127 49q-14 4 -19.5 12.5zM483 455q0 -86 31 -124t90 -38q84 0 136.5 91t52.5 245q0 162 -119 162q-84 0 -137.5 -84t-53.5 -252zM802 1222.5q-5 8.5 7 30.5l197 383q8 16 17 22.5t30 2.5l231 -62q16 -4 18.5 -16 t-8.5 -22l-297 -381q-12 -18 -22 -20.5t-25 1.5l-127 49q-16 4 -21 12.5z" />
<glyph unicode="&#x152;" horiz-adv-x="1957" d="M150 565q0 203 48 368t140 281.5t225 179t303 62.5q92 0 179.5 -17.5t146.5 -49.5q43 23 95 34t118 11h547q23 0 29 -7.5t1 -42.5l-32 -231q-4 -27 -13.5 -36t-29.5 -9h-434q-39 0 -65 -11.5t-40 -27.5t-21.5 -36.5t-9.5 -41.5l-12 -86h506q25 0 30 -8t1 -43l-31 -213 q-6 -47 -45 -47h-506l-20 -154q-6 -39 0 -61.5t20 -33.5t35.5 -14t46.5 -3h491q25 0 31 -7.5t2 -41.5l-33 -232q-4 -27 -13 -37t-32 -10h-600q-129 0 -204 41q-70 -31 -151 -47.5t-177 -16.5q-143 0 -243.5 42t-163 120t-91 185.5t-28.5 240.5zM547 580q0 -121 43 -188.5 t149 -67.5q76 0 135 47l3 18l94 672q-45 51 -131 51q-70 0 -124 -40t-92 -111.5t-57.5 -169t-19.5 -211.5z" />
<glyph unicode="&#x153;" horiz-adv-x="1863" d="M104 408q0 166 42 294.5t121 219t191 137.5t253 47q209 0 325 -100q141 100 348 100q86 0 166 -15.5t140.5 -52.5t96.5 -98t36 -154q0 -182 -127 -275t-367 -93q-37 0 -77 2t-81 6q0 -8 -1 -14t-1 -15q0 -37 12.5 -59.5t34 -32.5t52 -13t69.5 -3q51 0 101.5 11t113.5 32 q29 10 38 6t16 -21l77 -192q6 -20 -2 -30.5t-24 -20.5q-41 -25 -96.5 -43.5t-116 -30.5t-116.5 -17.5t-99 -5.5q-113 0 -192 23t-132 68q-139 -90 -340 -91q-244 0 -352.5 115t-108.5 316zM483 455q0 -86 31 -124t90 -38q84 0 136.5 91t52.5 245q0 162 -119 162 q-84 0 -137.5 -84t-53.5 -252zM1204 645q12 -2 23.5 -2h25.5q119 0 160 25.5t41 74.5q0 27 -18.5 48.5t-69.5 21.5q-63 0 -105 -40t-57 -128z" />
<glyph unicode="&#x154;" horiz-adv-x="1380" d="M102 41l179 1257q8 63 35.5 99.5t111.5 36.5h500q217 0 319.5 -95.5t102.5 -269.5q0 -141 -69 -247.5t-204 -164.5l-2 -4q90 -25 124 -78t42 -133l47 -389q4 -29 1 -41t-27 -12h-265h-33.5t-31.5 5t-24.5 15.5t-12.5 30.5l-33 342q-8 88 -46 128t-136 40h-129l-74 -520 q-4 -25 -11 -33t-40 -8h-283q-47 0 -41 41zM592 1640.5q-2 10.5 18 26.5l377 289q16 12 26.5 13t26.5 -13l142 -180q12 -10 8 -23.5t-16 -17.5l-439 -236q-18 -10 -27.5 -7t-19.5 13l-86 115q-8 10 -10 20.5zM594 864h227q49 0 93 34t44 106q0 39 -23.5 67.5t-80.5 28.5 h-227z" />
<glyph unicode="&#x155;" horiz-adv-x="874" d="M96 51l105 764q8 66 16 113t28.5 78.5t58.5 51t108 27.5q129 16 245.5 17.5t235.5 -2.5q39 -2 49 -12.5t4 -43.5l-41 -227q-4 -29 -19.5 -34t-45.5 -1q-49 8 -85 12.5t-69 7.5t-62.5 5t-66.5 4l-108 -760q-4 -33 -17.5 -42t-46.5 -9h-242q-27 0 -40 9t-7 42z M441.5 1224.5q-5.5 8.5 7.5 30.5l194 383q8 16 17.5 22.5t31.5 2.5l240 -61q16 -4 19 -16.5t-7 -22.5l-299 -381q-10 -18 -20.5 -20.5t-26.5 1.5l-137 49q-14 4 -19.5 12.5z" />
<glyph unicode="&#x156;" horiz-adv-x="1380" d="M102 41l179 1257q8 63 35.5 99.5t111.5 36.5h500q217 0 319.5 -95.5t102.5 -269.5q0 -141 -69 -247.5t-204 -164.5l-2 -4q90 -25 124 -78t42 -133l47 -389q4 -29 1 -41t-27 -12h-265h-33.5t-31.5 5t-24.5 15.5t-12.5 30.5l-33 342q-8 88 -46 128t-136 40h-129l-74 -520 q-4 -25 -11 -33t-40 -8h-283q-47 0 -41 41zM401 -573l86 419q4 20 13.5 34t38.5 14h223q31 0 34 -15.5t-3 -32.5l-193 -417q-10 -23 -19.5 -32t-31.5 -9h-107q-49 0 -41 39zM594 864h227q49 0 93 34t44 106q0 39 -23.5 67.5t-80.5 28.5h-227z" />
<glyph unicode="&#x157;" horiz-adv-x="874" d="M0 -635l86 420q4 20 13.5 33.5t37.5 13.5h223q31 0 34 -15.5t-3 -31.5l-192 -418q-10 -23 -19.5 -32t-32.5 -9h-106q-49 0 -41 39zM96 51l105 764q8 66 16 113t28.5 78.5t58.5 51t108 27.5q129 16 245.5 17.5t235.5 -2.5q39 -2 49 -12.5t4 -43.5l-41 -227 q-4 -29 -19.5 -34t-45.5 -1q-49 8 -85 12.5t-69 7.5t-62.5 5t-66.5 4l-108 -760q-4 -33 -17.5 -42t-46.5 -9h-242q-27 0 -40 9t-7 42z" />
<glyph unicode="&#x158;" horiz-adv-x="1380" d="M102 41l179 1257q8 63 35.5 99.5t111.5 36.5h500q217 0 319.5 -95.5t102.5 -269.5q0 -141 -69 -247.5t-204 -164.5l-2 -4q90 -25 124 -78t42 -133l47 -389q4 -29 1 -41t-27 -12h-265h-33.5t-31.5 5t-24.5 15.5t-12.5 30.5l-33 342q-8 88 -46 128t-136 40h-129l-74 -520 q-4 -25 -11 -33t-40 -8h-283q-47 0 -41 41zM409 1865.5q-1 12.5 21 30.5l74 64q20 18 33.5 17t29.5 -13l254 -174l324 180q27 16 41 17.5t24 -17.5l52 -74q16 -18 16 -31.5t-21 -31.5l-307 -246q-45 -35 -83 -55.5t-85 -20.5q-37 0 -73.5 21.5t-65.5 54.5l-221 248 q-12 18 -13 30.5zM594 864h227q49 0 93 34t44 106q0 39 -23.5 67.5t-80.5 28.5h-227z" />
<glyph unicode="&#x159;" horiz-adv-x="874" d="M96 51l105 764q8 66 16 113t28.5 78.5t58.5 51t108 27.5q129 16 245.5 17.5t235.5 -2.5q39 -2 49 -12.5t4 -43.5l-41 -227q-4 -29 -19.5 -34t-45.5 -1q-49 8 -85 12.5t-69 7.5t-62.5 5t-66.5 4l-108 -760q-4 -33 -17.5 -42t-46.5 -9h-242q-27 0 -40 9t-7 42z M182.5 1560.5q-0.5 12.5 20.5 30.5l80 66q23 16 35 16t26 -12l244 -211l319 211q25 16 38 15t28 -15l63 -70q14 -18 14.5 -31.5t-20.5 -31.5l-311 -287q-41 -41 -80 -60.5t-96 -19.5q-35 0 -71 22.5t-62 57.5l-217 289q-10 18 -10.5 30.5z" />
<glyph unicode="&#x15a;" horiz-adv-x="1224" d="M46.5 153.5q-1.5 14.5 14.5 45.5l91 194q18 35 33.5 39t43.5 -8q27 -12 69 -28.5t92 -32t105.5 -25.5t110.5 -10q57 0 89 13t47.5 30.5t19.5 36t4 28.5q0 27 -25.5 51.5t-113.5 65.5q-92 45 -169 92t-132.5 102.5t-87 121t-31.5 145.5q0 96 33.5 178t101.5 140.5t169 91 t234 32.5q59 0 121 -6t118 -17.5t107.5 -29t90.5 -41.5q31 -16 36 -32.5t-12 -63.5l-55 -170q-14 -41 -32.5 -46.5t-53.5 5.5q-82 25 -167 42t-163 17q-74 0 -99.5 -24.5t-25.5 -55.5q0 -12 5.5 -23.5t19.5 -25.5t39.5 -28.5t66.5 -32.5q104 -43 187.5 -90.5t140.5 -104.5 t88 -127t31 -158q0 -119 -43 -205.5t-121 -145t-188.5 -87.5t-245.5 -29q-68 0 -139.5 8.5t-141 27t-132 46t-111.5 66.5q-18 14 -19.5 28.5zM575.5 1669q-2.5 10 18.5 27l377 289q16 12 26.5 13t26.5 -13l141 -181q12 -10 8 -23.5t-16 -17.5l-438 -235q-18 -10 -27.5 -7 t-19.5 13l-86 115q-8 10 -10.5 20z" />
<glyph unicode="&#x15b;" horiz-adv-x="1026" d="M46 112.5q1 12.5 11 37.5l76 169q12 29 24.5 32t35.5 -7q84 -35 157.5 -52.5t132.5 -17.5q57 0 73.5 19.5t16.5 42.5q0 18 -24.5 36.5t-99.5 53.5q-137 59 -212 141t-77 195q0 76 28.5 139.5t84 108.5t136 70.5t185.5 25.5q98 0 197.5 -21.5t164.5 -56.5q25 -14 27 -24.5 t-12 -45.5l-58 -145q-12 -29 -24 -34t-39 3q-66 18 -128.5 31.5t-127.5 13.5q-20 0 -32.5 -7t-18.5 -16t-8.5 -17.5t-2.5 -10.5q0 -25 24 -41t85 -43q70 -29 128 -61.5t99 -74.5t63.5 -95t22.5 -125q0 -90 -34.5 -157.5t-97 -113t-149.5 -67t-192 -21.5q-55 0 -112.5 6.5 t-112.5 20.5t-105.5 34.5t-89.5 51.5q-16 10 -15 22.5zM445.5 1224.5q-5.5 8.5 7.5 30.5l194 383q8 16 17.5 22.5t31.5 2.5l240 -61q16 -4 19 -16.5t-7 -22.5l-299 -381q-10 -18 -20.5 -20.5t-26.5 1.5l-137 49q-14 4 -19.5 12.5z" />
<glyph unicode="&#x15c;" horiz-adv-x="1224" d="M46.5 153.5q-1.5 14.5 14.5 45.5l91 194q18 35 33.5 39t43.5 -8q27 -12 69 -28.5t92 -32t105.5 -25.5t110.5 -10q57 0 89 13t47.5 30.5t19.5 36t4 28.5q0 27 -25.5 51.5t-113.5 65.5q-92 45 -169 92t-132.5 102.5t-87 121t-31.5 145.5q0 96 33.5 178t101.5 140.5t169 91 t234 32.5q59 0 121 -6t118 -17.5t107.5 -29t90.5 -41.5q31 -16 36 -32.5t-12 -63.5l-55 -170q-14 -41 -32.5 -46.5t-53.5 5.5q-82 25 -167 42t-163 17q-74 0 -99.5 -24.5t-25.5 -55.5q0 -12 5.5 -23.5t19.5 -25.5t39.5 -28.5t66.5 -32.5q104 -43 187.5 -90.5t140.5 -104.5 t88 -127t31 -158q0 -119 -43 -205.5t-121 -145t-188.5 -87.5t-245.5 -29q-68 0 -139.5 8.5t-141 27t-132 46t-111.5 66.5q-18 14 -19.5 28.5zM361 1611.5q4 12.5 20 30.5l291 248q39 33 82 54.5t77 21.5q47 0 80 -20.5t68 -55.5l238 -245q16 -18 13 -32t-26 -32l-71 -74 q-14 -18 -28.5 -17t-37.5 17l-274 181l-304 -175q-20 -12 -31.5 -13t-27.5 18l-57 63q-16 18 -12 30.5z" />
<glyph unicode="&#x15d;" horiz-adv-x="1026" d="M46 112.5q1 12.5 11 37.5l76 169q12 29 24.5 32t35.5 -7q84 -35 157.5 -52.5t132.5 -17.5q57 0 73.5 19.5t16.5 42.5q0 18 -24.5 36.5t-99.5 53.5q-137 59 -212 141t-77 195q0 76 28.5 139.5t84 108.5t136 70.5t185.5 25.5q98 0 197.5 -21.5t164.5 -56.5q25 -14 27 -24.5 t-12 -45.5l-58 -145q-12 -29 -24 -34t-39 3q-66 18 -128.5 31.5t-127.5 13.5q-20 0 -32.5 -7t-18.5 -16t-8.5 -17.5t-2.5 -10.5q0 -25 24 -41t85 -43q70 -29 128 -61.5t99 -74.5t63.5 -95t22.5 -125q0 -90 -34.5 -157.5t-97 -113t-149.5 -67t-192 -21.5q-55 0 -112.5 6.5 t-112.5 20.5t-105.5 34.5t-89.5 51.5q-16 10 -15 22.5zM194 1251.5q3 12.5 19 30.5l297 289q39 35 81 57.5t77 22.5q57 0 90 -19.5t61 -60.5l234 -287q14 -18 10 -31.5t-25 -31.5l-73 -64q-18 -14 -32.5 -13t-33.5 17l-246 211l-311 -235q-18 -12 -30.5 -10.5t-28.5 18.5 l-78 76q-14 18 -11 30.5z" />
<glyph unicode="&#x15e;" horiz-adv-x="1224" d="M46.5 153.5q-1.5 14.5 14.5 45.5l91 194q18 35 33.5 39t43.5 -8q27 -12 69 -28.5t92 -32t105.5 -25.5t110.5 -10q57 0 89 13t47.5 30.5t19.5 36t4 28.5q0 27 -25.5 51.5t-113.5 65.5q-92 45 -169 92t-132.5 102.5t-87 121t-31.5 145.5q0 96 33.5 178t101.5 140.5t169 91 t234 32.5q59 0 121 -6t118 -17.5t107.5 -29t90.5 -41.5q31 -16 36 -32.5t-12 -63.5l-55 -170q-14 -41 -32.5 -46.5t-53.5 5.5q-82 25 -167 42t-163 17q-74 0 -99.5 -24.5t-25.5 -55.5q0 -12 5.5 -23.5t19.5 -25.5t39.5 -28.5t66.5 -32.5q104 -43 187.5 -90.5t140.5 -104.5 t88 -127t31 -158q0 -117 -41 -202.5t-117 -144t-183.5 -88t-238.5 -32.5l-45 -86q84 -4 136.5 -24.5t82 -50t39.5 -66.5t10 -74q0 -47 -20 -93t-62 -82t-106.5 -57.5t-155.5 -21.5q-37 0 -76.5 5.5t-76.5 12.5t-70 17.5t-55 20.5q-16 6 -15 14t9 31l33 100q8 23 15 26t23 -3 q43 -14 81 -22.5t81 -8.5q47 0 80 15.5t39 56.5q4 35 -27.5 49t-87.5 14q-41 0 -50 1t-19 11q-14 14 -9 33t17 39l82 152q-111 10 -215.5 45t-179.5 94q-18 14 -19.5 28.5z" />
<glyph unicode="&#x15f;" horiz-adv-x="1026" d="M46 112.5q1 12.5 11 37.5l76 169q12 29 24.5 32t35.5 -7q84 -35 157.5 -52.5t132.5 -17.5q57 0 73.5 19.5t16.5 42.5q0 18 -24.5 36.5t-99.5 53.5q-137 59 -212 141t-77 195q0 76 28.5 139.5t84 108.5t136 70.5t185.5 25.5q98 0 197.5 -21.5t164.5 -56.5q25 -14 27 -24.5 t-12 -45.5l-58 -145q-12 -29 -24 -34t-39 3q-66 18 -128.5 31.5t-127.5 13.5q-20 0 -32.5 -7t-18.5 -16t-8.5 -17.5t-2.5 -10.5q0 -25 24 -41t85 -43q70 -29 128 -61.5t99 -74.5t63.5 -95t22.5 -125q0 -90 -34.5 -157.5t-97 -113t-149.5 -67t-192 -21.5h-6l-45 -86 q84 -4 136 -24.5t82 -50t40 -66.5t10 -74q0 -47 -20.5 -93t-62.5 -82t-106.5 -57.5t-154.5 -21.5q-37 0 -76.5 5.5t-76.5 12.5t-70 17.5t-55 20.5q-16 6 -15.5 14t9.5 31l32 100q8 23 15.5 26t23.5 -3q43 -14 81 -22.5t81 -8.5q47 0 80 15.5t39 56.5q4 35 -28 49t-87 14 q-41 0 -50 1t-19 11q-14 14 -9.5 33t17.5 39l84 156q-76 10 -145.5 34.5t-123.5 65.5q-16 10 -15 22.5z" />
<glyph unicode="&#x160;" horiz-adv-x="1224" d="M46.5 153.5q-1.5 14.5 14.5 45.5l91 194q18 35 33.5 39t43.5 -8q27 -12 69 -28.5t92 -32t105.5 -25.5t110.5 -10q57 0 89 13t47.5 30.5t19.5 36t4 28.5q0 27 -25.5 51.5t-113.5 65.5q-92 45 -169 92t-132.5 102.5t-87 121t-31.5 145.5q0 96 33.5 178t101.5 140.5t169 91 t234 32.5q59 0 121 -6t118 -17.5t107.5 -29t90.5 -41.5q31 -16 36 -32.5t-12 -63.5l-55 -170q-14 -41 -32.5 -46.5t-53.5 5.5q-82 25 -167 42t-163 17q-74 0 -99.5 -24.5t-25.5 -55.5q0 -12 5.5 -23.5t19.5 -25.5t39.5 -28.5t66.5 -32.5q104 -43 187.5 -90.5t140.5 -104.5 t88 -127t31 -158q0 -119 -43 -205.5t-121 -145t-188.5 -87.5t-245.5 -29q-68 0 -139.5 8.5t-141 27t-132 46t-111.5 66.5q-18 14 -19.5 28.5zM417 1857.5q-1 12.5 21 30.5l74 64q20 18 33.5 17t29.5 -13l254 -174l324 180q27 16 41 17t25 -17l51 -74q16 -18 16 -31.5 t-20 -31.5l-308 -246q-45 -35 -82.5 -55.5t-84.5 -20.5q-37 0 -74 21.5t-66 54.5l-221 248q-12 18 -13 30.5z" />
<glyph unicode="&#x161;" horiz-adv-x="1026" d="M46 112.5q1 12.5 11 37.5l76 169q12 29 24.5 32t35.5 -7q84 -35 157.5 -52.5t132.5 -17.5q57 0 73.5 19.5t16.5 42.5q0 18 -24.5 36.5t-99.5 53.5q-137 59 -212 141t-77 195q0 76 28.5 139.5t84 108.5t136 70.5t185.5 25.5q98 0 197.5 -21.5t164.5 -56.5q25 -14 27 -24.5 t-12 -45.5l-58 -145q-12 -29 -24 -34t-39 3q-66 18 -128.5 31.5t-127.5 13.5q-20 0 -32.5 -7t-18.5 -16t-8.5 -17.5t-2.5 -10.5q0 -25 24 -41t85 -43q70 -29 128 -61.5t99 -74.5t63.5 -95t22.5 -125q0 -90 -34.5 -157.5t-97 -113t-149.5 -67t-192 -21.5q-55 0 -112.5 6.5 t-112.5 20.5t-105.5 34.5t-89.5 51.5q-16 10 -15 22.5zM244 1560.5q0 12.5 20 30.5l80 66q23 16 35 16t27 -12l243 -211l320 211q25 16 38 15t27 -15l64 -70q14 -18 14 -31.5t-20 -31.5l-312 -287q-41 -41 -79.5 -60.5t-96.5 -19.5q-35 0 -70.5 22.5t-62.5 57.5l-217 289 q-10 18 -10 30.5z" />
<glyph unicode="&#x162;" horiz-adv-x="1169" d="M131 1155l33 229q4 35 14 42.5t33 7.5h1046q25 0 33 -7.5t4 -42.5l-32 -229q-8 -47 -50 -47h-340l-151 -1065q-4 -25 -11.5 -34t-39.5 -9h-283q-47 0 -41 43l152 1065h-332q-43 0 -35 47zM287 -635l86 420q4 20 13 33.5t38 13.5h223q31 0 34 -15.5t-3 -31.5l-193 -418 q-10 -23 -19 -32t-32 -9h-106q-49 0 -41 39z" />
<glyph unicode="&#x163;" horiz-adv-x="903" d="M98 854l21 145q4 20 9 27.5t30 13.5l145 37l27 189q4 29 18 40t35 17l276 84q23 6 35.5 -3t7.5 -36l-40 -293h221q27 0 29.5 -8t-1.5 -29l-26 -184q-4 -23 -7.5 -33t-31.5 -10h-221l-60 -432q-8 -51 14.5 -69.5t77.5 -18.5q31 0 71 5t65 9q35 2 36 -29l29 -217 q-2 -14 -4 -23t-27 -18q-86 -27 -172 -34t-151 -7q-180 0 -256 80t-55 222l73 532h-139q-25 0 -28 13.5t-1 29.5zM152 -635l86 420q4 20 13 33.5t38 13.5h223q31 0 34 -15.5t-3 -31.5l-193 -418q-10 -23 -19 -32t-32 -9h-106q-49 0 -41 39z" />
<glyph unicode="&#x164;" horiz-adv-x="1169" d="M131 1155l33 229q4 35 14 42.5t33 7.5h1046q25 0 33 -7.5t4 -42.5l-32 -229q-8 -47 -50 -47h-340l-151 -1065q-4 -25 -11.5 -34t-39.5 -9h-283q-47 0 -41 43l152 1065h-332q-43 0 -35 47zM355.5 1857.5q-1.5 12.5 21.5 30.5l74 64q20 18 33.5 17t29.5 -13l254 -174 l324 180q27 16 41 17t24 -17l51 -74q16 -18 16.5 -31.5t-20.5 -31.5l-307 -246q-45 -35 -83 -55.5t-85 -20.5q-37 0 -74 21.5t-65 54.5l-221 248q-12 18 -13.5 30.5z" />
<glyph unicode="&#x165;" horiz-adv-x="1079" d="M98 854l21 145q4 20 9 27.5t30 13.5l145 37l27 189q4 29 18 40t35 17l276 84q23 6 35.5 -3t7.5 -36l-40 -293h221q27 0 29.5 -8t-1.5 -29l-26 -184q-4 -23 -7.5 -33t-31.5 -10h-221l-60 -432q-8 -51 14.5 -69.5t77.5 -18.5q31 0 71 5t65 9q35 2 36 -29l29 -217 q-2 -14 -4 -23t-27 -18q-86 -27 -172 -34t-151 -7q-180 0 -256 80t-55 222l73 532h-139q-25 0 -28 13.5t-1 29.5zM899 1229l86 420q4 20 13.5 33.5t37.5 13.5h224q31 0 33.5 -15.5t-3.5 -31.5l-192 -418q-10 -23 -19.5 -32t-31.5 -9h-107q-49 0 -41 39z" />
<glyph unicode="&#x166;" horiz-adv-x="1169" d="M125 616.5q-4 6.5 0 30.5l18 127q2 35 29 35h283l43 299h-332q-43 0 -35 47l33 229q4 35 14 42.5t33 7.5h1046q25 0 33 -7.5t4 -42.5l-32 -229q-8 -47 -50 -47h-340l-43 -299h308q23 0 20 -35l-18 -127q-4 -25 -10.5 -31t-20.5 -6h-307l-80 -567q-4 -25 -11.5 -34 t-39.5 -9h-283q-47 0 -41 43l80 567h-283q-14 0 -18 6.5z" />
<glyph unicode="&#x167;" horiz-adv-x="903" d="M86 524l18 119q2 35 31 35h113l18 133h-139q-25 0 -28 13.5t-1 29.5l21 145q4 20 9 27.5t30 13.5l145 37l27 189q4 29 18 40t35 17l276 84q23 6 35.5 -3t7.5 -36l-40 -293h221q27 0 29.5 -8t-1.5 -29l-26 -184q-4 -23 -7.5 -33t-31.5 -10h-221l-19 -133h199q23 0 20 -35 l-18 -119q-4 -25 -9 -31t-20 -6h-198l-15 -94q-6 -51 16.5 -69.5t77.5 -18.5q31 0 73 5t67 9t30 -8t7 -28l22 -224q-2 -14 -4 -22t-27 -19q-41 -14 -89 -22t-94 -12t-85 -5.5t-61 -1.5q-180 0 -253 80t-52 222l28 208h-112q-16 0 -21.5 6.5t-1.5 30.5z" />
<glyph unicode="&#x168;" horiz-adv-x="1474" d="M176.5 283.5q-22.5 115.5 1.5 291.5l115 816q6 43 51 43h283q33 0 39 -9.5t2 -33.5l-121 -852q-16 -121 33 -174.5t184 -53.5h33.5t51.5 2t54.5 3t42.5 6l150 1069q4 23 14 33t37 10h280q33 0 39.5 -9.5t1.5 -33.5l-170 -1192q-10 -66 -43.5 -118t-113.5 -75 q-41 -12 -97.5 -18t-110.5 -9.5t-100.5 -4.5t-68.5 -1q-176 0 -299 28t-194.5 97.5t-94 185zM482 1647.5q1 9.5 14 29.5q57 92 129.5 145.5t165.5 53.5q39 0 73.5 -14.5t66.5 -32t64.5 -31.5t67.5 -14q27 0 51.5 20.5t59.5 61.5q18 23 23 26.5t24 -6.5l94 -47 q23 -12 27 -21.5t-13 -37.5q-113 -217 -291 -217q-37 0 -71.5 14t-68.5 30.5t-66.5 31t-65.5 14.5q-57 0 -111 -66q-16 -20 -27.5 -26.5t-37.5 10.5l-82 51q-27 16 -26 25.5z" />
<glyph unicode="&#x169;" horiz-adv-x="1253" d="M144.5 260q-17.5 102 5.5 254l71 520q4 25 12.5 33t40.5 8h269q47 0 41 -41l-78 -555q-6 -53 -6 -92t14 -64.5t46 -39t85 -13.5q18 0 50 2t59 7l104 755q4 25 12.5 33t42.5 8h265q45 0 39 -41l-123 -874q-8 -66 -34 -106t-97 -56q-20 -4 -61.5 -9t-88.5 -8.5t-94 -5.5 t-80 -2q-154 0 -257 28t-161.5 92.5t-76 166.5zM334.5 1266.5q1.5 9.5 13.5 29.5q57 92 130 145.5t165 53.5q39 0 74 -14.5t66.5 -31.5t64.5 -31.5t67 -14.5q27 0 51.5 20.5t59.5 61.5q18 23 23.5 27t23.5 -7l94 -47q23 -12 27 -21.5t-12 -37.5q-113 -217 -291 -217 q-37 0 -72 14t-68.5 30.5t-66.5 31t-66 14.5q-57 0 -110 -66q-16 -20 -27.5 -26t-38.5 10l-82 51q-27 16 -25.5 25.5z" />
<glyph unicode="&#x16a;" horiz-adv-x="1474" d="M176.5 283.5q-22.5 115.5 1.5 291.5l115 816q6 43 51 43h283q33 0 39 -9.5t2 -33.5l-121 -852q-16 -121 33 -174.5t184 -53.5h33.5t51.5 2t54.5 3t42.5 6l150 1069q4 23 14 33t37 10h280q33 0 39.5 -9.5t1.5 -33.5l-170 -1192q-10 -66 -43.5 -118t-113.5 -75 q-41 -12 -97.5 -18t-110.5 -9.5t-100.5 -4.5t-68.5 -1q-176 0 -299 28t-194.5 97.5t-94 185zM541 1630l22 152q4 35 16.5 42t36.5 7h578q23 0 33 -7t6 -42l-23 -152q-6 -47 -51 -47h-577q-47 0 -41 47z" />
<glyph unicode="&#x16b;" horiz-adv-x="1253" d="M144.5 260q-17.5 102 5.5 254l71 520q4 25 12.5 33t40.5 8h269q47 0 41 -41l-78 -555q-6 -53 -6 -92t14 -64.5t46 -39t85 -13.5q18 0 50 2t59 7l104 755q4 25 12.5 33t42.5 8h265q45 0 39 -41l-123 -874q-8 -66 -34 -106t-97 -56q-20 -4 -61.5 -9t-88.5 -8.5t-94 -5.5 t-80 -2q-154 0 -257 28t-161.5 92.5t-76 166.5zM410 1249l22 152q4 35 16.5 42t36.5 7h578q23 0 33 -7t6 -42l-23 -152q-6 -47 -51 -47h-577q-47 0 -41 47z" />
<glyph unicode="&#x16c;" horiz-adv-x="1474" d="M176.5 283.5q-22.5 115.5 1.5 291.5l115 816q6 43 51 43h283q33 0 39 -9.5t2 -33.5l-121 -852q-16 -121 33 -174.5t184 -53.5h33.5t51.5 2t54.5 3t42.5 6l150 1069q4 23 14 33t37 10h280q33 0 39.5 -9.5t1.5 -33.5l-170 -1192q-10 -66 -43.5 -118t-113.5 -75 q-41 -12 -97.5 -18t-110.5 -9.5t-100.5 -4.5t-68.5 -1q-176 0 -299 28t-194.5 97.5t-94 185zM475 1801q-2 11 17 28l122 110q23 14 29 10.5t21 -16.5q113 -141 231 -141q25 0 50.5 3t58 17.5t73.5 43t97 79.5q23 16 29.5 15.5t17.5 -11.5l88 -94q18 -18 14 -28.5t-12 -18.5 q-117 -133 -227.5 -199.5t-239.5 -66.5q-66 0 -121 21.5t-100 56.5t-81 80t-61 94q-4 6 -6 17z" />
<glyph unicode="&#x16d;" horiz-adv-x="1253" d="M144.5 260q-17.5 102 5.5 254l71 520q4 25 12.5 33t40.5 8h269q47 0 41 -41l-78 -555q-6 -53 -6 -92t14 -64.5t46 -39t85 -13.5q18 0 50 2t59 7l104 755q4 25 12.5 33t42.5 8h265q45 0 39 -41l-123 -874q-8 -66 -34 -106t-97 -56q-20 -4 -61.5 -9t-88.5 -8.5t-94 -5.5 t-80 -2q-154 0 -257 28t-161.5 92.5t-76 166.5zM350 1440.5q-2 11.5 17 27.5l122 111q23 14 29 10t21 -16q113 -141 231 -141q25 0 50.5 3t58 17t73.5 43t97 80q23 16 29.5 15t17.5 -11l88 -94q18 -18 14 -28.5t-12 -18.5q-117 -133 -227.5 -200t-239.5 -67q-66 0 -121 21.5 t-100 56.5t-81 80t-61 94q-4 6 -6 17.5z" />
<glyph unicode="&#x16e;" horiz-adv-x="1474" d="M176.5 283.5q-22.5 115.5 1.5 291.5l115 816q6 43 51 43h283q33 0 39 -9.5t2 -33.5l-121 -852q-16 -121 33 -174.5t184 -53.5h33.5t51.5 2t54.5 3t42.5 6l150 1069q4 23 14 33t37 10h280q33 0 39.5 -9.5t1.5 -33.5l-170 -1192q-10 -66 -43.5 -118t-113.5 -75 q-41 -12 -97.5 -18t-110.5 -9.5t-100.5 -4.5t-68.5 -1q-176 0 -299 28t-194.5 97.5t-94 185zM618 1724q0 70 26 128.5t70 100.5t101.5 65.5t120.5 23.5q109 0 176.5 -63.5t67.5 -168.5q0 -70 -27 -128t-71 -100t-102 -65.5t-122 -23.5q-109 0 -174.5 63.5t-65.5 167.5z M807 1749q0 -37 20.5 -58.5t55.5 -21.5q41 0 74.5 31t33.5 84q0 35 -22.5 57.5t-57.5 22.5q-43 0 -73.5 -33t-30.5 -82z" />
<glyph unicode="&#x16f;" horiz-adv-x="1253" d="M144.5 260q-17.5 102 5.5 254l71 520q4 25 12.5 33t40.5 8h269q47 0 41 -41l-78 -555q-6 -53 -6 -92t14 -64.5t46 -39t85 -13.5q18 0 50 2t59 7l104 755q4 25 12.5 33t42.5 8h265q45 0 39 -41l-123 -874q-8 -66 -34 -106t-97 -56q-20 -4 -61.5 -9t-88.5 -8.5t-94 -5.5 t-80 -2q-154 0 -257 28t-161.5 92.5t-76 166.5zM502 1380q0 70 25.5 128.5t69.5 100.5t101.5 65.5t120.5 23.5q109 0 176.5 -63.5t67.5 -168.5q0 -70 -26.5 -128t-70.5 -100t-102.5 -65.5t-122.5 -23.5q-109 0 -174 63.5t-65 167.5zM690 1405q0 -37 20.5 -58.5t55.5 -21.5 q41 0 74.5 30.5t33.5 84.5q0 35 -22 57.5t-57 22.5q-43 0 -74 -33t-31 -82z" />
<glyph unicode="&#x170;" horiz-adv-x="1474" d="M176.5 283.5q-22.5 115.5 1.5 291.5l115 816q6 43 51 43h283q33 0 39 -9.5t2 -33.5l-121 -852q-16 -121 33 -174.5t184 -53.5h33.5t51.5 2t54.5 3t42.5 6l150 1069q4 23 14 33t37 10h280q33 0 39.5 -9.5t1.5 -33.5l-170 -1192q-10 -66 -43.5 -118t-113.5 -75 q-41 -12 -97.5 -18t-110.5 -9.5t-100.5 -4.5t-68.5 -1q-176 0 -299 28t-194.5 97.5t-94 185zM514 1639.5q-2 11.5 18 25.5l357 279q16 12 25.5 13t25.5 -13l123 -154q12 -10 8 -23.5t-16 -19.5l-414 -227q-20 -10 -30.5 -7t-20.5 13l-64 92q-10 10 -12 21.5zM989 1639.5 q-2 11.5 19 25.5l356 279q14 12 24.5 13t26.5 -13l123 -154q10 -10 7 -23.5t-15 -19.5l-414 -227q-20 -10 -30.5 -7t-20.5 13l-64 92q-10 10 -12 21.5z" />
<glyph unicode="&#x171;" horiz-adv-x="1253" d="M144.5 260q-17.5 102 5.5 254l71 520q4 25 12.5 33t40.5 8h269q47 0 41 -41l-78 -555q-6 -53 -6 -92t14 -64.5t46 -39t85 -13.5q18 0 50 2t59 7l104 755q4 25 12.5 33t42.5 8h265q45 0 39 -41l-123 -874q-8 -66 -34 -106t-97 -56q-20 -4 -61.5 -9t-88.5 -8.5t-94 -5.5 t-80 -2q-154 0 -257 28t-161.5 92.5t-76 166.5zM429.5 1222.5q-5.5 8.5 6.5 30.5l195 383q8 16 17 22.5t32 2.5l229 -62q16 -4 19.5 -16t-6.5 -22l-297 -381q-12 -18 -22.5 -20.5t-27.5 1.5l-126 49q-14 4 -19.5 12.5zM800 1222.5q-5 8.5 7 30.5l197 383q8 16 17 22.5 t30 2.5l231 -62q16 -4 18.5 -16t-8.5 -22l-297 -381q-12 -18 -22 -20.5t-25 1.5l-127 49q-16 4 -21 12.5z" />
<glyph unicode="&#x172;" horiz-adv-x="1474" d="M170 315.5q-14 106.5 8 259.5l115 816q6 43 51 43h283q33 0 39 -9.5t2 -33.5l-121 -852q-16 -121 33 -174.5t184 -53.5h33.5t51.5 2t54.5 3t42.5 6l150 1069q4 23 14 33t37 10h280q33 0 39.5 -9.5t1.5 -33.5l-170 -1192q-10 -66 -43.5 -118t-113.5 -75q-37 -10 -85 -16 t-96.5 -9.5t-92.5 -5.5t-74 -2q-55 -53 -78 -98t-23 -88q0 -74 96 -74q27 0 66 3t68 10q20 4 30.5 1t10.5 -22l22 -100q6 -33 -27 -45q-86 -35 -161 -43.5t-138 -8.5q-117 0 -174 49.5t-57 123.5q0 59 44 143t120 158q-129 12 -217 49t-139.5 107.5t-65.5 177z" />
<glyph unicode="&#x173;" horiz-adv-x="1253" d="M144.5 260q-17.5 102 5.5 254l71 520q4 25 12.5 33t40.5 8h269q47 0 41 -41l-78 -555q-6 -53 -6 -92t14 -64.5t46 -39t85 -13.5q18 0 50 2t59 7l104 755q4 25 12.5 33t42.5 8h265q45 0 39 -41l-123 -874q-8 -57 -27.5 -95t-73.5 -59q-76 -63 -104.5 -114.5t-28.5 -100.5 q0 -74 96 -74q27 0 66 3.5t68 9.5q20 4 30 1t10 -22l23 -100q6 -33 -27 -45q-86 -35 -161 -43t-138 -8q-117 0 -174 49t-57 123q0 29 11 64.5t30.5 74.5t48.5 78t66 75q-33 -2 -61.5 -3t-51.5 -1q-154 0 -257 28t-161.5 92.5t-76 166.5z" />
<glyph unicode="&#x174;" horiz-adv-x="1898" d="M170 1389q-4 39 8 45t39 6h291q39 0 56.5 -7.5t19.5 -52.5l6 -417l10 -394h14l142 404l118 336q16 43 31 67.5t32 37.5t40.5 17.5t56.5 4.5h137q33 0 52.5 -5.5t30 -18.5t15.5 -34.5t9 -54.5l29 -383l26 -356h15l102 354l127 434q12 45 25.5 54.5t46.5 9.5l340 2 q23 0 33 -7.5t-5 -46.5l-473 -1263q-18 -47 -34.5 -74t-36 -39t-43 -14t-56.5 -2h-117q-35 0 -60.5 1t-43.5 12t-30.5 37t-18.5 73l-33 374l-35 414h-12l-156 -411l-143 -377q-18 -45 -35.5 -70t-38 -37t-46 -14t-60.5 -2h-129q-33 0 -56.5 1t-40 11t-25.5 36t-15 73z M707 1611.5q4 12.5 20 30.5l291 248q39 33 82 54.5t78 21.5q47 0 79.5 -20.5t67.5 -55.5l238 -245q16 -18 13 -32t-26 -32l-71 -74q-14 -18 -28.5 -17t-37.5 17l-274 181l-303 -175q-20 -12 -31.5 -13t-28.5 18l-57 63q-16 18 -12 30.5z" />
<glyph unicode="&#x175;" horiz-adv-x="1640" d="M115 1028q-4 29 7 38t36 9h272q31 0 46.5 -3t17.5 -38l10 -262l6 -317h12l103 250l88 202q31 63 58.5 85t82.5 22h135q53 0 68.5 -28t27.5 -75l37 -227l29 -219h12l90 332l72 231q10 35 20.5 40t40.5 5l293 2q27 0 35 -9t-2 -38l-375 -919q-31 -72 -63.5 -94.5 t-85.5 -22.5h-121q-29 0 -49.5 3t-35.5 14t-25.5 34t-18.5 63l-41 236l-37 227h-10l-107 -225l-110 -238q-23 -41 -39 -63.5t-32.5 -33.5t-37 -14t-49.5 -3h-129q-53 0 -80.5 22.5t-38.5 94.5zM523.5 1251.5q2.5 12.5 19.5 30.5l297 289q39 35 81 57.5t76 22.5 q57 0 90 -19.5t62 -60.5l233 -287q14 -18 10.5 -31.5t-24.5 -31.5l-74 -64q-18 -14 -32.5 -13t-32.5 17l-246 211l-311 -235q-18 -12 -30.5 -10.5t-29.5 18.5l-77 76q-14 18 -11.5 30.5z" />
<glyph unicode="&#x176;" horiz-adv-x="1310" d="M160 1386q-6 14 2 31t39 17h299q41 0 50 -12.5t15 -41.5l72 -250l65 -274h13l145 279l146 254q12 23 26.5 34t42.5 11h334q39 0 37 -15.5t-10 -29.5l-570 -889l-63 -453q-4 -25 -12.5 -36t-40.5 -11h-283q-45 0 -39 47l61 447zM387 1611.5q4 12.5 21 30.5l290 248 q39 33 82 54.5t78 21.5q47 0 80 -20.5t68 -55.5l237 -245q16 -18 13 -32t-25 -32l-72 -74q-14 -18 -28.5 -17t-36.5 17l-275 181l-303 -175q-20 -12 -31.5 -13t-27.5 18l-58 63q-16 18 -12 30.5z" />
<glyph unicode="&#x177;" horiz-adv-x="1200" d="M47 -401.5q-4 10.5 2 39.5l47 196q6 29 17.5 30t38.5 -3q31 -4 52 -6t42 -2q35 0 58.5 4t42 16t33.5 34.5t34 61.5l43 90h-62q-53 0 -68.5 20.5t-25.5 72.5l-182 874q-8 29 5 38t32 9h280q41 0 54.5 -7t17.5 -40l35 -344l37 -340h12l137 348l129 328q14 33 27.5 44 t54.5 11h317q43 0 21 -39l-580 -1218q-29 -61 -62.5 -110.5t-78.5 -83.5t-103.5 -52.5t-138.5 -18.5q-51 0 -111.5 7.5t-125.5 23.5q-27 6 -31 16.5zM296 1251.5q3 12.5 19 30.5l297 289q39 35 81 57.5t77 22.5q57 0 90 -19.5t62 -60.5l233 -287q14 -18 10 -31.5t-24 -31.5 l-74 -64q-18 -14 -32.5 -13t-33.5 17l-245 211l-312 -235q-18 -12 -30.5 -10.5t-28.5 18.5l-78 76q-14 18 -11 30.5z" />
<glyph unicode="&#x178;" horiz-adv-x="1310" d="M160 1386q-6 14 2 31t39 17h299q41 0 50 -12.5t15 -41.5l72 -250l65 -274h13l145 279l146 254q12 23 26.5 34t42.5 11h334q39 0 37 -15.5t-10 -29.5l-570 -889l-63 -453q-4 -25 -12.5 -36t-40.5 -11h-283q-45 0 -39 47l61 447zM438 1647q0 41 16.5 77.5t44 64.5t63.5 43 t73 15q63 0 105 -44t42 -109q0 -37 -17 -73t-45 -62.5t-62.5 -43t-71.5 -16.5q-61 0 -104.5 43t-43.5 105zM879 1647q0 41 16 77.5t44 64.5t63.5 43t74.5 15q61 0 102.5 -43t41.5 -108q0 -39 -16.5 -74t-44 -62.5t-62.5 -44t-70 -16.5q-66 0 -107.5 43t-41.5 105z" />
<glyph unicode="&#x179;" horiz-adv-x="1267" d="M25 117l8 63q8 55 35.5 98.5t68.5 86.5l666 722l4 21h-520q-43 0 -35 47l33 229q4 35 14 42.5t33 7.5h905q68 0 91.5 -25t12.5 -96l-12 -88q-8 -49 -42 -97.5t-64 -83.5l-645 -700l2 -16h579q25 0 33 -7.5t4 -41.5l-33 -232q-8 -47 -49 -47h-985q-61 0 -88 25.5t-16 91.5 zM676 1640.5q-2 10.5 18 26.5l377 289q16 12 26.5 13t26.5 -13l142 -180q12 -10 8 -23.5t-17 -17.5l-438 -236q-18 -10 -27.5 -7t-19.5 13l-86 115q-8 10 -10 20.5z" />
<glyph unicode="&#x17a;" horiz-adv-x="1056" d="M10 94l13 84q4 33 17 64.5t52 70.5l463 461l-8 10h-350q-27 0 -32 7.5t-1 33.5l29 207q4 27 15 35t32 8h735q47 0 72.5 -13t17.5 -67l-14 -100q-4 -35 -17.5 -65.5t-42.5 -59.5l-456 -457l6 -12h407q20 0 28.5 -7t4.5 -34l-29 -215q-4 -29 -12 -37t-31 -8h-805 q-49 0 -74.5 23.5t-19.5 70.5zM529.5 1222.5q-5.5 8.5 7.5 30.5l194 383q8 16 17.5 22.5t31.5 2.5l240 -62q16 -4 19 -16t-7 -22l-299 -381q-10 -18 -20.5 -20.5t-26.5 1.5l-137 49q-14 4 -19.5 12.5z" />
<glyph unicode="&#x17b;" horiz-adv-x="1267" d="M25 117l8 63q8 55 35.5 98.5t68.5 86.5l666 722l4 21h-520q-43 0 -35 47l33 229q4 35 14 42.5t33 7.5h905q68 0 91.5 -25t12.5 -96l-12 -88q-8 -49 -42 -97.5t-64 -83.5l-645 -700l2 -16h579q25 0 33 -7.5t4 -41.5l-33 -232q-8 -47 -49 -47h-985q-61 0 -88 25.5t-16 91.5 zM666 1690q0 47 18 88t49 71.5t71 48t83 17.5q74 0 121 -47t47 -121q0 -47 -19.5 -88t-50.5 -70.5t-71 -47t-83 -17.5q-72 0 -118.5 46t-46.5 120z" />
<glyph unicode="&#x17c;" horiz-adv-x="1056" d="M10 94l13 84q4 33 17 64.5t52 70.5l463 461l-8 10h-350q-27 0 -32 7.5t-1 33.5l29 207q4 27 15 35t32 8h735q47 0 72.5 -13t17.5 -67l-14 -100q-4 -35 -17.5 -65.5t-42.5 -59.5l-456 -457l6 -12h407q20 0 28.5 -7t4.5 -34l-29 -215q-4 -29 -12 -37t-31 -8h-805 q-49 0 -74.5 23.5t-19.5 70.5zM504 1370q0 47 18.5 88t49 72t70.5 48t83 17q74 0 121 -47t47 -121q0 -47 -19.5 -88t-50 -70.5t-70.5 -47t-83 -17.5q-72 0 -119 46t-47 120z" />
<glyph unicode="&#x17d;" horiz-adv-x="1267" d="M25 117l8 63q8 55 35.5 98.5t68.5 86.5l666 722l4 21h-520q-43 0 -35 47l33 229q4 35 14 42.5t33 7.5h905q68 0 91.5 -25t12.5 -96l-12 -88q-8 -49 -42 -97.5t-64 -83.5l-645 -700l2 -16h579q25 0 33 -7.5t4 -41.5l-33 -232q-8 -47 -49 -47h-985q-61 0 -88 25.5t-16 91.5 zM478.5 1857.5q-1.5 12.5 21.5 30.5l73 64q20 18 34 17t30 -13l254 -174l323 180q27 16 41.5 17t24.5 -17l51 -74q16 -18 16.5 -31.5t-20.5 -31.5l-307 -246q-45 -35 -83 -55.5t-85 -20.5q-37 0 -74 21.5t-65 54.5l-221 248q-12 18 -13.5 30.5z" />
<glyph unicode="&#x17e;" horiz-adv-x="1056" d="M10 94l13 84q4 33 17 64.5t52 70.5l463 461l-8 10h-350q-27 0 -32 7.5t-1 33.5l29 207q4 27 15 35t32 8h735q47 0 72.5 -13t17.5 -67l-14 -100q-4 -35 -17.5 -65.5t-42.5 -59.5l-456 -457l6 -12h407q20 0 28.5 -7t4.5 -34l-29 -215q-4 -29 -12 -37t-31 -8h-805 q-49 0 -74.5 23.5t-19.5 70.5zM283 1560.5q0 12.5 20 30.5l80 66q23 16 35 16t26 -12l244 -211l320 211q25 16 38 15t27 -15l64 -70q14 -18 14 -31.5t-21 -31.5l-311 -287q-41 -41 -80 -60.5t-96 -19.5q-35 0 -70.5 22.5t-62.5 57.5l-217 289q-10 18 -10 30.5z" />
<glyph unicode="&#x192;" horiz-adv-x="1384" d="M58.5 -207q-1.5 8 4.5 29l52 164q6 25 15 25.5t30 -3.5q16 -4 40.5 -7t41.5 -3q29 0 51 7t39.5 25.5t33 52.5t27.5 87q20 80 34.5 144.5t26 119.5t22.5 106.5t24 108.5h-154q-23 0 -29 12.5t-6 34.5v160q2 29 14.5 35t28.5 6h199l37 168q16 68 41.5 138.5t71 129t116 95 t176.5 36.5q35 0 100.5 -5t135.5 -25q23 -6 27 -15.5t-1 -29.5l-32 -170q-4 -23 -14.5 -25t-45.5 4q-29 4 -53.5 6t-46.5 2q-53 -2 -92 -35.5t-64 -130.5q-10 -37 -17 -67.5t-18 -73.5h183q18 0 26.5 -5t8.5 -32v-170q0 -29 -5.5 -36t-33.5 -7h-232q-25 -111 -50.5 -235.5 t-53.5 -235.5q-25 -96 -52.5 -179t-72.5 -143.5t-114.5 -95t-178.5 -34.5q-23 0 -52.5 3t-60 9t-61.5 15t-51 24q-14 8 -15.5 16z" />
<glyph unicode="&#x1a0;" horiz-adv-x="1628" d="M150 559q0 201 50 367t144 283.5t228.5 182t301.5 64.5q137 0 238.5 -39t167.5 -110q88 10 137 59t66 176l12 88q4 27 17.5 33t29.5 6h184q23 0 30 -8t3 -31l-18 -141q-10 -76 -37 -144.5t-69 -124t-99 -94.5t-129 -53q10 -41 14 -94.5t4 -104.5q0 -199 -46 -363.5 t-138 -283t-229.5 -184.5t-317.5 -66q-143 0 -245.5 39t-169 114t-98 183.5t-31.5 245.5zM545 575q0 -119 44 -185t150 -66q76 0 130.5 46t90 121.5t52 169t16.5 189.5q0 57 -9 105.5t-30.5 83t-57.5 54t-91 19.5q-74 0 -129.5 -47t-92 -124t-55 -172t-18.5 -194z" />
<glyph unicode="&#x1a1;" horiz-adv-x="1409" d="M104 408q0 166 42 294.5t121 219t191 137.5t253 47q129 0 221 -39t149 -111q55 23 93 75t55 151l12 88q4 27 16.5 33t30.5 6h185q20 0 28 -8.5t4 -30.5l-20 -142q-10 -72 -36 -137t-66 -118.5t-94 -93.5t-122 -58q2 -18 3 -36.5t1 -39.5q0 -152 -39.5 -274.5 t-116.5 -210.5t-190.5 -135.5t-259.5 -47.5q-244 0 -352.5 115t-108.5 316zM483 455q0 -86 31 -124t90 -38q84 0 136.5 91t52.5 245q0 162 -119 162q-84 0 -137.5 -84t-53.5 -252z" />
<glyph unicode="&#x1af;" horiz-adv-x="1679" d="M176.5 283.5q-22.5 115.5 1.5 291.5l115 816q6 43 51 43h283q33 0 39 -9.5t2 -33.5l-121 -852q-16 -121 33 -174.5t184 -53.5h33.5t51.5 2t54.5 3t42.5 6l150 1069q4 23 14 33t37 10h280q33 0 39.5 -9.5t1.5 -33.5l-14 -95h25q43 0 66.5 14.5t35.5 40t17.5 60.5t11.5 74 l20 141q4 27 17.5 33t29.5 6h187q20 0 27 -8t3 -31l-26 -192q-10 -74 -34 -143.5t-70 -124t-119.5 -88.5t-182.5 -34h-45l-119 -845q-10 -66 -43.5 -118t-113.5 -75q-41 -12 -97.5 -18t-110.5 -9.5t-100.5 -4.5t-68.5 -1q-176 0 -299 28t-194.5 97.5t-94 185z" />
<glyph unicode="&#x1b0;" horiz-adv-x="1507" d="M144.5 260q-17.5 102 5.5 254l71 520q4 25 12.5 33t40.5 8h269q47 0 41 -41l-78 -555q-6 -53 -6 -92t14 -64.5t46 -39t85 -13.5q18 0 50 2t59 7l104 755q4 25 12.5 33t42.5 8h265q45 0 39 -41l-11 -84h25q43 0 66.5 14.5t36 40t17.5 60.5t11 74l18 141q4 27 17.5 33 t29.5 6h187q20 0 27.5 -8t3.5 -31l-27 -193q-10 -74 -33.5 -143.5t-70 -123.5t-120 -88t-182.5 -34h-43l-75 -538q-8 -66 -34 -106t-97 -56q-20 -4 -61.5 -9t-88.5 -8.5t-94 -5.5t-80 -2q-154 0 -257 28t-161.5 92.5t-76 166.5z" />
<glyph unicode="&#x1fc;" horiz-adv-x="1929" d="M-22.5 12.5q-10.5 12.5 6.5 36.5l489 1051q51 106 105.5 172.5t115 101.5t130 47.5t151.5 12.5h964q23 0 29 -7.5t2 -42.5l-33 -231q-4 -27 -13 -36t-30 -9h-432q-41 0 -65.5 -11.5t-40 -27.5t-22.5 -36.5t-9 -41.5l-12 -86h514q23 0 28 -8t0 -43l-30 -213 q-6 -47 -43 -47h-514l-21 -154q-6 -39 0 -61.5t21.5 -33.5t37 -14t46.5 -3h503q25 0 31 -7.5t2 -41.5l-33 -232q-4 -27 -13 -37t-32 -10h-639q-96 0 -156.5 23.5t-94 62.5t-47 90t-15.5 107h-379l-104 -236q-10 -23 -22.5 -35t-47.5 -12h-299q-18 0 -28.5 12.5zM608 578h283 l65 466q6 43 19 86q-76 0 -112 -29.5t-56 -70.5l-94 -211zM1141 1640.5q-2 10.5 18 26.5l377 289q16 12 26.5 13t26.5 -13l142 -180q12 -10 8 -23.5t-17 -17.5l-438 -236q-18 -10 -27.5 -7t-19.5 13l-86 115q-8 10 -10 20.5z" />
<glyph unicode="&#x1fd;" horiz-adv-x="1777" d="M82 297q0 117 37 192.5t101.5 118.5t151.5 59.5t187 16.5q47 0 94 -3t97 -7q4 14 6 28.5t2 26.5q0 90 -125 90q-53 0 -132 -9t-157 -26q-43 -8 -51 31l-37 176q-4 29 4 38t25 15q197 63 417 64q92 0 171 -18.5t126 -61.5q131 78 314 78q86 0 166 -15.5t140 -52.5t96 -98 t36 -154q0 -182 -127 -275t-367 -93q-37 0 -76.5 2t-80.5 6q0 -8 -1 -14t-1 -15q0 -37 12 -59.5t33.5 -32.5t52.5 -13t70 -3q51 0 101 11t114 32q29 10 38 6t15 -21l78 -192q6 -20 -2 -30.5t-25 -20.5q-41 -25 -96 -43.5t-115.5 -30.5t-117 -17.5t-99.5 -5.5q-211 0 -317 84 q-43 -23 -89 -39t-93.5 -26t-90.5 -15.5t-80 -5.5q-115 0 -192.5 24t-124.5 67t-67.5 101t-20.5 130zM461 352q-1 -86 114 -86q12 0 57.5 4t82.5 23q-4 23 -6 45t-2 47q0 18 1 36.5t3 37.5q-43 6 -88 6q-33 0 -62 -5t-51.5 -17.5t-35.5 -34t-13 -56.5zM875.5 1222.5 q-5.5 8.5 7.5 30.5l194 383q8 16 17.5 22.5t31.5 2.5l240 -62q16 -4 19.5 -16t-7.5 -22l-299 -381q-10 -18 -20 -20.5t-27 1.5l-137 49q-14 4 -19.5 12.5zM1133 645q12 -2 23 -2h26q119 0 159.5 25.5t40.5 74.5q0 27 -18.5 48.5t-69.5 21.5q-63 0 -105 -40t-56 -128z" />
<glyph unicode="&#x1fe;" horiz-adv-x="1476" d="M68 69.5q2 8.5 18 26.5l127 131q-33 66 -48 150t-15 182q0 201 50 367t144 283.5t228 182t302 64.5q133 0 231.5 -37t168.5 -104l96 98q33 35 51 14l39 -38q12 -12 12.5 -22.5t-20.5 -29.5l-111 -112q84 -143 84 -351q0 -199 -46 -363.5t-138 -283t-229.5 -184.5 t-317.5 -66q-285 0 -418 156l-112 -117q-20 -20 -27.5 -21t-17.5 9l-39 43q-14 14 -12 22.5zM545 565l448 461q-23 41 -58.5 63.5t-94.5 22.5q-74 0 -129.5 -47t-92 -124t-55 -172t-18.5 -194v-10zM567 430q41 -106 172 -106q76 0 130.5 46t90 121.5t52 169t16.5 189.5 q0 12 -1 25.5t-1 25.5zM752 1658.5q-2 10.5 18 27.5l377 288q16 12 26.5 13.5t26.5 -13.5l141 -180q12 -10 8.5 -23.5t-16.5 -17.5l-438 -235q-18 -10 -27.5 -7.5t-19.5 13.5l-86 114q-8 10 -10 20.5z" />
<glyph unicode="&#x1ff;" horiz-adv-x="1228" d="M58 12q5 8 12 17l108 104q-39 53 -56.5 122t-17.5 153q0 166 42 294.5t121 219t191 137.5t253 47q229 0 344 -119l100 98q14 12 19.5 13.5t15.5 -8.5l20 -21q10 -12 11.5 -18.5t-11.5 -18.5l-108 -104q70 -109 69 -283q0 -152 -39.5 -274.5t-116.5 -210.5t-190.5 -135.5 t-259.5 -47.5q-225 0 -338 101l-106 -103q-10 -10 -18.5 -13t-18.5 7l-21 23q-10 12 -5 20zM483 432l295 287q-24 72 -104 72q-84 0 -137.5 -84t-53.5 -252v-23zM504 346q26 -53 100 -53q84 0 135.5 90t53.5 244zM595 1222.5q-5 8.5 7 30.5l195 383q8 16 17 22.5t32 2.5 l239 -62q16 -4 19.5 -16t-6.5 -22l-299 -381q-10 -18 -20.5 -20.5t-26.5 1.5l-138 49q-14 4 -19 12.5z" />
<glyph unicode="&#x218;" horiz-adv-x="1224" d="M46.5 153.5q-1.5 14.5 14.5 45.5l91 194q18 35 33.5 39t43.5 -8q27 -12 69 -28.5t92 -32t105.5 -25.5t110.5 -10q57 0 89 13t47.5 30.5t19.5 36t4 28.5q0 27 -25.5 51.5t-113.5 65.5q-92 45 -169 92t-132.5 102.5t-87 121t-31.5 145.5q0 96 33.5 178t101.5 140.5t169 91 t234 32.5q59 0 121 -6t118 -17.5t107.5 -29t90.5 -41.5q31 -16 36 -32.5t-12 -63.5l-55 -170q-14 -41 -32.5 -46.5t-53.5 5.5q-82 25 -167 42t-163 17q-74 0 -99.5 -24.5t-25.5 -55.5q0 -12 5.5 -23.5t19.5 -25.5t39.5 -28.5t66.5 -32.5q104 -43 187.5 -90.5t140.5 -104.5 t88 -127t31 -158q0 -119 -43 -205.5t-121 -145t-188.5 -87.5t-245.5 -29q-68 0 -139.5 8.5t-141 27t-132 46t-111.5 66.5q-18 14 -19.5 28.5zM369 -635l86 420q4 20 13 33.5t38 13.5h223q31 0 34 -15.5t-3 -31.5l-193 -418q-10 -23 -19 -32t-32 -9h-106q-49 0 -41 39z" />
<glyph unicode="&#x219;" horiz-adv-x="1026" d="M46 112.5q1 12.5 11 37.5l76 169q12 29 24.5 32t35.5 -7q84 -35 157.5 -52.5t132.5 -17.5q57 0 73.5 19.5t16.5 42.5q0 18 -24.5 36.5t-99.5 53.5q-137 59 -212 141t-77 195q0 76 28.5 139.5t84 108.5t136 70.5t185.5 25.5q98 0 197.5 -21.5t164.5 -56.5q25 -14 27 -24.5 t-12 -45.5l-58 -145q-12 -29 -24 -34t-39 3q-66 18 -128.5 31.5t-127.5 13.5q-20 0 -32.5 -7t-18.5 -16t-8.5 -17.5t-2.5 -10.5q0 -25 24 -41t85 -43q70 -29 128 -61.5t99 -74.5t63.5 -95t22.5 -125q0 -90 -34.5 -157.5t-97 -113t-149.5 -67t-192 -21.5q-55 0 -112.5 6.5 t-112.5 20.5t-105.5 34.5t-89.5 51.5q-16 10 -15 22.5zM217 -635l86 420q4 20 13.5 33.5t37.5 13.5h224q31 0 33.5 -15.5t-3.5 -31.5l-192 -418q-10 -23 -19.5 -32t-31.5 -9h-107q-49 0 -41 39z" />
<glyph unicode="&#x2c6;" horiz-adv-x="1181" d="M284 1251.5q3 12.5 19 30.5l297 289q39 35 81 57.5t77 22.5q57 0 90 -19.5t61 -60.5l234 -287q14 -18 10 -31.5t-25 -31.5l-73 -64q-18 -14 -32.5 -13t-33.5 17l-246 211l-311 -235q-18 -12 -30.5 -10.5t-28.5 18.5l-78 76q-14 18 -11 30.5z" />
<glyph unicode="&#x2c7;" horiz-adv-x="1165" d="M328 1560.5q0 12.5 20 30.5l80 66q23 16 35 16t26 -12l244 -211l320 211q25 16 38 15t27 -15l64 -70q14 -18 14 -31.5t-20 -31.5l-312 -287q-41 -41 -80 -60.5t-96 -19.5q-35 0 -70.5 22.5t-62.5 57.5l-217 289q-10 18 -10 30.5z" />
<glyph unicode="&#x2d8;" horiz-adv-x="1138" d="M305 1440.5q-2 11.5 17 27.5l122 111q23 14 29 10t21 -16q113 -141 231 -141q25 0 50.5 3t58 17t73.5 43t97 80q23 16 29.5 15t17.5 -11l88 -94q18 -18 14 -28.5t-12 -18.5q-117 -133 -227.5 -200t-239.5 -67q-66 0 -121 21.5t-100 56.5t-81 80t-61 94q-4 6 -6 17.5z" />
<glyph unicode="&#x2d9;" horiz-adv-x="1130" d="M522 1354q0 47 18.5 88t49.5 71.5t70.5 48t82.5 17.5q74 0 121 -47t47 -121q0 -47 -19.5 -88t-50 -70.5t-70.5 -47t-83 -17.5q-72 0 -119 46t-47 120z" />
<glyph unicode="&#x2da;" horiz-adv-x="1167" d="M492 1380q0 70 25.5 128.5t69.5 100.5t101.5 65.5t120.5 23.5q106 0 174 -63.5t68 -168.5q0 -70 -27 -128t-71 -100t-101 -65.5t-121 -23.5q-109 0 -174 63.5t-65 167.5zM678 1405q0 -37 21.5 -58.5t56.5 -21.5q41 0 73.5 30.5t32.5 84.5q0 35 -21.5 57.5t-56.5 22.5 q-45 0 -75.5 -34t-30.5 -81z" />
<glyph unicode="&#x2db;" horiz-adv-x="976" d="M137 -319q0 37 19.5 87t53.5 102t81 100t104 85q12 6 18.5 9.5t14.5 3.5l152 4q16 0 17 -9.5t-13 -19.5q-104 -80 -143.5 -140.5t-39.5 -115.5q0 -74 97 -74q27 0 65.5 3t67.5 10q20 4 30.5 1t10.5 -22l22 -100q6 -33 -26 -45q-86 -35 -161 -43.5t-138 -8.5 q-117 0 -174.5 49.5t-57.5 123.5z" />
<glyph unicode="&#x2dc;" horiz-adv-x="1169" d="M287.5 1266.5q1.5 9.5 13.5 29.5q57 92 130 145.5t165 53.5q39 0 74 -14.5t66.5 -31.5t64.5 -31.5t67 -14.5q27 0 51.5 20.5t59.5 61.5q18 23 23.5 27t23.5 -7l94 -47q23 -12 27 -21.5t-12 -37.5q-113 -217 -291 -217q-37 0 -72 14t-68.5 30.5t-66.5 31t-66 14.5 q-57 0 -110 -66q-16 -20 -27.5 -26t-38.5 10l-82 51q-27 16 -25.5 25.5z" />
<glyph unicode="&#x2dd;" horiz-adv-x="1165" d="M341 1222.5q-5 8.5 7 30.5l195 383q8 16 17 22.5t32 2.5l229 -62q16 -4 19.5 -16t-6.5 -22l-297 -381q-12 -18 -22.5 -20.5t-27.5 1.5l-127 49q-14 4 -19 12.5zM712 1222.5q-5 8.5 7 30.5l196 383q8 16 17.5 22.5t30.5 2.5l231 -62q16 -4 18 -16t-8 -22l-297 -381 q-12 -18 -22.5 -20.5t-24.5 1.5l-127 49q-16 4 -21 12.5z" />
<glyph unicode="&#x3a9;" horiz-adv-x="1572" d="M20 57l33 222q4 37 18.5 43t30.5 6h142l10 10q-43 45 -60.5 125t-17.5 172q0 195 56.5 347.5t156.5 258t235.5 160.5t293.5 55q137 0 243.5 -39t178 -112.5t109.5 -179t38 -236.5q0 -59 -11.5 -130t-36 -145.5t-64.5 -146.5t-97 -129l6 -10h141q16 0 28.5 -6.5t8.5 -42.5 l-32 -228q-4 -33 -16.5 -42t-41.5 -9h-475q-121 0 -102 133l8 60q8 55 33.5 92t66.5 80q35 39 69 85t60.5 103t43 130t16.5 163q0 125 -48 196.5t-165 71.5q-72 0 -131.5 -32.5t-101.5 -94t-65.5 -148.5t-23.5 -194q0 -100 24.5 -163.5t59.5 -116.5q29 -43 45 -78t8 -90 l-8 -64q-18 -133 -139 -133h-486q-29 0 -37 12.5t-4 44.5z" />
<glyph unicode="&#x3c0;" horiz-adv-x="1271" d="M84 43l127 897q10 68 37.5 101.5t109.5 33.5h754q82 0 101.5 -33.5t9.5 -101.5l-127 -897q-4 -25 -11.5 -34t-42.5 -9h-266q-49 0 -43 43l105 739h-291l-105 -739q-4 -25 -11 -34t-42 -9h-264q-47 0 -41 43z" />
<glyph unicode="&#x401;" horiz-adv-x="1255" d="M147.5 252q-6.5 70 4.5 137l92 655q10 74 34.5 145t71.5 125t122 87t185 33h600q25 0 31 -7.5t2 -42.5l-33 -231q-4 -27 -13 -36t-32 -9h-464q-39 0 -65 -11.5t-40 -27.5t-21.5 -36.5t-9.5 -41.5l-12 -86h533q25 0 28.5 -8t-0.5 -43l-31 -213q-4 -27 -12 -37t-31 -10 h-532l-20 -154q-6 -39 0 -61.5t20 -33.5t35.5 -14t46.5 -3h518q23 0 29 -7.5t2 -41.5l-33 -232q-8 -47 -43 -47h-629q-119 0 -188.5 35t-104 91t-41 126zM498 1659q0 41 16 78t44 64.5t63.5 43t72.5 15.5q63 0 105.5 -44t42.5 -110q0 -37 -17.5 -73t-45 -62.5t-62.5 -43 t-72 -16.5q-61 0 -104 43t-43 105zM938 1659q0 41 16.5 78t44 64.5t63.5 43t75 15.5q61 0 102 -43t41 -109q0 -39 -16.5 -74t-44 -62.5t-62.5 -44t-70 -16.5q-66 0 -107.5 43t-41.5 105z" />
<glyph unicode="&#x402;" horiz-adv-x="1630" d="M131 1155l33 229q4 35 14 42.5t33 7.5h1081q23 0 31 -7.5t4 -42.5l-33 -229q-8 -47 -47 -47h-399l-35 -240q86 25 169 37.5t169 12.5q190 0 300 -104.5t110 -328.5q0 -115 -32 -219t-85 -195t-126 -165t-155 -129q-29 -18 -41 -18.5t-28 20.5l-127 133q-23 31 8 63 q113 117 168 234t55 223q0 74 -37 124t-143 50q-66 0 -123 -10t-125 -33l-74 -520q-4 -25 -11 -34t-40 -9h-283q-49 0 -43 43l152 1065h-305q-43 0 -35 47z" />
<glyph unicode="&#x403;" horiz-adv-x="1183" d="M102 41l142 1003q10 74 39.5 145t81 125t126 87t175.5 33h612q23 0 29 -7.5t2 -42.5l-33 -231q-4 -27 -13.5 -36t-29.5 -9h-485q-39 0 -65 -11.5t-40 -27.5t-21.5 -36.5t-9.5 -41.5l-135 -950q-4 -25 -11 -33t-40 -8h-283q-47 0 -41 41zM637 1640.5q-2 10.5 18 26.5 l377 289q16 12 26.5 13t26.5 -13l142 -180q12 -10 8 -23.5t-16 -17.5l-439 -236q-18 -10 -27.5 -7t-19.5 13l-86 115q-8 10 -10 20.5z" />
<glyph unicode="&#x404;" horiz-adv-x="1333" d="M150 563q0 211 55 377t152.5 279.5t232.5 174t295 60.5q117 0 218 -21.5t185 -68.5q31 -16 29 -34.5t-19 -53.5l-71 -168q-16 -41 -31.5 -47t-50.5 6q-37 12 -69 21.5t-60.5 15.5t-59 8t-67.5 2q-47 0 -93 -11t-86 -37t-71 -70t-45 -107h383q25 0 34 -7.5t5 -33.5 l-33 -223q-4 -27 -14.5 -32t-32.5 -5h-387q-10 -139 49 -201.5t184 -62.5q102 0 177 24.5t141 48.5q33 12 42 7t23 -37l80 -189q12 -29 6 -44t-28 -28q-129 -74 -252 -101.5t-252 -27.5q-154 0 -262.5 43t-177 120t-99 185.5t-30.5 237.5z" />
<glyph unicode="&#x405;" horiz-adv-x="1224" d="M46.5 153.5q-1.5 14.5 14.5 45.5l91 194q18 35 33.5 39t43.5 -8q27 -12 69 -28.5t92 -32t105.5 -25.5t110.5 -10q57 0 89 13t47.5 30.5t19.5 36t4 28.5q0 27 -25.5 51.5t-113.5 65.5q-92 45 -169 92t-132.5 102.5t-87 121t-31.5 145.5q0 96 33.5 178t101.5 140.5t169 91 t234 32.5q59 0 121 -6t118 -17.5t107.5 -29t90.5 -41.5q31 -16 36 -32.5t-12 -63.5l-55 -170q-14 -41 -32.5 -46.5t-53.5 5.5q-82 25 -167 42t-163 17q-74 0 -99.5 -24.5t-25.5 -55.5q0 -12 5.5 -23.5t19.5 -25.5t39.5 -28.5t66.5 -32.5q104 -43 187.5 -90.5t140.5 -104.5 t88 -127t31 -158q0 -119 -43 -205.5t-121 -145t-188.5 -87.5t-245.5 -29q-68 0 -139.5 8.5t-141 27t-132 46t-111.5 66.5q-18 14 -19.5 28.5z" />
<glyph unicode="&#x406;" horiz-adv-x="733" d="M131 43l191 1348q6 43 53 43h280q35 0 41 -9.5t2 -33.5l-190 -1348q-4 -25 -11.5 -34t-41.5 -9h-281q-49 0 -43 43z" />
<glyph unicode="&#x407;" horiz-adv-x="733" d="M131 43l191 1348q6 43 53 43h280q35 0 41 -9.5t2 -33.5l-190 -1348q-4 -25 -11.5 -34t-41.5 -9h-281q-49 0 -43 43zM152 1671q0 41 16 78t44 64.5t63.5 43t72.5 15.5q63 0 105.5 -44t42.5 -110q0 -37 -17.5 -72.5t-45 -62.5t-62.5 -43t-72 -16q-61 0 -104 43t-43 104z M592 1671q0 41 16.5 78t44 64.5t63.5 43t75 15.5q61 0 102 -43t41 -109q0 -39 -16.5 -73.5t-44 -62.5t-62.5 -44t-70 -16q-66 0 -107.5 43t-41.5 104z" />
<glyph unicode="&#x408;" horiz-adv-x="1206" d="M15.5 100.5q-5.5 12.5 9.5 42.5l88 213q10 27 21 27t32 -8q68 -27 138.5 -41.5t137.5 -14.5q82 0 132.5 21.5t79 61.5t42 96.5t23.5 128.5l106 768q4 29 16.5 34t35.5 5h284q25 0 34 -5.5t5 -33.5l-121 -860q-16 -113 -50 -214.5t-100.5 -177t-174 -121t-267.5 -45.5 q-43 0 -95 4.5t-110.5 15.5t-121 30.5t-123.5 52.5q-16 8 -21.5 20.5z" />
<glyph unicode="&#x409;" horiz-adv-x="2115" d="M-14 251q4 11 32 23q86 41 142.5 84t94.5 115t66.5 185.5t63.5 295.5l66 344q10 68 37.5 102t109.5 34h692q82 0 101.5 -34t9.5 -102l-51 -364h231q160 0 254 -42t143.5 -103.5t63.5 -132t14 -126.5q0 -102 -37 -197t-107.5 -169t-174 -119t-236.5 -45h-526 q-41 0 -65.5 9t-37 26.5t-13.5 43t3 56.5l135 967h-227l-18 -98q-45 -225 -82 -395.5t-97.5 -295.5t-160 -210t-267.5 -136q-35 -10 -47 -10t-22 27l-86 231q-8 25 -4 36zM1264 334h235q45 0 77 17.5t52.5 44t28.5 54t8 50.5q0 51 -30.5 81.5t-90.5 30.5h-239z" />
<glyph unicode="&#x40a;" horiz-adv-x="2121" d="M102 43l191 1348q6 43 51 43h283q33 0 39 -9.5t2 -33.5l-66 -465h375l65 465q6 43 54 43h280q35 0 41 -9.5t2 -33.5l-63 -457h231q160 0 254 -42t143.5 -103.5t63.5 -132t14 -126.5q0 -106 -38.5 -202.5t-110.5 -169t-174.5 -115.5t-231.5 -43h-528q-82 0 -101.5 31.5 t-9.5 103.5q2 31 9.5 80t15.5 111.5t18.5 135.5t20.5 148h-375l-80 -567q-4 -25 -11 -34t-40 -9h-283q-47 0 -41 43zM1270 334h235q45 0 77 16.5t52.5 41t28.5 54t8 54.5q0 51 -30.5 81.5t-90.5 30.5h-239z" />
<glyph unicode="&#x40b;" horiz-adv-x="1611" d="M131 1155l33 229q4 35 14 42.5t33 7.5h1081q23 0 31 -7.5t4 -42.5l-33 -229q-8 -47 -47 -47h-399l-35 -238q76 16 156 30.5t200 14.5q217 0 306.5 -118.5t58.5 -337.5l-55 -393q-6 -41 -20.5 -53.5t-53.5 -12.5h-244q-66 0 -57 66l51 364q4 31 3 61.5t-15.5 56t-48 42 t-95.5 16.5q-51 0 -110.5 -11t-118.5 -34l-74 -518q-4 -25 -11 -34t-40 -9h-283q-49 0 -43 43l152 1065h-305q-43 0 -35 47z" />
<glyph unicode="&#x40c;" horiz-adv-x="1411" d="M102 33l193 1368q4 23 13 28t26 5h313q18 0 25.5 -5.5t1.5 -27.5l-72 -508h119q25 0 49.5 5t49 23.5t48 52.5t45.5 89l142 346q8 20 20 24.5t23 4.5h315q25 0 26 -15.5t-3 -25.5l-148 -367q-33 -86 -87 -152.5t-122 -105.5v-10q49 -23 80 -48.5t48.5 -55t24.5 -64.5 t13 -78l74 -475q2 -10 -2 -25.5t-31 -15.5h-313q-10 0 -22.5 4t-16.5 25l-55 407q-8 55 -24.5 91t-43.5 56.5t-65.5 27.5t-90.5 7h-92l-80 -585q-4 -23 -12 -28t-27 -5h-311q-16 0 -25.5 5t-5.5 28zM704.5 1646.5q-2.5 10.5 18.5 26.5l377 289q16 12 26.5 13t26.5 -13 l141 -180q12 -10 8 -23.5t-16 -17.5l-438 -236q-18 -10 -27.5 -7t-19.5 13l-86 115q-8 10 -10.5 20.5z" />
<glyph unicode="&#x40e;" horiz-adv-x="1249" d="M131 18.5q-8 8.5 2 36.5l55 207q8 29 19.5 30t36.5 -3q31 -4 56.5 -6t47.5 -2q72 0 108 18t60 72l29 61h-64q-57 0 -73.5 20.5t-28.5 71.5l-209 871q-6 29 7 38t32 9h285q45 0 54 -7.5t15 -39.5l60 -338l51 -326h12l133 340l127 315q14 33 26.5 44.5t57.5 11.5h318 q41 0 22 -39l-539 -1143q-35 -74 -71.5 -128t-86.5 -90t-117 -54.5t-159 -18.5q-53 0 -111.5 6.5t-117.5 24.5q-29 10 -37 18.5zM395 1762.5q-2 11.5 17 27.5l123 111q23 14 28.5 10t20.5 -17q113 -141 231 -141q25 0 50.5 3t58 17.5t73.5 43t97 79.5q23 16 29.5 15.5 t17.5 -10.5l88 -95q18 -18 14 -28.5t-12 -18.5q-117 -133 -227.5 -199.5t-239.5 -66.5q-66 0 -121 21.5t-100 56.5t-81 80t-61 94q-4 6 -6 17.5z" />
<glyph unicode="&#x40f;" horiz-adv-x="1490" d="M114 75.5q-1 24.5 3 59.5l176 1256q6 43 51 43h283q33 0 39 -9.5t2 -33.5l-150 -1059h440l150 1059q6 43 53 43h281q35 0 41 -9.5t2 -33.5l-176 -1256q-10 -68 -38 -101.5t-110 -33.5h-299l-59 -324q-2 -18 -12.5 -30.5t-36.5 -12.5h-205q-29 0 -36 11.5t-3 36.5l27 319 h-310q-41 0 -65.5 8t-35.5 25.5t-12 42z" />
<glyph unicode="&#x410;" horiz-adv-x="1339" d="M-24.5 11.5q-4.5 11.5 1.5 27.5l570 1268q37 82 79 105.5t107 23.5h162q35 0 61.5 -3t46 -15.5t33 -38t19.5 -70.5l213 -1270q2 -10 -2 -24.5t-27 -14.5h-295q-23 0 -38 6t-19 29l-31 246h-391l-98 -236q-12 -23 -23.5 -34t-46.5 -11h-299q-18 0 -22.5 11.5zM592 584h225 l-14 159l-23 295h-16l-111 -301z" />
<glyph unicode="&#x411;" horiz-adv-x="1368" d="M117 135l164 1163q10 68 36.5 102t110.5 34h807q23 0 29 -7.5t2 -42.5l-33 -231q-4 -27 -13.5 -36t-29.5 -9h-561l-27 -174h232q160 0 254 -42t143 -103.5t63.5 -132t14.5 -126.5q0 -106 -37 -202.5t-107.5 -169t-174 -115.5t-236.5 -43h-527q-84 0 -102.5 31.5 t-7.5 103.5zM516 334h236q45 0 76.5 17.5t52 44t29 54t8.5 50.5q0 51 -31 81.5t-90 30.5h-240z" />
<glyph unicode="&#x412;" horiz-adv-x="1388" d="M117 135l164 1163q10 68 36.5 102t110.5 34h492q82 0 155.5 -16.5t129 -54.5t87 -98.5t31.5 -148.5q0 -125 -55.5 -200.5t-132.5 -120.5l-2 -13q92 -43 126.5 -123.5t34.5 -169.5q0 -102 -41 -191t-114.5 -154.5t-175 -104.5t-220.5 -39h-516q-84 0 -102.5 31.5 t-7.5 103.5zM516 334h236q45 0 75.5 16.5t49 40t25.5 51t7 50.5q0 49 -29.5 79.5t-88.5 30.5h-236zM598 905h209q20 0 41.5 5t40 19.5t30 37t11.5 57.5q0 37 -23.5 57.5t-64.5 20.5h-217z" />
<glyph unicode="&#x413;" horiz-adv-x="1183" d="M102 41l142 1003q10 74 39.5 145t81 125t126 87t175.5 33h612q23 0 29 -7.5t2 -42.5l-33 -231q-4 -27 -13.5 -36t-29.5 -9h-485q-39 0 -65 -11.5t-40 -27.5t-21.5 -36.5t-9.5 -41.5l-135 -950q-4 -25 -11 -33t-40 -8h-283q-47 0 -41 41z" />
<glyph unicode="&#x414;" horiz-adv-x="1634" d="M-43 -295l53 506q4 33 18.5 64.5t75.5 41.5l74 11q51 39 86 91t57.5 103t36 95.5t19.5 66.5l153 594q16 68 52 112t133 44h704q82 0 101.5 -34t9.5 -102l-137 -968l86 -8q47 -4 59 -28t4 -71l-94 -518q-2 -18 -13.5 -30.5t-37.5 -12.5h-209q-31 0 -38 11.5t-3 35.5 l31 291h-856l-60 -291q-12 -47 -65 -47h-201q-27 0 -34 12.5t-5 30.5zM602 326h416l108 776h-288l-93 -373q-33 -135 -65.5 -233.5t-77.5 -169.5z" />
<glyph unicode="&#x415;" horiz-adv-x="1255" d="M147.5 252q-6.5 70 4.5 137l92 655q10 74 34.5 145t71.5 125t122 87t185 33h600q25 0 31 -7.5t2 -42.5l-33 -231q-4 -27 -13 -36t-32 -9h-464q-39 0 -65 -11.5t-40 -27.5t-21.5 -36.5t-9.5 -41.5l-12 -86h533q25 0 28.5 -8t-0.5 -43l-31 -213q-4 -27 -12 -37t-31 -10 h-532l-20 -154q-6 -39 0 -61.5t20 -33.5t35.5 -14t46.5 -3h518q23 0 29 -7.5t2 -41.5l-33 -232q-8 -47 -43 -47h-629q-119 0 -188.5 35t-104 91t-41 126z" />
<glyph unicode="&#x416;" horiz-adv-x="2074" d="M-7.5 15.5q-0.5 15.5 3.5 25.5l190 475q18 45 37 83t45.5 67.5t63.5 53t90 42.5v10q-63 35 -93 93.5t-42 164.5l-43 367q-2 10 3 25.5t29 15.5h306q10 0 21 -4t13 -25l43 -346q8 -59 25.5 -93t42.5 -51.5t53.5 -21.5t59.5 -4h78l71 508q0 23 8.5 28t28.5 5h309 q18 0 27.5 -5.5t5.5 -27.5l-72 -508h86q31 0 61 4t59.5 21.5t56 51.5t49.5 93l141 346q8 20 20.5 24.5t22.5 4.5h305q25 0 25 -15.5t-4 -25.5l-146 -367q-33 -86 -83 -156.5t-128 -101.5v-10q49 -18 80 -46t48.5 -60.5t25.5 -68.5t12 -71l55 -475q2 -10 -2 -25.5t-28 -15.5 h-318q-10 0 -21 4t-16 25l-53 430q-8 49 -21.5 80.5t-37 49t-59 23.5t-87.5 6h-82l-81 -585q-4 -23 -13.5 -28t-27.5 -5h-306q-20 0 -28 5t-4 28l82 585h-72q-53 0 -91 -6t-68 -23.5t-52.5 -49t-42.5 -80.5l-176 -430q-8 -20 -20.5 -24.5t-22.5 -4.5h-314q-27 0 -27.5 15.5z " />
<glyph unicode="&#x417;" horiz-adv-x="1300" d="M42 142.5q3 15.5 19 47.5l97 179q16 33 31.5 39t43.5 -11q68 -35 158 -60.5t180 -25.5q61 0 107.5 15.5t75 40t43 56.5t14.5 64q0 55 -37 88t-112 35h-103q-59 0 -70.5 17.5t-7.5 52.5l21 147q6 47 27.5 59.5t64.5 12.5h104q66 0 115 28.5t49 94.5q0 51 -46 72.5 t-111 21.5q-76 0 -161 -16.5t-169 -46.5q-29 -10 -44.5 -4t-29.5 43l-61 170q-14 39 -9 52t41 36q92 49 224.5 79.5t267.5 30.5q92 0 183 -17.5t162 -56t115 -104t44 -160.5q0 -47 -14.5 -98t-45 -99t-78 -89t-112.5 -68l-2 -12q57 -25 94 -56.5t59.5 -69.5t31.5 -79t9 -84 q0 -111 -50 -200t-135 -153.5t-198.5 -99t-240.5 -34.5q-63 0 -134 7t-140.5 22.5t-134 42t-118.5 63.5q-20 12 -17 27.5z" />
<glyph unicode="&#x418;" horiz-adv-x="1556" d="M127 97.5q-2 29.5 4 64.5l172 1229q6 43 51 43h275q33 0 39 -9.5t2 -33.5l-109 -779h14l213 283l338 446q23 33 41.5 51.5t39 28t44 11.5t58.5 2h90q82 0 108.5 -33t14.5 -129l-162 -1229q-4 -23 -14.5 -33t-36.5 -10h-281q-35 0 -42 9t-3 34l111 774h-13l-223 -303 l-330 -422q-25 -31 -42 -49t-36.5 -27.5t-43 -12.5t-58.5 -3h-94q-45 0 -71.5 12.5t-40 34t-15.5 51z" />
<glyph unicode="&#x419;" horiz-adv-x="1556" d="M127 97.5q-2 29.5 4 64.5l172 1229q6 43 51 43h275q33 0 39 -9.5t2 -33.5l-109 -779h14l213 283l338 446q23 33 41.5 51.5t39 28t44 11.5t58.5 2h90q82 0 108.5 -33t14.5 -129l-162 -1229q-4 -23 -14.5 -33t-36.5 -10h-281q-35 0 -42 9t-3 34l111 774h-13l-223 -303 l-330 -422q-25 -31 -42 -49t-36.5 -27.5t-43 -12.5t-58.5 -3h-94q-45 0 -71.5 12.5t-40 34t-15.5 51zM547 1748q-2 11 16 28l123 110q23 14 29 10t20 -16q113 -141 232 -141q25 0 50 3t58 17.5t74 43t96 79.5q23 16 30 15t17 -11l88 -94q18 -18 14.5 -28.5t-12.5 -18.5 q-117 -133 -227.5 -199.5t-239.5 -66.5q-66 0 -121 21.5t-100 56t-80.5 79.5t-60.5 95q-4 6 -6 17z" />
<glyph unicode="&#x41a;" horiz-adv-x="1411" d="M102 33l193 1368q4 23 13 28t26 5h313q18 0 25.5 -5.5t1.5 -27.5l-72 -508h119q25 0 49.5 5t49 23.5t48 52.5t45.5 89l142 346q8 20 20 24.5t23 4.5h315q25 0 26 -15.5t-3 -25.5l-148 -367q-33 -86 -87 -152.5t-122 -105.5v-10q49 -23 80 -48.5t48.5 -55t24.5 -64.5 t13 -78l74 -475q2 -10 -2 -25.5t-31 -15.5h-313q-10 0 -22.5 4t-16.5 25l-55 407q-8 55 -24.5 91t-43.5 56.5t-65.5 27.5t-90.5 7h-92l-80 -585q-4 -23 -12 -28t-27 -5h-311q-16 0 -25.5 5t-5.5 28z" />
<glyph unicode="&#x41b;" horiz-adv-x="1513" d="M-14 251q4 11 32 23q86 41 142.5 84t94.5 115t66.5 185.5t63.5 295.5l66 344q10 68 37.5 102t109.5 34h786q41 0 66 -8.5t36 -26t12 -43t-3 -58.5l-178 -1255q-4 -25 -11.5 -34t-39.5 -9h-283q-47 0 -41 43l150 1059h-322l-20 -98q-45 -225 -82 -395.5t-96.5 -295.5 t-159 -210t-267.5 -136q-35 -10 -47 -10t-22 27l-86 231q-8 25 -4 36z" />
<glyph unicode="&#x41c;" horiz-adv-x="1804" d="M102 39l174 1233q12 96 50.5 129t115.5 33h140q63 0 88.5 -24t42.5 -77l116 -366l97 -342h8l217 370l197 332q33 53 69.5 80t110.5 27h135q33 0 57.5 -5.5t41 -20.5t22.5 -45t0 -77l-176 -1247q-4 -29 -14.5 -34t-34.5 -5h-263q-23 0 -34 5t-7 34l101 711h-10l-99 -185 l-176 -307q-29 -51 -55.5 -70.5t-69.5 -19.5h-133q-49 0 -65.5 19.5t-32.5 70.5l-76 246l-64 221h-12l-96 -686q-4 -29 -14.5 -34t-32.5 -5h-277q-23 0 -34 5t-7 34z" />
<glyph unicode="&#x41d;" horiz-adv-x="1490" d="M102 43l191 1348q6 43 51 43h283q33 0 39 -9.5t2 -33.5l-68 -484h440l68 484q6 43 53 43h281q35 0 41 -9.5t2 -33.5l-191 -1348q-4 -25 -11 -34t-42 -9h-280q-49 0 -43 43l77 541h-440l-78 -541q-4 -25 -11 -34t-40 -9h-283q-47 0 -41 43z" />
<glyph unicode="&#x41e;" horiz-adv-x="1476" d="M150 559q0 201 50 367t144 283.5t228 182t302 64.5q141 0 245 -42t171.5 -117.5t101 -183t33.5 -239.5q0 -199 -46 -363.5t-138 -283t-229.5 -184.5t-317.5 -66q-143 0 -245.5 39t-169 114t-98 183.5t-31.5 245.5zM545 575q0 -119 44 -185t150 -66q76 0 130.5 46 t90 121.5t52 169t16.5 189.5q0 57 -9 105.5t-30.5 83t-57.5 54t-91 19.5q-74 0 -129.5 -47t-92 -124t-55 -172t-18.5 -194z" />
<glyph unicode="&#x41f;" horiz-adv-x="1490" d="M102 43l179 1255q10 68 36.5 102t110.5 34h934q82 0 101.5 -34t9.5 -102l-179 -1255q-4 -25 -11 -34t-42 -9h-280q-49 0 -43 43l149 1059h-440l-150 -1059q-4 -25 -11 -34t-40 -9h-283q-47 0 -41 43z" />
<glyph unicode="&#x420;" horiz-adv-x="1327" d="M102 41l179 1257q4 27 12 51.5t24.5 43t43 30t67.5 11.5h496q109 0 189.5 -31t133.5 -85t80 -130t27 -164q0 -29 -6.5 -80t-27 -110.5t-61 -121t-109.5 -111.5t-170 -82t-245 -32h-194l-64 -446q-4 -25 -11 -33t-40 -8h-283q-47 0 -41 41zM584 791h204q78 0 126.5 54 t48.5 132q0 20 -5.5 41.5t-18.5 40t-36.5 30t-60.5 11.5h-215z" />
<glyph unicode="&#x421;" horiz-adv-x="1333" d="M150 563q0 211 55 377t152.5 279.5t232.5 174t295 60.5q117 0 218 -21.5t185 -68.5q31 -16 29 -34.5t-19 -53.5l-71 -168q-16 -41 -31.5 -47t-50.5 6q-37 12 -69 21.5t-60.5 15.5t-59 8t-67.5 2q-68 0 -129.5 -29.5t-108.5 -92t-74.5 -160t-27.5 -232.5q0 -137 52 -206.5 t181 -69.5q102 0 177 24.5t141 48.5q33 12 42 7t23 -37l80 -189q12 -29 6 -44t-28 -28q-129 -74 -252 -101.5t-252 -27.5q-154 0 -262.5 43t-177 120t-99 185.5t-30.5 237.5z" />
<glyph unicode="&#x422;" horiz-adv-x="1169" d="M131 1155l33 229q4 35 14 42.5t33 7.5h1046q25 0 33 -7.5t4 -42.5l-32 -229q-8 -47 -50 -47h-340l-151 -1065q-4 -25 -11.5 -34t-39.5 -9h-283q-47 0 -41 43l152 1065h-332q-43 0 -35 47z" />
<glyph unicode="&#x423;" horiz-adv-x="1249" d="M131 18.5q-8 8.5 2 36.5l55 207q8 29 19.5 30t36.5 -3q31 -4 56.5 -6t47.5 -2q72 0 108 18t60 72l29 61h-64q-57 0 -73.5 20.5t-28.5 71.5l-209 871q-6 29 7 38t32 9h285q45 0 54 -7.5t15 -39.5l60 -338l51 -326h12l133 340l127 315q14 33 26.5 44.5t57.5 11.5h318 q41 0 22 -39l-539 -1143q-35 -74 -71.5 -128t-86.5 -90t-117 -54.5t-159 -18.5q-53 0 -111.5 6.5t-117.5 24.5q-29 10 -37 18.5z" />
<glyph unicode="&#x424;" horiz-adv-x="1769" d="M147 618q0 150 49.5 275t139.5 218t215 153.5t278 83.5l7 43q4 23 14 33t37 10h282q33 0 39 -9.5t2 -33.5l-6 -41q258 -39 387 -176.5t129 -366.5q0 -143 -48 -264t-137 -212t-217 -149.5t-288 -77.5l-10 -61q-4 -25 -11.5 -34t-39.5 -9h-283q-47 0 -41 43l10 63 q-129 14 -224 58.5t-157.5 111t-94.5 153.5t-32 189zM520 647q0 -92 39 -158.5t137 -89.5l92 652q-76 -18 -127 -63.5t-82.5 -104t-45 -121t-13.5 -115.5zM1067 401q82 20 136 64.5t88 97.5t48.5 112.5t14.5 112.5q0 41 -9.5 83t-32 77t-59 62.5t-94.5 42.5z" />
<glyph unicode="&#x425;" horiz-adv-x="1296" d="M-35.5 16.5q-5.5 16.5 6.5 32.5l518 703l-284 634q-10 16 -3 33t36 17h272q49 0 66.5 -10.5t31.5 -45.5l123 -327l213 327q20 33 42 44.5t71 11.5h307q27 0 30 -16.5t-12 -33.5l-464 -634l323 -703q4 -16 -3 -32.5t-26 -16.5h-299q-43 0 -62.5 12.5t-35.5 48.5l-139 373 l-244 -373q-29 -37 -49.5 -49t-63.5 -12h-333q-16 0 -21.5 16.5z" />
<glyph unicode="&#x426;" horiz-adv-x="1599" d="M114 75.5q-1 24.5 3 59.5l176 1256q6 43 51 43h283q33 0 39 -9.5t2 -33.5l-150 -1059h440l150 1059q4 23 14.5 33t36.5 10h283q35 0 41 -9.5t2 -33.5l-148 -1051h125q49 0 62.5 -25.5t3.5 -72.5l-96 -537q-2 -18 -13.5 -30.5t-36.5 -12.5h-204q-31 0 -38 11.5t-3 35.5 l26 291h-936q-41 0 -65.5 8t-35.5 25.5t-12 42z" />
<glyph unicode="&#x427;" horiz-adv-x="1382" d="M170 771q-10 99 6 216l57 404q4 23 14.5 33t37.5 10h282q33 0 39 -9.5t2 -33.5l-51 -367q-10 -66 -5 -111t28.5 -72.5t66.5 -40t109 -12.5q35 0 75.5 3.5t88.5 11.5l81 588q6 43 52 43h282q33 0 39 -9.5t2 -33.5l-190 -1348q-4 -25 -11.5 -34t-39.5 -9h-283q-47 0 -41 43 l59 416q-63 -6 -118.5 -10.5t-104.5 -4.5q-166 0 -266 41t-150.5 114t-60.5 172z" />
<glyph unicode="&#x428;" horiz-adv-x="2068" d="M114 75.5q-1 24.5 3 59.5l176 1256q6 43 51 43h283q33 0 39 -9.5t2 -33.5l-150 -1059h320l149 1059q6 43 53 43h281q35 0 41 -9.5t2 -33.5l-150 -1059h324l150 1059q4 25 12 34t41 9h282q45 0 39 -43l-176 -1256q-10 -68 -37.5 -101.5t-109.5 -33.5h-1512q-41 0 -65.5 8 t-35.5 25.5t-12 42z" />
<glyph unicode="&#x429;" horiz-adv-x="2177" d="M114 75.5q-1 24.5 3 59.5l176 1256q6 43 51 43h283q33 0 39 -9.5t2 -33.5l-150 -1059h320l149 1059q6 43 53 43h281q35 0 41 -9.5t2 -33.5l-150 -1059h324l150 1059q4 23 14 33t35 10h284q33 0 39 -9.5t2 -33.5l-147 -1051h125q49 0 62.5 -25.5t2.5 -72.5l-96 -537 q-2 -18 -13 -30.5t-36 -12.5h-205q-29 0 -36 11.5t-3 35.5l25 291h-1514q-41 0 -65.5 8t-35.5 25.5t-12 42z" />
<glyph unicode="&#x42a;" horiz-adv-x="1714" d="M141 1155l33 231q4 35 11.5 42.5t31.5 7.5h674q82 0 101.5 -34t8.5 -102l-51 -366h232q160 0 254 -42t143 -103.5t63.5 -132t14.5 -126.5q0 -102 -38 -197t-109.5 -169t-174 -119t-233.5 -45h-529q-41 0 -65.5 10t-35.5 27.5t-12 42t3 55.5l137 975h-428q-23 0 -29 9 t-2 36zM864 334h232q45 0 77.5 16.5t53 41t30 54t9.5 54.5q0 51 -31 81.5t-90 30.5h-240z" />
<glyph unicode="&#x42b;" horiz-adv-x="1941" d="M117 135q4 37 8 67.5t10 78t16.5 123t29 202.5t45 317.5t65.5 467.5q6 43 51 43h283q33 0 39 -9.5t2 -33.5l-64 -457h232q160 0 254 -42t143 -103.5t63.5 -132t14.5 -126.5q0 -102 -37 -197t-107.5 -169t-174 -119t-236.5 -45h-527q-84 0 -102.5 31.5t-7.5 103.5z M516 334h236q45 0 76.5 16.5t52 41t29 54t8.5 54.5q0 51 -31 81.5t-90 30.5h-240zM1370 43l191 1348q4 23 14 33t37 10h282q33 0 39 -9.5t2 -33.5l-190 -1348q-4 -25 -11.5 -34t-39.5 -9h-283q-47 0 -41 43z" />
<glyph unicode="&#x42c;" horiz-adv-x="1368" d="M117 135q4 37 8 67.5t10 78t16.5 123t29 202.5t45 317.5t65.5 467.5q6 43 51 43h283q33 0 39 -9.5t2 -33.5l-64 -457h232q160 0 254 -42t143 -103.5t63.5 -132t14.5 -126.5q0 -102 -37 -198t-107.5 -170t-174 -118t-236.5 -44h-527q-84 0 -102.5 31.5t-7.5 103.5z M516 334h232q45 0 77.5 16.5t53 41t30 54t9.5 54.5q0 51 -31 81.5t-90 30.5h-240z" />
<glyph unicode="&#x42d;" horiz-adv-x="1331" d="M48.5 134q0.5 16 17.5 48l90 178q16 35 30.5 39t42.5 -8q59 -25 130 -49.5t173 -24.5q123 0 206 71t110 200h-391q-23 0 -33 5t-6 32l33 223q4 27 13 34t34 7h387q6 63 -12.5 107t-52.5 70t-79 37t-90 11q-37 0 -66.5 -2t-59 -8t-61.5 -15.5t-73 -21.5q-27 -8 -42 -2 t-27 43l-60 168q-16 41 -9 55.5t42 32.5q94 47 198.5 68.5t221.5 21.5q285 0 425 -155.5t140 -448.5q0 -176 -44 -335t-135 -278.5t-228.5 -189.5t-323.5 -70q-129 0 -252 28t-229 101q-20 12 -19.5 28z" />
<glyph unicode="&#x42e;" horiz-adv-x="2031" d="M102 43l191 1348q6 43 51 43h283q33 0 39 -9.5t2 -33.5l-68 -486h195q37 125 97 226.5t142 173t186.5 110.5t231.5 39q137 0 237.5 -42t165 -118.5t95 -185.5t30.5 -242q0 -184 -43 -346t-131 -282.5t-222 -190.5t-316 -70q-133 0 -232.5 39t-165 111t-98.5 174t-33 229 q0 14 1 26.5t1 27.5h-186l-78 -541q-4 -25 -11 -34t-40 -9h-283q-47 0 -41 43zM1130 571q0 -117 42 -182t143 -65q74 0 127 46t89 120.5t52 171t16 198.5q0 109 -39 179.5t-145 70.5q-68 0 -121 -44t-90 -119t-55.5 -172t-18.5 -204z" />
<glyph unicode="&#x42f;" horiz-adv-x="1390" d="M31 53l135 389q29 80 87 135.5t153 79.5l2 5q-100 33 -144.5 118.5t-44.5 184.5q0 111 40 197.5t110.5 147t168 92.5t214.5 32h510q82 0 100 -36t10 -100l-178 -1257q-4 -23 -14.5 -32t-34.5 -9h-279q-33 0 -42 8t-5 33l74 520h-129q-84 0 -130 -40t-79 -128l-115 -332 q-16 -41 -44.5 -51t-61.5 -10h-273q-49 0 -30 53zM606 971q0 -53 31 -80t76 -27h223l33 236h-228q-68 0 -101.5 -35t-33.5 -94z" />
<glyph unicode="&#x430;" horiz-adv-x="1241" d="M104 391q0 332 143.5 519.5t432.5 187.5q78 0 202 -9.5t269 -50.5q35 -10 40 -26.5t1 -38.5q-37 -227 -65.5 -443.5t-53.5 -439.5q-4 -16 -9 -24.5t-22 -14.5q-68 -25 -140.5 -40t-138 -23t-122.5 -10.5t-94 -2.5q-133 0 -219 31t-135.5 86t-69 132t-19.5 167zM481 457 q0 -92 36 -131t106 -39q18 0 55 4t65 14q12 100 19.5 152.5t12.5 93.5t12.5 90t23.5 141q-27 8 -55.5 11.5t-44.5 3.5q-96 0 -163 -81t-67 -259z" />
<glyph unicode="&#x431;" horiz-adv-x="1212" d="M104 420q-2 39 1.5 78t7.5 80q10 92 23.5 189t36 189.5t57 177.5t90 152.5t133 116.5t186.5 70q86 16 195.5 25t220.5 18q18 2 26.5 -2.5t12.5 -20.5l22 -225q4 -25 -7 -30t-24 -7q-90 -10 -157.5 -15.5t-120.5 -13.5q-68 -10 -113 -31.5t-74.5 -57.5t-48 -86t-32.5 -116 l8 -6q72 43 147.5 60.5t141.5 17.5q92 0 156.5 -29.5t104.5 -81t58.5 -123t18.5 -153.5q0 -109 -30 -216.5t-97.5 -194.5t-179 -144t-273.5 -64q-145 0 -238.5 38t-148.5 100.5t-78 141.5t-25 163zM481 426q0 -59 24.5 -100t98.5 -41q49 0 85 23.5t59.5 61.5t34 86t10.5 95 q0 23 -5.5 46.5t-17.5 41.5t-35.5 29.5t-60.5 11.5q-41 0 -85 -10.5t-75 -22.5q-6 -23 -12 -53.5t-11.5 -62t-7.5 -59.5t-2 -46z" />
<glyph unicode="&#x432;" horiz-adv-x="1212" d="M94 100.5q-4 18.5 0 42.5l82 572q23 180 151 287.5t361 107.5q193 0 310.5 -71.5t125.5 -200.5q0 -23 -4 -54.5t-17 -63.5t-40 -62.5t-70 -53.5v-10q86 -35 122 -93.5t36 -123.5q0 -74 -36 -145.5t-106.5 -128t-178 -91.5t-250.5 -35q-119 0 -240 20.5t-213 68.5 q-29 16 -33 34.5zM479 274q20 -4 51 -7t54 -3q100 0 144 40t44 81q0 72 -100 72h-31q-29 0 -38 9t-5 38l16 110q6 35 20.5 42.5t39.5 11.5q49 8 72.5 31.5t23.5 58.5q0 27 -24.5 48t-71.5 21q-59 0 -89 -30.5t-36 -71.5z" />
<glyph unicode="&#x433;" horiz-adv-x="1093" d="M72 268q0 76 39 136.5t100 109.5t139 89t158 77q74 35 121 58.5t47 49.5q0 23 -19.5 26t-46.5 3q-20 0 -57 -6t-83 -16.5t-95 -24.5t-92 -31q-14 -6 -27.5 -4t-24.5 29l-55 158q-14 39 -2 51t23 18q123 63 248.5 88t238.5 25q76 0 142.5 -14.5t113.5 -45t74.5 -80 t27.5 -116.5q0 -84 -33.5 -146.5t-94 -112.5t-145.5 -94t-185 -87q-51 -23 -93 -42.5t-42 -56.5q0 -35 63 -35q27 0 71 7.5t94 19.5t104.5 28.5t103.5 35.5q25 8 37 9t24 -34l60 -170q12 -31 3.5 -40t-14.5 -13q-63 -39 -135 -64.5t-141.5 -41t-131 -21.5t-104.5 -6 q-201 0 -306 65.5t-105 218.5z" />
<glyph unicode="&#x434;" horiz-adv-x="1267" d="M104 438q6 115 44 215.5t106 175t164 117.5t219 43q55 0 113.5 -7t111.5 -30l10 2q2 55 -4 105.5t-27.5 87.5t-63.5 58.5t-111 21.5q-43 0 -91.5 -4t-136.5 -23q-10 -2 -24.5 -2t-20.5 29l-37 209q-4 23 5.5 28.5t15.5 8.5q86 29 166 40t147 11q156 0 262.5 -46t171 -128 t90 -195t21.5 -248q-2 -70 -11.5 -166t-35 -199.5t-70.5 -204.5t-118.5 -181t-181 -129.5t-257.5 -49.5q-145 0 -236.5 38t-142.5 101.5t-66.5 146.5t-11.5 175zM485 432q0 -25 5.5 -49.5t17.5 -44t35.5 -31.5t60.5 -12q63 0 104.5 39t66 95t34.5 119.5t12 113.5 q-41 18 -84.5 24t-66.5 6q-55 0 -90 -25.5t-56.5 -64.5t-30 -85t-8.5 -85z" />
<glyph unicode="&#x435;" horiz-adv-x="1177" d="M102 397q0 346 157 527.5t439 181.5q86 0 166 -15.5t140.5 -52.5t96.5 -98t36 -154q0 -182 -127 -275t-367 -93q-37 0 -77 2t-81 6q0 -8 -1 -14t-1 -15q0 -37 12.5 -59.5t34 -32.5t52 -13t69.5 -3q51 0 101.5 11t113.5 32q29 10 38 6t16 -21l77 -192q6 -20 -2 -30.5 t-24 -20.5q-41 -25 -96.5 -43.5t-116 -30.5t-116.5 -17.5t-99 -5.5q-123 0 -207 28t-136.5 81t-75 131t-22.5 180zM518 645q12 -2 23.5 -2h25.5q119 0 160 25.5t41 74.5q0 27 -18.5 48.5t-69.5 21.5q-63 0 -105.5 -40t-56.5 -128z" />
</font>
</defs>
</svg>
