<?xml version="1.0" encoding="utf-8"?>
<!-- Generator: Adobe Illustrator 19.0.0, SVG Export Plug-In . SVG Version: 6.00 Build 0)  -->
<svg version="1.1" id="Layer_1" xmlns="http://www.w3.org/2000/svg" xmlns:xlink="http://www.w3.org/1999/xlink" x="0px" y="0px"
	 viewBox="0 0 162.4 190.2" style="enable-background:new 0 0 162.4 190.2;" xml:space="preserve">
<style type="text/css">
	.st0{fill:#231F20;}
	.st1{fill-rule:evenodd;clip-rule:evenodd;fill:#FFE100;}
	.st2{fill-rule:evenodd;clip-rule:evenodd;fill:#4A5E00;}
</style>
<g>
	<path class="st0" d="M11.6,189.1c0.5,0,1-0.1,1.4-0.2c0.4-0.1,0.9-0.3,1.2-0.5c0.1-0.1,0.2,0,0.3,0.1l0.2,0.4
		c0.1,0.1,0,0.2-0.1,0.2c-0.5,0.3-1,0.5-1.5,0.6c-0.5,0.1-1.1,0.2-1.6,0.2c-3.1,0-4.6-1.8-4.6-5.4c0-0.9,0.1-1.7,0.3-2.4
		c0.2-0.7,0.5-1.3,1-1.8c0.4-0.5,0.9-0.8,1.5-1.1c0.6-0.2,1.2-0.4,2-0.4c1,0,2,0.2,2.9,0.7c0.1,0.1,0.1,0.1,0.1,0.2l-0.2,0.4
		c0,0.1-0.1,0.1-0.3,0.1c-0.4-0.2-0.7-0.3-1.1-0.4c-0.4-0.1-0.9-0.2-1.3-0.2c-0.7,0-1.2,0.1-1.7,0.4c-0.5,0.3-0.9,0.6-1.2,1.1
		c-0.3,0.4-0.5,0.9-0.7,1.5c-0.1,0.6-0.2,1.2-0.2,1.8c0,0.7,0.1,1.3,0.2,1.8c0.1,0.6,0.3,1,0.6,1.5c0.3,0.4,0.7,0.7,1.2,1
		C10.3,188.9,10.9,189.1,11.6,189.1L11.6,189.1z M20.5,178.9c0.8,0,1.4,0.1,2,0.4c0.5,0.2,1,0.6,1.3,1c0.3,0.4,0.6,0.9,0.8,1.5
		c0.2,0.6,0.3,1.2,0.3,1.8c0,0.4-0.1,0.7-0.3,0.8c-0.2,0.1-0.4,0.2-0.7,0.2H17c0,0.8,0.1,1.5,0.3,2.1c0.2,0.6,0.4,1,0.8,1.4
		c0.3,0.4,0.7,0.6,1.2,0.8c0.4,0.2,0.9,0.2,1.4,0.2c0.4,0,0.9,0,1.3-0.2c0.4-0.1,0.8-0.2,1.1-0.4c0.1,0,0.1,0,0.1,0
		c0,0,0.1,0,0.1,0.1l0.2,0.5c0.1,0.1,0,0.2-0.1,0.2c-0.4,0.3-0.9,0.4-1.4,0.5c-0.5,0.1-1,0.1-1.5,0.1c-1.4,0-2.5-0.4-3.3-1.3
		c-0.8-0.9-1.2-2.3-1.2-4.2c0-0.9,0.1-1.7,0.3-2.4c0.2-0.7,0.5-1.3,0.9-1.7c0.4-0.5,0.9-0.8,1.4-1.1C19.2,179,19.8,178.9,20.5,178.9
		L20.5,178.9z M23.9,183.7c0-0.5-0.1-1-0.2-1.5c-0.1-0.5-0.3-0.9-0.6-1.3c-0.3-0.4-0.6-0.7-1.1-0.9c-0.4-0.2-1-0.3-1.7-0.3
		c-1.1,0-1.9,0.4-2.5,1.1c-0.6,0.7-0.9,1.7-1,2.9H23.9L23.9,183.7z M32.3,187.6c0.3-0.6,0.6-1.3,0.9-1.9c0.3-0.6,0.6-1.2,0.9-1.8
		c0.4-0.7,0.7-1.4,1.1-2.2c0.3-0.7,0.7-1.4,1.1-2.2c0.1-0.2,0.2-0.3,0.2-0.4c0.1-0.1,0.2-0.1,0.4-0.1h0.3c0.2,0,0.3,0.1,0.4,0.2
		c0.1,0.1,0.1,0.2,0.1,0.4v9.9c0,0.1,0,0.1,0,0.2c0,0-0.1,0-0.2,0h-0.5c-0.1,0-0.1,0-0.2,0c0,0,0-0.1,0-0.2v-9h-0.1
		c-0.1,0.3-0.2,0.5-0.4,0.8c-0.1,0.2-0.3,0.5-0.4,0.8l-3,6.1c-0.1,0.1-0.1,0.2-0.2,0.3c-0.1,0.1-0.2,0.1-0.3,0.1h-0.3
		c-0.1,0-0.3,0-0.3-0.1c-0.1-0.1-0.1-0.2-0.2-0.3c-0.5-1-1-2-1.5-3c-0.5-1-1-2-1.5-3l-0.8-1.6h-0.1v8.9c0,0.1,0,0.1-0.1,0.2
		c0,0-0.1,0-0.2,0h-0.5c-0.1,0-0.1,0-0.2,0c0,0,0-0.1,0-0.2v-9.9c0-0.1,0-0.3,0.1-0.4c0.1-0.1,0.2-0.2,0.4-0.2h0.3
		c0.1,0,0.3,0,0.3,0.1c0.1,0.1,0.2,0.2,0.3,0.4c0.4,0.9,0.9,1.8,1.4,2.8c0.5,0.9,0.9,1.8,1.3,2.8L32.3,187.6L32.3,187.6L32.3,187.6z
		 M44.2,178.9c0.8,0,1.4,0.1,2,0.4c0.5,0.2,1,0.6,1.3,1c0.3,0.4,0.6,0.9,0.8,1.5c0.2,0.6,0.3,1.2,0.3,1.8c0,0.4-0.1,0.7-0.3,0.8
		c-0.2,0.1-0.4,0.2-0.7,0.2h-6.8c0,0.8,0.1,1.5,0.3,2.1c0.2,0.6,0.4,1,0.8,1.4c0.3,0.4,0.7,0.6,1.2,0.8c0.4,0.2,0.9,0.2,1.4,0.2
		c0.4,0,0.9,0,1.3-0.2c0.4-0.1,0.8-0.2,1.1-0.4c0.1,0,0.1,0,0.1,0c0,0,0.1,0,0.1,0.1l0.2,0.5c0.1,0.1,0,0.2-0.1,0.2
		c-0.4,0.3-0.9,0.4-1.4,0.5c-0.5,0.1-1,0.1-1.5,0.1c-1.4,0-2.5-0.4-3.3-1.3c-0.8-0.9-1.2-2.3-1.2-4.2c0-0.9,0.1-1.7,0.3-2.4
		c0.2-0.7,0.5-1.3,0.9-1.7c0.4-0.5,0.9-0.8,1.4-1.1C42.9,179,43.5,178.9,44.2,178.9L44.2,178.9z M47.6,183.7c0-0.5-0.1-1-0.2-1.5
		c-0.1-0.5-0.3-0.9-0.6-1.3c-0.3-0.4-0.6-0.7-1.1-0.9c-0.4-0.2-1-0.3-1.7-0.3c-1.1,0-1.9,0.4-2.5,1.1c-0.6,0.7-0.9,1.7-1,2.9H47.6
		L47.6,183.7z M57.9,180.5c-0.1,0.2-0.3,0.4-0.4,0.7c-0.1,0.2-0.3,0.4-0.4,0.7c-0.3,0.5-0.7,1-1.1,1.6c-0.4,0.6-0.9,1.3-1.4,2
		c-0.5,0.7-0.9,1.4-1.4,2.1c-0.5,0.7-0.9,1.3-1.2,1.8c-0.1,0.2-0.2,0.3-0.3,0.3c-0.1,0.1-0.2,0.1-0.3,0.1H51c-0.3,0-0.5-0.2-0.5-0.5
		v-9.8c0-0.1,0.1-0.2,0.2-0.2h0.6c0.1,0,0.2,0.1,0.2,0.2v9c0,0,0,0,0,0c0,0,0,0,0,0c0.2-0.3,0.4-0.6,0.6-0.9
		c0.2-0.3,0.4-0.6,0.6-0.9c0.3-0.4,0.7-1,1.1-1.6c0.4-0.6,0.8-1.2,1.3-1.9c0.4-0.7,0.9-1.3,1.3-1.9c0.4-0.6,0.8-1.2,1.2-1.7
		c0.1-0.1,0.2-0.3,0.3-0.3c0.1-0.1,0.2-0.1,0.4-0.1h0.3c0.2,0,0.3,0.1,0.4,0.2c0.1,0.1,0.1,0.2,0.1,0.4v9.8c0,0.1,0,0.1,0,0.2
		c0,0-0.1,0-0.2,0h-0.5c-0.1,0-0.1,0-0.2,0c0,0,0-0.1,0-0.2L57.9,180.5L57.9,180.5L57.9,180.5z M54.7,177.6c-0.6,0-1.2-0.2-1.6-0.5
		c-0.5-0.3-0.9-0.8-1.2-1.4c-0.1-0.1-0.1-0.2,0-0.3l0.2-0.2c0.1-0.1,0.1-0.1,0.2,0c0,0,0.1,0.1,0.1,0.1c0.3,0.5,0.7,0.8,1.1,1
		c0.4,0.2,0.8,0.3,1.2,0.3c0.3,0,0.6-0.1,1-0.3c0.4-0.2,0.8-0.6,1.2-1.1c0.1-0.1,0.1-0.1,0.1-0.1c0,0,0.1,0,0.1,0l0.2,0.2
		c0.1,0.1,0.1,0.1,0.1,0.2c0,0.1-0.1,0.1-0.1,0.2c-0.4,0.6-0.9,1.1-1.4,1.4C55.7,177.5,55.2,177.6,54.7,177.6L54.7,177.6z
		 M62.5,189.5c0,0.1-0.1,0.2-0.2,0.2h-0.5c-0.1,0-0.2-0.1-0.2-0.2v-10.2c0-0.1,0.1-0.2,0.2-0.2h0.6c0.1,0,0.2,0.1,0.2,0.2v4.3h6.3
		v-4.3c0-0.1,0.1-0.2,0.2-0.2h0.5c0.1,0,0.2,0.1,0.2,0.2v10.2c0,0.1-0.1,0.2-0.2,0.2h-0.5c-0.1,0-0.2-0.1-0.2-0.2v-5h-6.3V189.5
		L62.5,189.5z M81,184.4c0,1.8-0.4,3.2-1.2,4.2c-0.8,0.9-1.9,1.4-3.3,1.4c-1.4,0-2.5-0.5-3.3-1.4c-0.8-0.9-1.2-2.3-1.2-4.1
		c0-1.8,0.4-3.2,1.2-4.1c0.8-0.9,1.9-1.4,3.3-1.4c1.4,0,2.5,0.5,3.3,1.4C80.6,181.3,81,182.6,81,184.4L81,184.4z M80,184.4
		c0-0.6-0.1-1.2-0.2-1.8c-0.1-0.6-0.3-1.1-0.6-1.5c-0.3-0.4-0.6-0.8-1.1-1c-0.5-0.3-1-0.4-1.7-0.4c-0.6,0-1.2,0.1-1.6,0.4
		c-0.4,0.3-0.8,0.6-1.1,1c-0.3,0.4-0.5,0.9-0.6,1.5c-0.1,0.6-0.2,1.1-0.2,1.7c0,0.7,0.1,1.3,0.2,1.9c0.1,0.6,0.3,1.1,0.6,1.5
		c0.3,0.4,0.6,0.8,1.1,1c0.4,0.2,1,0.4,1.7,0.4c0.7,0,1.3-0.1,1.7-0.4c0.5-0.3,0.8-0.6,1.1-1.1c0.3-0.4,0.5-0.9,0.6-1.5
		C80,185.5,80,185,80,184.4L80,184.4z M90.5,180.5c-0.1,0.2-0.3,0.4-0.4,0.7c-0.1,0.2-0.3,0.4-0.4,0.7c-0.3,0.5-0.7,1-1.1,1.6
		c-0.4,0.6-0.9,1.3-1.4,2c-0.5,0.7-0.9,1.4-1.4,2.1c-0.5,0.7-0.9,1.3-1.2,1.8c-0.1,0.2-0.2,0.3-0.3,0.3c-0.1,0.1-0.2,0.1-0.3,0.1
		h-0.2c-0.3,0-0.5-0.2-0.5-0.5v-9.8c0-0.1,0.1-0.2,0.2-0.2h0.6c0.1,0,0.2,0.1,0.2,0.2v9c0,0,0,0,0,0c0,0,0,0,0,0
		c0.2-0.3,0.4-0.6,0.6-0.9c0.2-0.3,0.4-0.6,0.6-0.9c0.3-0.4,0.6-1,1.1-1.6c0.4-0.6,0.8-1.2,1.3-1.9c0.4-0.7,0.9-1.3,1.3-1.9
		c0.4-0.6,0.8-1.2,1.2-1.7c0.1-0.1,0.2-0.3,0.3-0.3c0.1-0.1,0.2-0.1,0.4-0.1H91c0.2,0,0.3,0.1,0.4,0.2c0.1,0.1,0.1,0.2,0.1,0.4v9.8
		c0,0.1,0,0.1,0,0.2c0,0-0.1,0-0.2,0h-0.5c-0.1,0-0.1,0-0.2,0c0,0,0-0.1,0-0.2L90.5,180.5L90.5,180.5L90.5,180.5z M87.2,177.6
		c-0.6,0-1.2-0.2-1.6-0.5c-0.5-0.3-0.9-0.8-1.2-1.4c-0.1-0.1-0.1-0.2,0-0.3l0.2-0.2c0.1-0.1,0.1-0.1,0.2,0c0,0,0.1,0.1,0.1,0.1
		c0.3,0.5,0.7,0.8,1.1,1c0.4,0.2,0.8,0.3,1.2,0.3c0.3,0,0.6-0.1,1-0.3c0.4-0.2,0.8-0.6,1.2-1.1c0.1-0.1,0.1-0.1,0.1-0.1
		c0,0,0.1,0,0.1,0l0.2,0.2c0.1,0.1,0.1,0.1,0.1,0.2c0,0.1-0.1,0.1-0.1,0.2c-0.4,0.6-0.9,1.1-1.4,1.4
		C88.2,177.5,87.7,177.6,87.2,177.6L87.2,177.6z M108.7,184.5H106c-0.4,0-0.9,0.1-1.3,0.3c-0.4,0.2-0.7,0.7-0.9,1.3l-1,3.4
		c0,0.1-0.1,0.2-0.2,0.2h-0.6c-0.1,0-0.1,0-0.2-0.1c0,0,0-0.1,0-0.2l1-3.5c0.1-0.5,0.3-0.9,0.6-1.2c0.2-0.3,0.6-0.6,1.1-0.7l0,0
		c-0.4-0.1-0.7-0.4-0.8-0.7c-0.2-0.3-0.3-0.8-0.5-1.2l-0.8-2.7c0-0.1,0-0.2,0.2-0.2h0.5c0.1,0,0.2,0.1,0.2,0.2l0.8,2.8
		c0.2,0.6,0.5,1.1,0.8,1.3c0.3,0.2,0.8,0.3,1.2,0.3h2.4v-4.4c0-0.1,0-0.1,0-0.2c0,0,0.1,0,0.2,0h0.5c0.1,0,0.1,0,0.2,0
		c0,0,0.1,0.1,0.1,0.2v4.4h2.4c0.5,0,0.9-0.1,1.2-0.3c0.3-0.2,0.6-0.6,0.8-1.3l0.8-2.8c0-0.1,0.1-0.2,0.2-0.2h0.5
		c0.1,0,0.2,0.1,0.2,0.2L115,182c-0.1,0.5-0.3,0.9-0.5,1.2c-0.2,0.3-0.5,0.6-0.8,0.7l0,0c0.5,0.1,0.9,0.4,1.1,0.7
		c0.2,0.3,0.4,0.7,0.6,1.2l1,3.5c0,0.1,0,0.1,0,0.2c0,0-0.1,0.1-0.2,0.1h-0.6c-0.1,0-0.2-0.1-0.2-0.2l-1-3.4
		c-0.2-0.6-0.5-1.1-0.9-1.3c-0.4-0.2-0.8-0.3-1.2-0.3h-2.7v5c0,0.1,0,0.1-0.1,0.2c0,0-0.1,0-0.2,0h-0.5c-0.1,0-0.1,0-0.2,0
		c0,0,0-0.1,0-0.2V184.5L108.7,184.5z M125.5,180.5c-0.1,0.2-0.3,0.4-0.4,0.7c-0.1,0.2-0.3,0.4-0.4,0.7c-0.3,0.5-0.7,1-1.1,1.6
		c-0.4,0.6-0.9,1.3-1.4,2c-0.5,0.7-0.9,1.4-1.4,2.1c-0.5,0.7-0.9,1.3-1.2,1.8c-0.1,0.2-0.2,0.3-0.3,0.3c-0.1,0.1-0.2,0.1-0.3,0.1
		h-0.2c-0.3,0-0.5-0.2-0.5-0.5v-9.8c0-0.1,0.1-0.2,0.2-0.2h0.6c0.1,0,0.2,0.1,0.2,0.2v9c0,0,0,0,0,0c0,0,0,0,0,0
		c0.2-0.3,0.4-0.6,0.6-0.9c0.2-0.3,0.4-0.6,0.6-0.9c0.3-0.4,0.7-1,1.1-1.6c0.4-0.6,0.8-1.2,1.3-1.9c0.4-0.7,0.9-1.3,1.3-1.9
		c0.4-0.6,0.8-1.2,1.2-1.7c0.1-0.1,0.2-0.3,0.3-0.3c0.1-0.1,0.2-0.1,0.4-0.1h0.3c0.2,0,0.3,0.1,0.4,0.2c0.1,0.1,0.1,0.2,0.1,0.4v9.8
		c0,0.1,0,0.1,0,0.2c0,0-0.1,0-0.2,0h-0.5c-0.1,0-0.1,0-0.2,0c0,0,0-0.1,0-0.2L125.5,180.5L125.5,180.5L125.5,180.5z M133.9,184.1
		c0.4,0.1,0.7,0.2,1,0.4c0.3,0.2,0.5,0.4,0.7,0.6c0.2,0.2,0.3,0.5,0.4,0.8c0.1,0.3,0.1,0.5,0.1,0.8c0,0.4-0.1,0.8-0.2,1.2
		c-0.2,0.4-0.4,0.7-0.8,1c-0.3,0.3-0.8,0.5-1.3,0.7c-0.5,0.2-1.2,0.3-2,0.3c-0.3,0-0.6,0-0.9,0c-0.3,0-0.7-0.1-1-0.1
		c-0.3-0.1-0.6-0.1-1-0.2c-0.3-0.1-0.6-0.2-0.8-0.3c-0.1-0.1-0.1-0.1-0.1-0.2l0.2-0.5c0.1-0.1,0.1-0.1,0.3-0.1
		c0.2,0.1,0.4,0.2,0.6,0.3c0.2,0.1,0.5,0.2,0.8,0.2c0.3,0.1,0.6,0.1,0.9,0.2c0.3,0,0.6,0.1,0.8,0.1c1.2,0,2.1-0.2,2.7-0.7
		c0.6-0.5,0.8-1.1,0.8-1.8c0-0.7-0.3-1.2-1-1.5c-0.7-0.4-1.5-0.6-2.6-0.6c-0.3,0-0.4-0.1-0.4-0.3V184c0-0.2,0.1-0.3,0.4-0.3
		c1.1,0,1.9-0.2,2.4-0.6c0.5-0.4,0.8-0.8,0.8-1.4c0-0.3-0.1-0.6-0.2-0.9c-0.2-0.2-0.4-0.4-0.6-0.6c-0.3-0.2-0.6-0.3-0.9-0.3
		c-0.4-0.1-0.7-0.1-1.1-0.1c-0.5,0-1,0.1-1.5,0.2c-0.5,0.1-0.9,0.3-1.3,0.4c-0.1,0.1-0.2,0-0.3-0.1l-0.2-0.4c0-0.1,0-0.1,0-0.2
		s0-0.1,0.1-0.1c0.5-0.2,1-0.4,1.6-0.5c0.6-0.1,1.1-0.2,1.7-0.2c1.2,0,2.1,0.2,2.8,0.7c0.7,0.4,1,1.1,1,2c0,0.5-0.2,0.9-0.5,1.4
		C135.1,183.4,134.5,183.8,133.9,184.1L133.9,184.1L133.9,184.1z M139.2,189.5c0,0.1-0.1,0.2-0.2,0.2h-0.5c-0.1,0-0.2-0.1-0.2-0.2
		v-10.2c0-0.1,0.1-0.2,0.2-0.2h0.6c0.1,0,0.2,0.1,0.2,0.2v4.3h6.3v-4.3c0-0.1,0.1-0.2,0.2-0.2h0.5c0.1,0,0.2,0.1,0.2,0.2v10.2
		c0,0.1-0.1,0.2-0.2,0.2h-0.5c-0.1,0-0.2-0.1-0.2-0.2v-5h-6.3V189.5L139.2,189.5z M156.5,180.5c-0.1,0.2-0.3,0.4-0.4,0.7
		c-0.1,0.2-0.3,0.4-0.4,0.7c-0.3,0.5-0.7,1-1.1,1.6c-0.4,0.6-0.9,1.3-1.4,2c-0.5,0.7-0.9,1.4-1.4,2.1c-0.5,0.7-0.9,1.3-1.2,1.8
		c-0.1,0.2-0.2,0.3-0.3,0.3c-0.1,0.1-0.2,0.1-0.3,0.1h-0.2c-0.3,0-0.5-0.2-0.5-0.5v-9.8c0-0.1,0.1-0.2,0.2-0.2h0.6
		c0.1,0,0.2,0.1,0.2,0.2v9c0,0,0,0,0,0c0,0,0,0,0,0c0.2-0.3,0.4-0.6,0.6-0.9c0.2-0.3,0.4-0.6,0.6-0.9c0.3-0.4,0.6-1,1.1-1.6
		c0.4-0.6,0.8-1.2,1.3-1.9c0.4-0.7,0.9-1.3,1.3-1.9c0.4-0.6,0.8-1.2,1.2-1.7c0.1-0.1,0.2-0.3,0.3-0.3c0.1-0.1,0.2-0.1,0.4-0.1h0.3
		c0.2,0,0.3,0.1,0.4,0.2c0.1,0.1,0.1,0.2,0.1,0.4v9.8c0,0.1,0,0.1,0,0.2c0,0-0.1,0-0.2,0h-0.5c-0.1,0-0.1,0-0.2,0c0,0,0-0.1,0-0.2
		L156.5,180.5L156.5,180.5L156.5,180.5z M161.6,186.5c0,0.1-0.1,0.2-0.2,0.2h-0.2c-0.1,0-0.2-0.1-0.2-0.2l-0.2-10.8
		c0-0.1,0.1-0.2,0.2-0.2h0.7c0.1,0,0.2,0.1,0.2,0.2L161.6,186.5L161.6,186.5z M162,189.1c0,0.2-0.1,0.4-0.2,0.6
		c-0.1,0.2-0.3,0.2-0.6,0.2c-0.2,0-0.4-0.1-0.6-0.2c-0.2-0.2-0.2-0.3-0.2-0.6c0-0.2,0.1-0.4,0.2-0.5c0.2-0.1,0.3-0.2,0.6-0.2
		c0.2,0,0.4,0.1,0.6,0.2C162,188.7,162,188.9,162,189.1L162,189.1z"/>
	<path class="st0" d="M14.4,164.8c1-0.1,1.8-0.2,2.5-0.5c0.7-0.3,1.3-0.7,1.7-1.1c0.5-0.5,0.8-1,1-1.6c0.2-0.6,0.3-1.3,0.3-1.9
		c0-0.7-0.1-1.3-0.4-1.9c-0.2-0.6-0.6-1.1-1-1.6c-0.5-0.5-1-0.8-1.7-1.1c-0.7-0.3-1.5-0.5-2.4-0.5V164.8L14.4,164.8z M13.4,154.4
		c-0.9,0-1.7,0.2-2.4,0.5c-0.7,0.3-1.3,0.7-1.7,1.1c-0.5,0.5-0.8,1-1.1,1.6c-0.2,0.6-0.4,1.2-0.4,1.9c0,0.7,0.1,1.3,0.3,1.9
		c0.2,0.6,0.5,1.1,1,1.6c0.4,0.5,1,0.8,1.7,1.1c0.7,0.3,1.5,0.5,2.5,0.5V154.4L13.4,154.4z M14.4,166.7c0,0.1-0.1,0.2-0.2,0.2h-0.6
		c-0.1,0-0.2-0.1-0.2-0.2v-1c-1-0.1-2-0.2-2.8-0.6c-0.8-0.3-1.5-0.7-2-1.3c-0.5-0.5-1-1.2-1.2-1.9c-0.3-0.7-0.4-1.5-0.4-2.4
		c0-0.8,0.2-1.6,0.5-2.3c0.3-0.7,0.7-1.3,1.3-1.9c0.6-0.5,1.2-1,2-1.3c0.8-0.3,1.7-0.5,2.6-0.6V153c0-0.1,0.1-0.2,0.2-0.2h0.6
		c0.1,0,0.2,0.1,0.2,0.2v0.6c1,0,1.9,0.2,2.7,0.5c0.8,0.3,1.5,0.7,2.1,1.3c0.6,0.5,1,1.2,1.3,1.9c0.3,0.7,0.5,1.5,0.5,2.4
		c0,0.9-0.2,1.6-0.5,2.4c-0.3,0.7-0.7,1.3-1.3,1.9c-0.6,0.5-1.3,0.9-2.1,1.3c-0.8,0.3-1.7,0.5-2.7,0.6V166.7L14.4,166.7z
		 M25.8,166.9h-0.2c-0.1,0-0.2,0-0.2-0.1c-0.1,0-0.1-0.1-0.2-0.3l-3.5-10c0-0.1,0-0.2,0.1-0.2h0.6c0.1,0,0.1,0,0.2,0
		c0,0,0,0.1,0.1,0.1c0.4,1.2,0.8,2.3,1.2,3.5c0.4,1.1,0.8,2.3,1.2,3.5c0.1,0.4,0.3,0.9,0.4,1.3c0.1,0.5,0.3,0.9,0.4,1.4H26
		c0.2-0.5,0.3-0.9,0.4-1.2c0.1-0.3,0.2-0.6,0.3-0.8c0.1-0.2,0.1-0.4,0.2-0.5c0-0.1,0.1-0.3,0.2-0.4l2.4-6.7c0-0.1,0.1-0.1,0.1-0.1
		c0,0,0.1,0,0.2,0h0.6c0.1,0,0.2,0.1,0.1,0.2l-4.3,12.2c-0.3,0.9-0.7,1.5-1,1.8c-0.4,0.3-0.9,0.5-1.5,0.5c-0.2,0-0.4,0-0.7,0
		c-0.3,0-0.6-0.1-0.9-0.2c-0.1,0-0.2-0.1-0.2-0.1c0,0,0-0.1,0-0.2l0.1-0.5c0.1-0.1,0.1-0.1,0.2-0.1c0.3,0.1,0.6,0.1,0.7,0.2
		c0.2,0,0.3,0,0.5,0c0.2,0,0.3,0,0.5,0c0.2,0,0.3-0.1,0.5-0.2c0.1-0.1,0.3-0.2,0.4-0.4c0.1-0.2,0.3-0.5,0.4-0.8L25.8,166.9
		L25.8,166.9z M32.9,166.7c0,0.1-0.1,0.2-0.2,0.2h-0.5c-0.1,0-0.2-0.1-0.2-0.2v-10.2c0-0.1,0.1-0.2,0.2-0.2h0.6
		c0.1,0,0.2,0.1,0.2,0.2v4.3h6.3v-4.3c0-0.1,0.1-0.2,0.2-0.2h0.5c0.1,0,0.2,0.1,0.2,0.2v10.2c0,0.1-0.1,0.2-0.2,0.2h-0.5
		c-0.1,0-0.2-0.1-0.2-0.2v-5h-6.3V166.7L32.9,166.7z M44.8,162.7c-0.1,0.7-0.2,1.4-0.4,2c-0.1,0.6-0.4,1.1-0.7,1.5h6.8v-8.8h-4.9
		L44.8,162.7L44.8,162.7z M42.7,166.9l-0.2,2.9c0,0.1,0,0.1-0.1,0.1c0,0-0.1,0-0.1,0h-0.5c-0.1,0-0.1-0.1-0.2-0.2l-0.1-3
		c0-0.1,0-0.3,0.1-0.4c0.1-0.1,0.2-0.2,0.5-0.2l0.4,0c0.4-0.4,0.6-0.8,0.8-1.4c0.2-0.6,0.3-1.2,0.4-1.8l0.9-5.8
		c0-0.2,0.1-0.4,0.2-0.5c0.1-0.1,0.3-0.2,0.6-0.2h5.2c0.3,0,0.5,0.1,0.6,0.2c0.1,0.1,0.1,0.3,0.1,0.5v9.1l0.5,0
		c0.3,0,0.4,0.1,0.5,0.2c0.1,0.1,0.1,0.3,0.1,0.4l-0.2,3.1c0,0.1-0.1,0.2-0.2,0.2h-0.5c-0.1,0-0.1-0.1-0.1-0.2l-0.1-2.9H42.7
		L42.7,166.9z M62.2,166.1c0,0.2-0.1,0.3-0.2,0.4c-0.6,0.2-1.2,0.4-1.9,0.5c-0.7,0.1-1.3,0.2-1.9,0.2c-0.8,0-1.5-0.1-2.1-0.3
		c-0.5-0.2-1-0.4-1.3-0.7c-0.3-0.3-0.5-0.7-0.7-1c-0.1-0.4-0.2-0.8-0.2-1.2c0-0.6,0.1-1.1,0.3-1.5c0.2-0.4,0.5-0.8,0.9-1.1
		c0.4-0.3,0.8-0.5,1.3-0.7c0.5-0.1,1.1-0.2,1.7-0.2h3.1v-0.8c0-0.4,0-0.8-0.1-1.1c-0.1-0.3-0.2-0.6-0.4-0.8
		c-0.2-0.2-0.5-0.4-0.9-0.5c-0.4-0.1-0.9-0.2-1.5-0.2c-0.4,0-0.9,0-1.4,0.1c-0.5,0.1-1,0.2-1.5,0.4c-0.1,0-0.2,0-0.2-0.1l-0.1-0.5
		c0-0.1,0-0.2,0.1-0.2c0.4-0.2,0.9-0.3,1.5-0.4c0.6-0.1,1.2-0.1,1.7-0.1c2.5,0,3.7,1.1,3.7,3.2V166.1L62.2,166.1z M61.3,161.2h-3.1
		c-0.2,0-0.5,0-0.9,0.1c-0.4,0.1-0.7,0.2-1,0.4c-0.3,0.2-0.6,0.5-0.9,0.8c-0.2,0.3-0.4,0.8-0.4,1.4c0,0.5,0.1,0.9,0.3,1.2
		c0.2,0.3,0.4,0.6,0.8,0.7c0.3,0.2,0.7,0.3,1,0.4c0.4,0.1,0.8,0.1,1.1,0.1c0.1,0,0.3,0,0.6,0c0.2,0,0.5,0,0.8-0.1
		c0.3,0,0.6-0.1,0.9-0.2c0.3-0.1,0.6-0.1,0.8-0.2V161.2L61.3,161.2z M70.1,164.8c0.3-0.6,0.6-1.3,0.9-1.9c0.3-0.6,0.6-1.2,0.9-1.8
		c0.4-0.7,0.7-1.4,1.1-2.2c0.3-0.7,0.7-1.4,1.1-2.2c0.1-0.2,0.2-0.3,0.2-0.4c0.1-0.1,0.2-0.1,0.4-0.1H75c0.2,0,0.3,0.1,0.4,0.2
		c0.1,0.1,0.1,0.2,0.1,0.4v9.9c0,0.1,0,0.1,0,0.2c0,0-0.1,0-0.2,0h-0.5c-0.1,0-0.1,0-0.2,0c0,0,0-0.1,0-0.2v-9h-0.1
		c-0.1,0.3-0.2,0.5-0.4,0.8c-0.1,0.2-0.3,0.5-0.4,0.8l-3,6.1c-0.1,0.1-0.1,0.2-0.2,0.3c-0.1,0.1-0.2,0.1-0.3,0.1h-0.3
		c-0.1,0-0.3,0-0.3-0.1c-0.1-0.1-0.1-0.2-0.2-0.3c-0.5-1-1-2-1.5-3c-0.5-1-1-2-1.5-3l-0.8-1.6h-0.1v8.9c0,0.1,0,0.1-0.1,0.2
		c0,0-0.1,0-0.2,0h-0.5c-0.1,0-0.1,0-0.2,0c0,0,0-0.1,0-0.2v-9.9c0-0.1,0-0.3,0.1-0.4c0.1-0.1,0.2-0.2,0.4-0.2h0.3
		c0.1,0,0.3,0,0.3,0.1c0.1,0.1,0.2,0.2,0.3,0.4c0.4,0.9,0.9,1.8,1.4,2.8c0.5,0.9,0.9,1.8,1.3,2.8L70.1,164.8L70.1,164.8L70.1,164.8z
		 M82,156.1c0.8,0,1.4,0.1,2,0.4c0.5,0.2,1,0.6,1.3,1c0.3,0.4,0.6,0.9,0.8,1.5c0.2,0.6,0.3,1.2,0.3,1.8c0,0.4-0.1,0.7-0.3,0.8
		c-0.2,0.1-0.4,0.2-0.7,0.2h-6.8c0,0.8,0.1,1.5,0.3,2.1c0.2,0.6,0.4,1,0.8,1.4c0.3,0.4,0.7,0.6,1.2,0.8c0.4,0.2,0.9,0.2,1.4,0.2
		c0.4,0,0.9-0.1,1.3-0.2c0.4-0.1,0.8-0.2,1.1-0.4c0.1,0,0.1,0,0.1,0c0,0,0.1,0,0.1,0.1l0.2,0.5c0.1,0.1,0,0.2-0.1,0.2
		c-0.4,0.3-0.9,0.4-1.4,0.5c-0.5,0.1-1,0.1-1.5,0.1c-1.4,0-2.5-0.4-3.3-1.3c-0.8-0.9-1.2-2.3-1.2-4.2c0-0.9,0.1-1.7,0.3-2.4
		c0.2-0.7,0.5-1.3,0.9-1.7c0.4-0.5,0.9-0.8,1.4-1.1C80.7,156.2,81.3,156.1,82,156.1L82,156.1z M85.4,160.9c0-0.5-0.1-1-0.2-1.5
		c-0.1-0.5-0.3-0.9-0.6-1.3c-0.3-0.4-0.6-0.7-1.1-0.9c-0.4-0.2-1-0.3-1.7-0.3c-1.1,0-1.9,0.4-2.5,1.1c-0.6,0.7-0.9,1.7-1,2.9H85.4
		L85.4,160.9z M89.5,166.7c0,0.1-0.1,0.2-0.2,0.2h-0.5c-0.1,0-0.2-0.1-0.2-0.2v-10.2c0-0.1,0.1-0.2,0.2-0.2h0.6
		c0.1,0,0.2,0.1,0.2,0.2v4.3h6.3v-4.3c0-0.1,0.1-0.2,0.2-0.2h0.5c0.1,0,0.2,0.1,0.2,0.2v10.2c0,0.1-0.1,0.2-0.2,0.2H96
		c-0.1,0-0.2-0.1-0.2-0.2v-5h-6.3V166.7L89.5,166.7z M102.9,166.7c0,0.1-0.1,0.2-0.2,0.2h-0.5c-0.2,0-0.2-0.1-0.2-0.2v-9.5h-3.5
		c-0.1,0-0.2-0.1-0.2-0.2v-0.4c0-0.1,0.1-0.2,0.2-0.2h8c0.1,0,0.2,0.1,0.2,0.2v0.4c0,0.1-0.1,0.2-0.2,0.2h-3.6V166.7L102.9,166.7z"
		/>
	<path class="st1" d="M58.8,8.1c4.5,0,9,0.5,13.2,1.6c-2.7,3.8-4.4,8.5-4.4,13.5c0,12.8,10.4,23.2,23.2,23.2c1.1,0,2.2-0.1,3.2-0.2
		c2,0,3.2,0.9,3.7,2.9c0.6,2.2,1.1,5.5,1.3,9.4c0,1.1-1,1.3-1.7,0.9c-1.8-1-3.5-1.8-5.3-2.5c-0.2-0.1-1-0.5-0.7-1.5
		c0.9-3-0.5-6.1-3.1-7.6c-0.6-0.3-1.2-0.6-1.9-0.7c-3.3-0.6-6.5,1.3-7.5,4.6c-0.5,1.6-0.3,3.2,0.3,4.5c0.3,0.6,0.6,1.2,1.1,1.8
		c0.8,0.9,2,1.6,3.2,1.9c2,0.5,4.1,0,5.6-1.2c0.5-0.4,1.2-0.5,1.7-0.1c4.4,3.1,8.2,6.7,8.6,11.5v0c0.1,6.4-0.2,12.7-0.5,16.8
		c-0.4,5.3-0.9,7.4-6,8.2c-2.6,0.3-5.1,0.6-7.7,0.9c-17.4,2.7-23.4,4.5-33.3,6.9c-1.5-8.1-3.3-16.2-5.1-24.3
		c-0.3-1.5-0.7-2.8-1.7-4.5C41.9,68.3,34.4,59.8,31.3,57c-2.4-2.2-4.8-1.1-5.9-0.2c-5.2,4.3-9.5,8.9-13.6,14.2
		c-2.4,3.1-3.9,5.3-4.7,9.2c-0.3,1.4-0.5,3.1-0.8,4.9c-2.5-6.4-3.9-13.4-3.9-20.7C2.4,33.3,27.7,8.1,58.8,8.1L58.8,8.1z M108.6,38
		c4.2,7.9,6.6,16.9,6.6,26.5c0,7.8-1.6,15.3-4.5,22c-0.7-13.3-2.7-27.5-5.6-39.7c-0.2-0.8-0.3-1.1-0.4-1.7c-0.4-1.8-0.5-3,1.5-4.8
		C107.1,39.6,107.9,38.8,108.6,38L108.6,38z M40.5,71.5c1.7,2.1,2.2,2.7,3.7,4.7l0.7,4.7c-1.5-2-2.1-2.6-3.6-4.4L40.5,71.5
		L40.5,71.5z M36.5,85.1c1.3,1.2,2.7,2.3,4.2,3.8l0.5,5l-4.2-3.6L36.5,85.1L36.5,85.1z M35.1,74.5c1.7,1.6,2.9,2.4,4.5,4.3l0.8,5.6
		L36,80.1L35.1,74.5L35.1,74.5z M33.1,63.5c1.7,1.7,3,3,4.7,4.9l0.9,5.3L34,68.9L33.1,63.5L33.1,63.5z"/>
	<path class="st2" d="M58.8,5.3c5.2,0,10.3,0.7,15.2,2c0.9-1,1.9-1.8,3-2.6c2.4-1.9,5.2-3.3,8.3-3.9C87,0.2,88.9,0,90.8,0
		C103.6,0,114,10.4,114,23.2c0,1.4-0.1,2.9-0.4,4.2c-0.4,3-1.5,5.8-3.2,8.3c4.6,8.4,7.3,18.1,7.3,28.4c0,9.8-2.4,19.1-6.7,27.2v0
		c0.1,1.9,0.1,3.7,0.1,5.5c0.2,9.5,0.3,23.9-1.3,31.3c-1.3,6.1-6.6,10.2-12.9,10.2l-79.6,0c-4.2-0.3-7.4-1.8-9.7-4.5
		c-1.6-1.9-2.9-4.3-3.2-7.2c-1.1-9.1-0.1-25.4,1.3-37.2C2.1,81.8,0,73.2,0,64.1C0,31.6,26.3,5.3,58.8,5.3L58.8,5.3z M72,9.6
		c-4.2-1-8.6-1.6-13.2-1.6C27.7,8.1,2.4,33.3,2.4,64.5c0,7.3,1.4,14.3,3.9,20.7c0.3-1.8,0.5-3.5,0.8-4.9c0.7-3.9,2.3-6.1,4.7-9.2
		c4.1-5.4,8.5-10,13.6-14.2c1.1-0.8,3.4-2,5.9,0.2c3.1,2.7,10.6,11.3,13.8,16.9c1,1.8,1.4,3.1,1.7,4.5c1.9,8.1,3.6,16.2,5.1,24.3
		c6.6-1.6,11.4-2.9,18.9-4.4v-8.6l-3.3-0.5l-5.3,5l0.8,2c0.2,0.5-0.1,0.9-0.6,0.8c-0.2-0.1-1.5-1.9-1.8-2.2
		c-0.3-0.5-0.3-0.8,0.1-1.3c1.4-1.5,2.7-3.1,3.9-4.7l-1.1-0.2l-4.3,3.8l0.4,1.9c0.1,0.8-0.6,0.8-0.8,0.4l-1.1-2.1
		c-0.2-0.3,0.1-0.6,0.4-0.9c0.8-0.8,1.9-2.2,2.5-2.8c0.3-0.4,0-0.7-0.4-0.8l0,0l-7.8-1.2c-0.7-0.2-0.9-0.6-1-1.1
		c-0.6-0.4-0.9-0.9-1-0.9c4.5-0.9,6.3-2.9,6.4-7.2c0.1-2.4,2.2-4.1,2.9-4.9c0.2-0.2,0.3-0.3,0.2-0.4c-0.8-0.7-1.2-1-1.2-2.2
		c-1.7,2-6.9,1.4-5.1-4.2c0.4,2.8,4.7,4.2,5.1,3.2c0.2-0.8,0.6-2.5,3.2-2.1c2.2,0.3,3.1,3.4,1.4,5.4c-0.3,0.3-0.8,0.3-1.4,0.4
		c-0.2,0-0.2,0.2-0.2,0.4c0,0.1,0.2,0.7,0.4,1.3c1.9,5.9-0.9,6.8,6.6,11.9l-0.5,0.2c0.4,0.3,0.5,0.8,0.4,1.3l15.1,2.3
		c0.1-0.1,0.2-0.2,0.3-0.3l0.2-1.7c-0.3-0.2-0.4-0.5-0.4-1.1c0.1-1.2,1.3-1,2.1-0.8c0.8,0.2,2-0.8,3.7-1.8c0.2-0.2,0.3-0.2,0.5-0.4
		l0.3-0.5c-0.2-1.8-0.1-3.7,1.2-5.2c0.3-0.3,0.6-0.8,0.6-1c0-0.3,0-0.7-0.3-0.7c-0.6,0-1.2,0.1-1.6-0.3c-0.5-0.6-0.7-1.8-0.8-2.6
		c0-0.5,0.1-1,0.2-1.5c-0.5-0.3,1-2,2.5-2c1.3,0,3.4,0.7,3.6,2.6c0,0.4,0,0.7-0.1,1.1c-0.2,0.8,0.2,0.7,0.6,1l0.9,0.5
		c0.3,0.2,0.3,0.6,0.1,0.9l-2.1-1.2c-0.1,0.3-0.4,1-0.5,1.3c-0.5,1.5,3.2,7,2.8,11.9c-0.2,2.4-0.8,3.5-1.5,3.9l0.6,0.1l0,0.2
		c-0.1,0.8-0.8,1.2-1.6,1.1L85.7,92l-4.1,2.3c-1.3,0.6-1.9,0.9-2.5,0.4l-1.6-1.5c-0.5-0.4-0.2-2,1.8-0.5c0.4,0.3,0.7,0.1,0.9,0
		c0.3-0.1,1.1-0.7,1.9-1.4l-5.4-0.8v6.6c2.5-0.4,5.4-0.9,8.6-1.4c2.6-0.3,5.2-0.6,7.7-0.9c5.1-0.8,5.5-2.8,6-8.2
		c0.3-4,0.5-10.3,0.5-16.8c-0.4-4.8-4.2-8.4-8.6-11.5c-0.5-0.4-1.2-0.3-1.7,0.1c-1.5,1.2-3.6,1.7-5.6,1.2c-1.3-0.3-2.4-0.9-3.2-1.9
		c-0.5-0.5-0.8-1.1-1.1-1.8c-0.6-1.4-0.8-3-0.3-4.5c0.9-3.3,4.2-5.2,7.5-4.6c0.7,0.1,1.3,0.3,1.9,0.7c2.6,1.4,4,4.6,3.1,7.6
		c-0.3,1,0.5,1.5,0.7,1.5c1.7,0.7,3.5,1.4,5.3,2.5c0.6,0.4,1.7,0.1,1.7-0.9c-0.3-3.9-0.7-7.2-1.3-9.4c-0.6-2-1.7-2.9-3.7-2.9
		c-1.1,0.1-2.1,0.2-3.2,0.2c-12.8,0-23.2-10.4-23.2-23.2C67.7,18.1,69.3,13.4,72,9.6L72,9.6z M110.8,86.5
		c-0.7-13.3-2.7-27.5-5.6-39.7c-0.2-0.8-0.3-1.1-0.4-1.7c-0.4-1.8-0.5-3,1.5-4.8c0.8-0.7,1.6-1.6,2.3-2.4c4.2,7.9,6.6,16.9,6.6,26.5
		C115.2,72.3,113.7,79.8,110.8,86.5L110.8,86.5z M85,89c0.9-0.5,1.9-0.5,2.8-0.6l1.8,0c0.8,0,1.3-0.6,1.2-1.3c0-0.3,0-0.6-0.1-0.9
		c-0.1,0.1-0.2,0.2-0.4,0.3c-0.4,0.3-2.5,0.7-3.7,1.1c-0.3,0.2-0.9,0.5-1.5,0.6L85,89L85,89z M99.3,126.7c0.6,4,7.1,3.2,6.3-1.4
		C104.8,121.4,98.5,122,99.3,126.7L99.3,126.7z M33.6,125.1c0,2.8,2.1,4.9,5.2,4.9c1.8,0,3.7-0.8,4.7-2.3h0.1c0,0-0.1,0.5-0.1,1v1
		h4.9v-9.8c0-4.1-2.7-6.5-7.1-6.5c-2.6,0-5.4,1-6.8,2.1l1.9,3.8c1.3-0.8,2.9-1.5,4.4-1.5c1.2,0,2.3,0.4,2.3,1.8v0.3h-0.5
		C38.7,119.6,33.6,120.8,33.6,125.1L33.6,125.1z M38.9,124.6c0-1.5,2.1-1.9,3.8-1.9h0.5v0.4c0,1.3-1.2,2.8-2.7,2.8
		C39.4,125.9,38.9,125.3,38.9,124.6L38.9,124.6z M50.5,127.6c1.7,1.6,4.3,2.4,6.7,2.4c3.8,0,6.6-1.7,6.6-5.1c0-1.9-1.3-3-2.5-3.5
		v-0.1c1-0.5,2-1.6,2-3.6c0-2.8-2.6-4.4-5.9-4.4c-2.9,0-5,0.8-6.5,1.8l1.6,3.3c1.7-1,2.9-1.2,3.8-1.2c1.4,0,1.7,0.6,1.7,1.3
		c0,1-0.8,1.2-1.6,1.2h-1.6v3.5h2c1.5,0,1.7,0.6,1.7,1.3c0,0.7-0.4,1.4-1.9,1.4c-1.3,0-2.9-0.8-3.8-1.7L50.5,127.6L50.5,127.6z
		 M66.4,129.6h5.2l4.4-7c0.2-0.4,0.6-0.9,0.9-1.6H77c-0.1,0.6-0.1,1.2-0.1,1.6v7H82v-16h-5.2l-4.4,7c-0.3,0.5-0.6,0.9-0.9,1.6h-0.1
		c0-0.4,0.1-1,0.1-1.6v-7h-5.1V129.6L66.4,129.6z M96.4,113.7c-16.9-4.3-16.3,20,0,14.9l-0.6-4.1c-1.5,0.2-2.7,0.6-4.3-0.1
		c-1-0.5-1.8-1.5-1.9-3.1c-0.1-1.8,0.6-2.9,1.7-3.4c1.5-0.8,2.7-0.4,4.3-0.1L96.4,113.7L96.4,113.7z M13.9,118.6
		c0,6.3,3.1,10.7,9.3,10.7c5.4,0,8.9-3.6,8.9-8.3c0-4.6-2.8-7.9-7.4-7.9c-1.5,0-3.6,0.4-5,1.6h-0.1c0.1-2.5,2.4-3.4,4.6-4.1l6.5-2.1
		l-1.6-4.6l-5.6,1.9C16.8,108.1,13.9,111.6,13.9,118.6L13.9,118.6z M19.7,121.1c0-2.2,1.5-3.6,3.3-3.6c1.8,0,3.3,1.4,3.3,3.6
		c0,2.2-1.5,3.5-3.3,3.5C21.2,124.6,19.7,123.3,19.7,121.1L19.7,121.1z M40.5,71.5c1.7,2.1,2.2,2.7,3.7,4.7l0.7,4.7
		c-1.5-2-2.1-2.6-3.6-4.4L40.5,71.5L40.5,71.5z M36.5,85.1c1.3,1.2,2.7,2.3,4.2,3.8l0.5,5l-4.2-3.6L36.5,85.1L36.5,85.1z M35.1,74.5
		c1.7,1.6,2.9,2.4,4.5,4.3l0.8,5.6L36,80.1L35.1,74.5L35.1,74.5z M33.1,63.5c1.7,1.7,3,3,4.7,4.9l0.9,5.3L34,68.9L33.1,63.5
		L33.1,63.5z M99.5,70L99.5,70L99.5,70L99.5,70z"/>
</g>
</svg>
